<svg xmlns="http://www.w3.org/2000/svg" xmlns:xlink="http://www.w3.org/1999/xlink" contentStyleType="text/css" data-diagram-type="ACTIVITY" height="798px" preserveAspectRatio="none" style="width:727px;height:798px;background:#FFFFFF;" version="1.1" viewBox="0 0 727 798" width="727px" zoomAndPan="magnify"><title>Diagram Aktywno&#347;ci - Synchronizacja cen z dostawcami</title><defs/><g><text fill="#000000" font-family="sans-serif" font-size="14" font-weight="bold" lengthAdjust="spacing" textLength="440.7539" x="141.8276" y="32.9951">Diagram Aktywno&#347;ci - Synchronizacja cen z dostawcami</text><ellipse cx="324.4634" cy="57.2969" fill="#222222" rx="10" ry="10" style="stroke:#222222;stroke-width:1;"/><rect fill="#F1F1F1" height="33.9688" rx="12.5" ry="12.5" style="stroke:#181818;stroke-width:0.5;" width="192.7051" x="228.1108" y="87.2969"/><text fill="#000000" font-family="sans-serif" font-size="12" lengthAdjust="spacing" textLength="172.7051" x="238.1108" y="108.4355">Uruchomienie synchronizacji</text><polygon fill="#F1F1F1" points="270.5967,141.2656,378.3301,141.2656,390.3301,153.2656,378.3301,165.2656,270.5967,165.2656,258.5967,153.2656,270.5967,141.2656" style="stroke:#181818;stroke-width:0.5;"/><text fill="#000000" font-family="sans-serif" font-size="11" lengthAdjust="spacing" textLength="107.7334" x="270.5967" y="157.0737">Typ synchronizacji?</text><text fill="#000000" font-family="sans-serif" font-size="11" lengthAdjust="spacing" textLength="79.3525" x="179.2441" y="150.6714">Automatyczna</text><text fill="#000000" font-family="sans-serif" font-size="11" lengthAdjust="spacing" textLength="39.9448" x="390.3301" y="150.6714">R&#281;czna</text><rect fill="#F1F1F1" height="33.9688" rx="12.5" ry="12.5" style="stroke:#181818;stroke-width:0.5;" width="304.1914" x="11" y="175.2656"/><text fill="#000000" font-family="sans-serif" font-size="12" lengthAdjust="spacing" textLength="284.1914" x="21" y="196.4043">System sprawdza harmonogram synchronizacji</text><rect fill="#F1F1F1" height="33.9688" rx="12.5" ry="12.5" style="stroke:#181818;stroke-width:0.5;" width="271.7949" x="27.1982" y="229.2344"/><text fill="#000000" font-family="sans-serif" font-size="12" lengthAdjust="spacing" textLength="251.7949" x="37.1982" y="250.373">Pobranie aktualnych cen z API dostawc&#243;w</text><rect fill="#F1F1F1" height="33.9688" rx="12.5" ry="12.5" style="stroke:#181818;stroke-width:0.5;" width="301.2793" x="335.1914" y="175.2656"/><text fill="#000000" font-family="sans-serif" font-size="12" lengthAdjust="spacing" textLength="281.2793" x="345.1914" y="196.4043">Pracownik wybiera dostawc&#281; do synchronizacji</text><rect fill="#F1F1F1" height="33.9688" rx="12.5" ry="12.5" style="stroke:#181818;stroke-width:0.5;" width="261.7402" x="354.9609" y="229.2344"/><text fill="#000000" font-family="sans-serif" font-size="12" lengthAdjust="spacing" textLength="241.7402" x="364.9609" y="250.373">Pobranie aktualnych cen z API dostawcy</text><polygon fill="#F1F1F1" points="324.4634,269.2031,336.4634,281.2031,324.4634,293.2031,312.4634,281.2031,324.4634,269.2031" style="stroke:#181818;stroke-width:0.5;"/><rect fill="#F1F1F1" height="33.9688" rx="12.5" ry="12.5" style="stroke:#181818;stroke-width:0.5;" width="179.6504" x="234.6382" y="313.2031"/><text fill="#000000" font-family="sans-serif" font-size="12" lengthAdjust="spacing" textLength="159.6504" x="244.6382" y="334.3418">Weryfikacja zgodno&#347;ci cen</text><polygon fill="#F1F1F1" points="285.7271,367.1719,363.1997,367.1719,375.1997,379.1719,363.1997,391.1719,285.7271,391.1719,273.7271,379.1719,285.7271,367.1719" style="stroke:#181818;stroke-width:0.5;"/><text fill="#000000" font-family="sans-serif" font-size="11" lengthAdjust="spacing" textLength="77.4727" x="285.7271" y="382.98">Ceny zgodne?</text><text fill="#000000" font-family="sans-serif" font-size="11" lengthAdjust="spacing" textLength="19.8301" x="253.897" y="376.5776">Tak</text><text fill="#000000" font-family="sans-serif" font-size="11" lengthAdjust="spacing" textLength="18.0522" x="375.1997" y="376.5776">Nie</text><rect fill="#F1F1F1" height="33.9688" rx="12.5" ry="12.5" style="stroke:#181818;stroke-width:0.5;" width="205.1445" x="46.7715" y="401.1719"/><text fill="#000000" font-family="sans-serif" font-size="12" lengthAdjust="spacing" textLength="185.1445" x="56.7715" y="422.3105">Aktualizacja lokalnego cennika</text><rect fill="#F1F1F1" height="33.9688" rx="12.5" ry="12.5" style="stroke:#181818;stroke-width:0.5;" width="206.8262" x="45.9307" y="455.1406"/><text fill="#000000" font-family="sans-serif" font-size="12" lengthAdjust="spacing" textLength="186.8262" x="55.9307" y="476.2793">Zapisanie log&#243;w synchronizacji</text><rect fill="#F1F1F1" height="33.9688" rx="12.5" ry="12.5" style="stroke:#181818;stroke-width:0.5;" width="165.0254" x="66.8311" y="509.1094"/><text fill="#000000" font-family="sans-serif" font-size="12" lengthAdjust="spacing" textLength="145.0254" x="76.8311" y="530.248">Wygenerowanie raportu</text><rect fill="#F1F1F1" height="33.9688" rx="12.5" ry="12.5" style="stroke:#181818;stroke-width:0.5;" width="225.623" x="386.7715" y="401.1719"/><text fill="#000000" font-family="sans-serif" font-size="12" lengthAdjust="spacing" textLength="205.623" x="396.7715" y="422.3105">Powiadomienie o niezgodno&#347;ciach</text><rect fill="#F1F1F1" height="33.9688" rx="12.5" ry="12.5" style="stroke:#181818;stroke-width:0.5;" width="236.5156" x="381.3252" y="455.1406"/><text fill="#000000" font-family="sans-serif" font-size="12" lengthAdjust="spacing" textLength="216.5156" x="391.3252" y="476.2793">Oczekiwanie na decyzj&#281; pracownika</text><polygon fill="#F1F1F1" points="435.0251,509.1094,564.1409,509.1094,576.1409,521.1094,564.1409,533.1094,435.0251,533.1094,423.0251,521.1094,435.0251,509.1094" style="stroke:#181818;stroke-width:0.5;"/><text fill="#000000" font-family="sans-serif" font-size="11" lengthAdjust="spacing" textLength="129.1157" x="435.0251" y="524.9175">Zaakceptowa&#263; zmiany?</text><text fill="#000000" font-family="sans-serif" font-size="11" lengthAdjust="spacing" textLength="19.8301" x="403.1951" y="518.5151">Tak</text><text fill="#000000" font-family="sans-serif" font-size="11" lengthAdjust="spacing" textLength="18.0522" x="576.1409" y="518.5151">Nie</text><rect fill="#F1F1F1" height="33.9688" rx="12.5" ry="12.5" style="stroke:#181818;stroke-width:0.5;" width="205.1445" x="283.5977" y="543.1094"/><text fill="#000000" font-family="sans-serif" font-size="12" lengthAdjust="spacing" textLength="185.1445" x="293.5977" y="564.248">Aktualizacja lokalnego cennika</text><rect fill="#F1F1F1" height="33.9688" rx="12.5" ry="12.5" style="stroke:#181818;stroke-width:0.5;" width="206.8262" x="282.7568" y="597.0781"/><text fill="#000000" font-family="sans-serif" font-size="12" lengthAdjust="spacing" textLength="186.8262" x="292.7568" y="618.2168">Zapisanie log&#243;w synchronizacji</text><rect fill="#F1F1F1" height="33.9688" rx="12.5" ry="12.5" style="stroke:#181818;stroke-width:0.5;" width="165.0254" x="303.6572" y="651.0469"/><text fill="#000000" font-family="sans-serif" font-size="12" lengthAdjust="spacing" textLength="145.0254" x="313.6572" y="672.1855">Wygenerowanie raportu</text><rect fill="#F1F1F1" height="33.9688" rx="12.5" ry="12.5" style="stroke:#181818;stroke-width:0.5;" width="128.2988" x="548.8467" y="543.1094"/><text fill="#000000" font-family="sans-serif" font-size="12" lengthAdjust="spacing" textLength="108.2988" x="558.8467" y="564.248">Odrzucenie zmian</text><rect fill="#F1F1F1" height="33.9688" rx="12.5" ry="12.5" style="stroke:#181818;stroke-width:0.5;" width="206.8262" x="509.583" y="597.0781"/><text fill="#000000" font-family="sans-serif" font-size="12" lengthAdjust="spacing" textLength="186.8262" x="519.583" y="618.2168">Zapisanie log&#243;w synchronizacji</text><polygon fill="#F1F1F1" points="499.583,691.0156,511.583,703.0156,499.583,715.0156,487.583,703.0156,499.583,691.0156" style="stroke:#181818;stroke-width:0.5;"/><polygon fill="#F1F1F1" points="324.4634,721.0156,336.4634,733.0156,324.4634,745.0156,312.4634,733.0156,324.4634,721.0156" style="stroke:#181818;stroke-width:0.5;"/><ellipse cx="324.4634" cy="776.0156" fill="#FFFFFF" fill-opacity="0.00000" rx="11" ry="11" style="stroke:#222222;stroke-width:1;"/><ellipse cx="324.4634" cy="776.0156" fill="#222222" rx="6" ry="6" style="stroke:#222222;stroke-width:1;"/><line style="stroke:#181818;stroke-width:1;" x1="324.4634" x2="324.4634" y1="67.2969" y2="87.2969"/><polygon fill="#181818" points="320.4634,77.2969,324.4634,87.2969,328.4634,77.2969,324.4634,81.2969" style="stroke:#181818;stroke-width:1;"/><line style="stroke:#181818;stroke-width:1;" x1="163.0957" x2="163.0957" y1="209.2344" y2="229.2344"/><polygon fill="#181818" points="159.0957,219.2344,163.0957,229.2344,167.0957,219.2344,163.0957,223.2344" style="stroke:#181818;stroke-width:1;"/><line style="stroke:#181818;stroke-width:1;" x1="485.8311" x2="485.8311" y1="209.2344" y2="229.2344"/><polygon fill="#181818" points="481.8311,219.2344,485.8311,229.2344,489.8311,219.2344,485.8311,223.2344" style="stroke:#181818;stroke-width:1;"/><line style="stroke:#181818;stroke-width:1;" x1="258.5967" x2="163.0957" y1="153.2656" y2="153.2656"/><line style="stroke:#181818;stroke-width:1;" x1="163.0957" x2="163.0957" y1="153.2656" y2="175.2656"/><polygon fill="#181818" points="159.0957,165.2656,163.0957,175.2656,167.0957,165.2656,163.0957,169.2656" style="stroke:#181818;stroke-width:1;"/><line style="stroke:#181818;stroke-width:1;" x1="390.3301" x2="485.8311" y1="153.2656" y2="153.2656"/><line style="stroke:#181818;stroke-width:1;" x1="485.8311" x2="485.8311" y1="153.2656" y2="175.2656"/><polygon fill="#181818" points="481.8311,165.2656,485.8311,175.2656,489.8311,165.2656,485.8311,169.2656" style="stroke:#181818;stroke-width:1;"/><line style="stroke:#181818;stroke-width:1;" x1="163.0957" x2="163.0957" y1="263.2031" y2="281.2031"/><line style="stroke:#181818;stroke-width:1;" x1="163.0957" x2="312.4634" y1="281.2031" y2="281.2031"/><polygon fill="#181818" points="302.4634,277.2031,312.4634,281.2031,302.4634,285.2031,306.4634,281.2031" style="stroke:#181818;stroke-width:1;"/><line style="stroke:#181818;stroke-width:1;" x1="485.8311" x2="485.8311" y1="263.2031" y2="281.2031"/><line style="stroke:#181818;stroke-width:1;" x1="485.8311" x2="336.4634" y1="281.2031" y2="281.2031"/><polygon fill="#181818" points="346.4634,277.2031,336.4634,281.2031,346.4634,285.2031,342.4634,281.2031" style="stroke:#181818;stroke-width:1;"/><line style="stroke:#181818;stroke-width:1;" x1="324.4634" x2="324.4634" y1="121.2656" y2="141.2656"/><polygon fill="#181818" points="320.4634,131.2656,324.4634,141.2656,328.4634,131.2656,324.4634,135.2656" style="stroke:#181818;stroke-width:1;"/><line style="stroke:#181818;stroke-width:1;" x1="324.4634" x2="324.4634" y1="293.2031" y2="313.2031"/><polygon fill="#181818" points="320.4634,303.2031,324.4634,313.2031,328.4634,303.2031,324.4634,307.2031" style="stroke:#181818;stroke-width:1;"/><line style="stroke:#181818;stroke-width:1;" x1="149.3438" x2="149.3438" y1="435.1406" y2="455.1406"/><polygon fill="#181818" points="145.3438,445.1406,149.3438,455.1406,153.3438,445.1406,149.3438,449.1406" style="stroke:#181818;stroke-width:1;"/><line style="stroke:#181818;stroke-width:1;" x1="149.3438" x2="149.3438" y1="489.1094" y2="509.1094"/><polygon fill="#181818" points="145.3438,499.1094,149.3438,509.1094,153.3438,499.1094,149.3438,503.1094" style="stroke:#181818;stroke-width:1;"/><line style="stroke:#181818;stroke-width:1;" x1="499.583" x2="499.583" y1="435.1406" y2="455.1406"/><polygon fill="#181818" points="495.583,445.1406,499.583,455.1406,503.583,445.1406,499.583,449.1406" style="stroke:#181818;stroke-width:1;"/><line style="stroke:#181818;stroke-width:1;" x1="386.1699" x2="386.1699" y1="577.0781" y2="597.0781"/><polygon fill="#181818" points="382.1699,587.0781,386.1699,597.0781,390.1699,587.0781,386.1699,591.0781" style="stroke:#181818;stroke-width:1;"/><line style="stroke:#181818;stroke-width:1;" x1="386.1699" x2="386.1699" y1="631.0469" y2="651.0469"/><polygon fill="#181818" points="382.1699,641.0469,386.1699,651.0469,390.1699,641.0469,386.1699,645.0469" style="stroke:#181818;stroke-width:1;"/><line style="stroke:#181818;stroke-width:1;" x1="612.9961" x2="612.9961" y1="577.0781" y2="597.0781"/><polygon fill="#181818" points="608.9961,587.0781,612.9961,597.0781,616.9961,587.0781,612.9961,591.0781" style="stroke:#181818;stroke-width:1;"/><line style="stroke:#181818;stroke-width:1;" x1="423.0251" x2="386.1699" y1="521.1094" y2="521.1094"/><line style="stroke:#181818;stroke-width:1;" x1="386.1699" x2="386.1699" y1="521.1094" y2="543.1094"/><polygon fill="#181818" points="382.1699,533.1094,386.1699,543.1094,390.1699,533.1094,386.1699,537.1094" style="stroke:#181818;stroke-width:1;"/><line style="stroke:#181818;stroke-width:1;" x1="576.1409" x2="612.9961" y1="521.1094" y2="521.1094"/><line style="stroke:#181818;stroke-width:1;" x1="612.9961" x2="612.9961" y1="521.1094" y2="543.1094"/><polygon fill="#181818" points="608.9961,533.1094,612.9961,543.1094,616.9961,533.1094,612.9961,537.1094" style="stroke:#181818;stroke-width:1;"/><line style="stroke:#181818;stroke-width:1;" x1="386.1699" x2="386.1699" y1="685.0156" y2="703.0156"/><line style="stroke:#181818;stroke-width:1;" x1="386.1699" x2="487.583" y1="703.0156" y2="703.0156"/><polygon fill="#181818" points="477.583,699.0156,487.583,703.0156,477.583,707.0156,481.583,703.0156" style="stroke:#181818;stroke-width:1;"/><line style="stroke:#181818;stroke-width:1;" x1="612.9961" x2="612.9961" y1="631.0469" y2="703.0156"/><line style="stroke:#181818;stroke-width:1;" x1="612.9961" x2="511.583" y1="703.0156" y2="703.0156"/><polygon fill="#181818" points="521.583,699.0156,511.583,703.0156,521.583,707.0156,517.583,703.0156" style="stroke:#181818;stroke-width:1;"/><line style="stroke:#181818;stroke-width:1;" x1="499.583" x2="499.583" y1="489.1094" y2="509.1094"/><polygon fill="#181818" points="495.583,499.1094,499.583,509.1094,503.583,499.1094,499.583,503.1094" style="stroke:#181818;stroke-width:1;"/><line style="stroke:#181818;stroke-width:1;" x1="273.7271" x2="149.3438" y1="379.1719" y2="379.1719"/><line style="stroke:#181818;stroke-width:1;" x1="149.3438" x2="149.3438" y1="379.1719" y2="401.1719"/><polygon fill="#181818" points="145.3438,391.1719,149.3438,401.1719,153.3438,391.1719,149.3438,395.1719" style="stroke:#181818;stroke-width:1;"/><line style="stroke:#181818;stroke-width:1;" x1="375.1997" x2="499.583" y1="379.1719" y2="379.1719"/><line style="stroke:#181818;stroke-width:1;" x1="499.583" x2="499.583" y1="379.1719" y2="401.1719"/><polygon fill="#181818" points="495.583,391.1719,499.583,401.1719,503.583,391.1719,499.583,395.1719" style="stroke:#181818;stroke-width:1;"/><line style="stroke:#181818;stroke-width:1;" x1="149.3438" x2="149.3438" y1="543.0781" y2="733.0156"/><line style="stroke:#181818;stroke-width:1;" x1="149.3438" x2="312.4634" y1="733.0156" y2="733.0156"/><polygon fill="#181818" points="302.4634,729.0156,312.4634,733.0156,302.4634,737.0156,306.4634,733.0156" style="stroke:#181818;stroke-width:1;"/><line style="stroke:#181818;stroke-width:1;" x1="499.583" x2="499.583" y1="715.0156" y2="733.0156"/><line style="stroke:#181818;stroke-width:1;" x1="499.583" x2="336.4634" y1="733.0156" y2="733.0156"/><polygon fill="#181818" points="346.4634,729.0156,336.4634,733.0156,346.4634,737.0156,342.4634,733.0156" style="stroke:#181818;stroke-width:1;"/><line style="stroke:#181818;stroke-width:1;" x1="324.4634" x2="324.4634" y1="347.1719" y2="367.1719"/><polygon fill="#181818" points="320.4634,357.1719,324.4634,367.1719,328.4634,357.1719,324.4634,361.1719" style="stroke:#181818;stroke-width:1;"/><line style="stroke:#181818;stroke-width:1;" x1="324.4634" x2="324.4634" y1="745.0156" y2="765.0156"/><polygon fill="#181818" points="320.4634,755.0156,324.4634,765.0156,328.4634,755.0156,324.4634,759.0156" style="stroke:#181818;stroke-width:1;"/><!--SRC=[dP51JiCm44NtESKismKNQ1UeWWqRg6XHfUwcpZGPadWYnr5aNu0pL1o38r3kXUiq1IgGAZQMPS_C__-DPLiIt39c1YkO5TPrMZvU5SCLB9nMkH7D7jKpWY8D7b9fB7OAAqwIS3CsIIPFfbMvL4oQ2PhlNJnDU0kZfQlFtg_7OFCmS3HhhLHedV8Qnmd0PE4QInKqjS4kzGWvcagqH7_diqFvN3O63xfOs1PBxLH-T3gRtmrktz-wQK9bGp1wtEzEKdE3IZhD1NHkmsHmgD_lmktVQYvewPItWSoAZDjo4VdvJD8Zsz3IWxaXxVeFEX5POX7TpQB44NufHP2ZJ0wzmJ56EskikOb-Iib2oDyihrn6cenqiSvWBSQs0urxffw4T8pfi4A1S7xPHPN7IG_AKy7z71rOaNB-EQ2g1upHr27M6h5GLDiWkdy1Np5gTvxleeINPVmx9S2Fd8SGgV6jYZ6ZhyjL-fqUDzjOgJy1]--></g></svg>