<svg xmlns="http://www.w3.org/2000/svg" xmlns:xlink="http://www.w3.org/1999/xlink" contentStyleType="text/css" data-diagram-type="ACTIVITY" height="413px" preserveAspectRatio="none" style="width:1119px;height:413px;background:#FFFFFF;" version="1.1" viewBox="0 0 1119 413" width="1119px" zoomAndPan="magnify"><title>Diagram Aktywno&#347;ci Zarz&#261;dzania Pokojami</title><defs/><g><text fill="#000000" font-family="sans-serif" font-size="14" font-weight="bold" lengthAdjust="spacing" textLength="339.7324" x="388.1768" y="32.9951">Diagram Aktywno&#347;ci Zarz&#261;dzania Pokojami</text><ellipse cx="559.543" cy="57.2969" fill="#222222" rx="10" ry="10" style="stroke:#222222;stroke-width:1;"/><rect fill="#F1F1F1" height="33.9688" rx="12.5" ry="12.5" style="stroke:#181818;stroke-width:0.5;" width="246.2773" x="436.4043" y="87.2969"/><text fill="#000000" font-family="sans-serif" font-size="12" lengthAdjust="spacing" textLength="226.2773" x="446.4043" y="108.4355">Wy&#347;wietl menu zarz&#261;dzania pokojami</text><polygon fill="#F1F1F1" points="115.0237,141.2656,186.2068,141.2656,198.2068,153.2656,186.2068,165.2656,115.0237,165.2656,103.0237,153.2656,115.0237,141.2656" style="stroke:#181818;stroke-width:0.5;"/><text fill="#000000" font-family="sans-serif" font-size="11" lengthAdjust="spacing" textLength="17.4238" x="154.6152" y="175.4761">tak</text><text fill="#000000" font-family="sans-serif" font-size="11" lengthAdjust="spacing" textLength="71.1831" x="115.0237" y="157.0737">Dodaj pok&#243;j?</text><rect fill="#F1F1F1" height="89.8438" rx="12.5" ry="12.5" style="stroke:#181818;stroke-width:0.5;" width="279.2305" x="11" y="196.9761"/><text fill="#000000" font-family="sans-serif" font-size="12" lengthAdjust="spacing" textLength="259.2305" x="21" y="218.1147">System prosi o dane i zapisuje nowy pok&#243;j:</text><text fill="#000000" font-family="sans-serif" font-size="12" lengthAdjust="spacing" textLength="48.7324" x="21" y="232.0835">- Numer</text><text fill="#000000" font-family="sans-serif" font-size="12" lengthAdjust="spacing" textLength="30.1934" x="21" y="246.0522">- Typ</text><text fill="#000000" font-family="sans-serif" font-size="12" lengthAdjust="spacing" textLength="34.793" x="21" y="260.021">- Opis</text><text fill="#000000" font-family="sans-serif" font-size="12" lengthAdjust="spacing" textLength="38.8652" x="21" y="273.9897">- Cena</text><polygon fill="#F1F1F1" points="404.5251,141.2656,478.512,141.2656,490.512,153.2656,478.512,165.2656,404.5251,165.2656,392.5251,153.2656,404.5251,141.2656" style="stroke:#181818;stroke-width:0.5;"/><text fill="#000000" font-family="sans-serif" font-size="11" lengthAdjust="spacing" textLength="17.4238" x="445.5186" y="175.4761">tak</text><text fill="#000000" font-family="sans-serif" font-size="11" lengthAdjust="spacing" textLength="73.9868" x="404.5251" y="157.0737">Edytuj pok&#243;j?</text><rect fill="#F1F1F1" height="75.875" rx="12.5" ry="12.5" style="stroke:#181818;stroke-width:0.5;" width="282.5762" x="300.2305" y="196.9761"/><text fill="#000000" font-family="sans-serif" font-size="12" lengthAdjust="spacing" textLength="262.5762" x="310.2305" y="218.1147">System prosi o numer i wprowadza zmiany:</text><text fill="#000000" font-family="sans-serif" font-size="12" lengthAdjust="spacing" textLength="103.0605" x="310.2305" y="232.0835">- Wy&#347;wietla dane</text><text fill="#000000" font-family="sans-serif" font-size="12" lengthAdjust="spacing" textLength="115.125" x="310.2305" y="246.0522">- Akceptuje zmiany</text><text fill="#000000" font-family="sans-serif" font-size="12" lengthAdjust="spacing" textLength="108.6738" x="310.2305" y="260.021">- Zapisuje w bazie</text><polygon fill="#F1F1F1" points="690.4739,141.2656,757.4031,141.2656,769.4031,153.2656,757.4031,165.2656,690.4739,165.2656,678.4739,153.2656,690.4739,141.2656" style="stroke:#181818;stroke-width:0.5;"/><text fill="#000000" font-family="sans-serif" font-size="11" lengthAdjust="spacing" textLength="17.4238" x="727.9385" y="175.4761">tak</text><text fill="#000000" font-family="sans-serif" font-size="11" lengthAdjust="spacing" textLength="66.9292" x="690.4739" y="157.0737">Usu&#324; pok&#243;j?</text><text fill="#000000" font-family="sans-serif" font-size="11" lengthAdjust="spacing" textLength="66.2632" x="769.4031" y="150.6714">&#380;adna opcja</text><rect fill="#F1F1F1" height="61.9063" rx="12.5" ry="12.5" style="stroke:#181818;stroke-width:0.5;" width="242.2637" x="602.8066" y="196.9761"/><text fill="#000000" font-family="sans-serif" font-size="12" lengthAdjust="spacing" textLength="222.2637" x="612.8066" y="218.1147">System prosi o numer i usuwa pok&#243;j:</text><text fill="#000000" font-family="sans-serif" font-size="12" lengthAdjust="spacing" textLength="92.5137" x="612.8066" y="232.0835">- Potwierdzenie</text><text fill="#000000" font-family="sans-serif" font-size="12" lengthAdjust="spacing" textLength="108.7207" x="612.8066" y="246.0522">- Usuni&#281;cie z bazy</text><rect fill="#F1F1F1" height="33.9688" rx="12.5" ry="12.5" style="stroke:#181818;stroke-width:0.5;" width="253.0156" x="855.0703" y="221.5112"/><text fill="#000000" font-family="sans-serif" font-size="12" lengthAdjust="spacing" textLength="233.0156" x="865.0703" y="242.6499">System wy&#347;wietla komunikat o b&#322;&#281;dzie</text><rect fill="#F1F1F1" height="33.9688" rx="12.5" ry="12.5" style="stroke:#181818;stroke-width:0.5;" width="267.9277" x="425.5791" y="326.8198"/><text fill="#000000" font-family="sans-serif" font-size="12" lengthAdjust="spacing" textLength="247.9277" x="435.5791" y="347.9585">System wy&#347;wietla potwierdzenie operacji</text><ellipse cx="559.543" cy="391.7886" fill="#FFFFFF" fill-opacity="0.00000" rx="11" ry="11" style="stroke:#222222;stroke-width:1;"/><ellipse cx="559.543" cy="391.7886" fill="#222222" rx="6" ry="6" style="stroke:#222222;stroke-width:1;"/><line style="stroke:#181818;stroke-width:1;" x1="559.543" x2="559.543" y1="67.2969" y2="87.2969"/><polygon fill="#181818" points="555.543,77.2969,559.543,87.2969,563.543,77.2969,559.543,81.2969" style="stroke:#181818;stroke-width:1;"/><line style="stroke:#181818;stroke-width:1;" x1="150.6152" x2="150.6152" y1="165.2656" y2="196.9761"/><polygon fill="#181818" points="146.6152,186.9761,150.6152,196.9761,154.6152,186.9761,150.6152,190.9761" style="stroke:#181818;stroke-width:1;"/><line style="stroke:#181818;stroke-width:1;" x1="150.6152" x2="150.6152" y1="286.8198" y2="306.8198"/><polygon fill="#181818" points="146.6152,296.8198,150.6152,306.8198,154.6152,296.8198,150.6152,300.8198" style="stroke:#181818;stroke-width:1;"/><line style="stroke:#181818;stroke-width:1;" x1="441.5186" x2="441.5186" y1="165.2656" y2="196.9761"/><polygon fill="#181818" points="437.5186,186.9761,441.5186,196.9761,445.5186,186.9761,441.5186,190.9761" style="stroke:#181818;stroke-width:1;"/><line style="stroke:#181818;stroke-width:1;" x1="441.5186" x2="441.5186" y1="272.8511" y2="306.8198"/><polygon fill="#181818" points="437.5186,296.8198,441.5186,306.8198,445.5186,296.8198,441.5186,300.8198" style="stroke:#181818;stroke-width:1;"/><line style="stroke:#181818;stroke-width:1;" x1="723.9385" x2="723.9385" y1="165.2656" y2="196.9761"/><polygon fill="#181818" points="719.9385,186.9761,723.9385,196.9761,727.9385,186.9761,723.9385,190.9761" style="stroke:#181818;stroke-width:1;"/><line style="stroke:#181818;stroke-width:1;" x1="723.9385" x2="723.9385" y1="258.8823" y2="306.8198"/><polygon fill="#181818" points="719.9385,296.8198,723.9385,306.8198,727.9385,296.8198,723.9385,300.8198" style="stroke:#181818;stroke-width:1;"/><line style="stroke:#181818;stroke-width:1;" x1="198.2068" x2="392.5251" y1="153.2656" y2="153.2656"/><polygon fill="#181818" points="382.5251,149.2656,392.5251,153.2656,382.5251,157.2656,386.5251,153.2656" style="stroke:#181818;stroke-width:1;"/><line style="stroke:#181818;stroke-width:1;" x1="490.512" x2="678.4739" y1="153.2656" y2="153.2656"/><polygon fill="#181818" points="668.4739,149.2656,678.4739,153.2656,668.4739,157.2656,672.4739,153.2656" style="stroke:#181818;stroke-width:1;"/><line style="stroke:#181818;stroke-width:1;" x1="559.543" x2="559.543" y1="121.2656" y2="126.2656"/><line style="stroke:#181818;stroke-width:1;" x1="559.543" x2="150.6152" y1="126.2656" y2="126.2656"/><line style="stroke:#181818;stroke-width:1;" x1="150.6152" x2="150.6152" y1="126.2656" y2="141.2656"/><polygon fill="#181818" points="146.6152,131.2656,150.6152,141.2656,154.6152,131.2656,150.6152,135.2656" style="stroke:#181818;stroke-width:1;"/><line style="stroke:#181818;stroke-width:1;" x1="769.4031" x2="981.5781" y1="153.2656" y2="153.2656"/><line style="stroke:#181818;stroke-width:1;" x1="981.5781" x2="981.5781" y1="153.2656" y2="221.5112"/><polygon fill="#181818" points="977.5781,211.5112,981.5781,221.5112,985.5781,211.5112,981.5781,215.5112" style="stroke:#181818;stroke-width:1;"/><line style="stroke:#181818;stroke-width:1;" x1="981.5781" x2="981.5781" y1="255.48" y2="306.8198"/><polygon fill="#181818" points="977.5781,296.8198,981.5781,306.8198,985.5781,296.8198,981.5781,300.8198" style="stroke:#181818;stroke-width:1;"/><line style="stroke:#181818;stroke-width:1;" x1="150.6152" x2="981.5781" y1="306.8198" y2="306.8198"/><line style="stroke:#181818;stroke-width:1;" x1="559.543" x2="559.543" y1="306.8198" y2="326.8198"/><polygon fill="#181818" points="555.543,316.8198,559.543,326.8198,563.543,316.8198,559.543,320.8198" style="stroke:#181818;stroke-width:1;"/><line style="stroke:#181818;stroke-width:1;" x1="559.543" x2="559.543" y1="360.7886" y2="380.7886"/><polygon fill="#181818" points="555.543,370.7886,559.543,380.7886,563.543,370.7886,559.543,374.7886" style="stroke:#181818;stroke-width:1;"/><!--SRC=[bP4zJWCn48NxFSMKIS45aW95X1OY0K9ADrbFO7RZ7zbUMTuImI6Y78EMZkoziBCB94e3bKUZD-zzu_7iDmHpnYUB4cQrZq7fRbSoBD6s-pVHecA4XQvrXPAB0fn7wzCxUOpTBZ3v3KXI3RJ7UZFefqd8QnZDjS0gTp_Vgyin-6TICF9OZmi0cDn5vqc2iTenQ12e23WP6dPDHQ1qYCFi9EiluAQHPFloFfg-k4tglheYXTC2QECePr-Bw9i_XwjidT93QWHCwq0h6LKSad-MnWDctvpL9HcVKNjjtrr-ymTOOSjqXFJWckxrlqIDQmAU_iD2-mHZHKkA1vPahNY_BJd1vDmunCAe-q2X4BGfApm92hyxrLgcyHfzobrrB_kj6C2Lu7K- -lc8EMP8xcInh0w7TrwRBm00]--></g></svg>