<svg xmlns="http://www.w3.org/2000/svg" xmlns:xlink="http://www.w3.org/1999/xlink" contentStyleType="text/css" data-diagram-type="ACTIVITY" height="772px" preserveAspectRatio="none" style="width:264px;height:772px;background:#FFFFFF;" version="1.1" viewBox="0 0 264 772" width="264px" zoomAndPan="magnify"><defs/><g><ellipse cx="169.41" cy="16" fill="#222222" rx="10" ry="10" style="stroke:#222222;stroke-width:1;"/><rect fill="#F1F1F1" height="33.9688" rx="12.5" ry="12.5" style="stroke:#181818;stroke-width:0.5;" width="177.2891" x="80.76" y="67"/><text fill="#000000" font-family="sans-serif" font-size="12" lengthAdjust="spacing" textLength="157.2891" x="90.76" y="88.1387">Wy&#347;wietl dost&#281;pne pokoje</text><rect fill="#F1F1F1" height="33.9688" rx="12.5" ry="12.5" style="stroke:#181818;stroke-width:0.5;" width="102.8633" x="72.98" y="141.97"/><text fill="#000000" font-family="sans-serif" font-size="12" lengthAdjust="spacing" textLength="82.8633" x="82.98" y="163.1087">Wyb&#243;r pokoju</text><rect fill="#F1F1F1" height="33.9688" rx="12.5" ry="12.5" style="stroke:#181818;stroke-width:0.5;" width="115.5664" x="49.63" y="216.94"/><text fill="#000000" font-family="sans-serif" font-size="12" lengthAdjust="spacing" textLength="95.5664" x="59.63" y="238.0787">Podanie danych</text><rect fill="#F1F1F1" height="33.9688" rx="12.5" ry="12.5" style="stroke:#181818;stroke-width:0.5;" width="172.8184" x="7" y="291.91"/><text fill="#000000" font-family="sans-serif" font-size="12" lengthAdjust="spacing" textLength="152.8184" x="17" y="313.0487">Sprawdzenie dost&#281;pno&#347;ci</text><g id="elem_#11"><polygon fill="#F1F1F1" points="151.41,366.88,163.41,378.88,151.41,390.88,139.41,378.88,151.41,366.88" style="stroke:#181818;stroke-width:0.5;"/></g><rect fill="#F1F1F1" height="33.9688" rx="12.5" ry="12.5" style="stroke:#181818;stroke-width:0.5;" width="169.5488" x="66.63" y="444.88"/><text fill="#000000" font-family="sans-serif" font-size="12" lengthAdjust="spacing" textLength="149.5488" x="76.63" y="466.0187">Potwierdzenie rezerwacji</text><rect fill="#F1F1F1" height="33.9688" rx="12.5" ry="12.5" style="stroke:#181818;stroke-width:0.5;" width="151.2793" x="75.77" y="519.84"/><text fill="#000000" font-family="sans-serif" font-size="12" lengthAdjust="spacing" textLength="131.2793" x="85.77" y="540.9787">Akceptacja rezerwacji</text><rect fill="#F1F1F1" height="33.9688" rx="12.5" ry="12.5" style="stroke:#181818;stroke-width:0.5;" width="143.6328" x="79.59" y="594.81"/><text fill="#000000" font-family="sans-serif" font-size="12" lengthAdjust="spacing" textLength="123.6328" x="89.59" y="615.9487">Zapisanie rezerwacji</text><rect fill="#F1F1F1" height="33.9688" rx="12.5" ry="12.5" style="stroke:#181818;stroke-width:0.5;" width="188.0293" x="57.39" y="669.78"/><text fill="#000000" font-family="sans-serif" font-size="12" lengthAdjust="spacing" textLength="168.0293" x="67.39" y="690.9187">Wy&#347;wietlenie potwierdzenia</text><ellipse cx="151.41" cy="755.75" fill="transparent" rx="11" ry="11" style="stroke:#222222;stroke-width:1;"/><ellipse cx="151.41" cy="755.75" fill="#222222" rx="6" ry="6" style="stroke:#222222;stroke-width:1;"/><!--link start to Wy?wietl dost?pne pokoje--><g id="link_start_Wy&#347;wietl dost&#281;pne pokoje"><path d="M169.41,26.45 C169.41,36.93 169.41,48.02 169.41,60.66 " fill="transparent" id="start-to-Wy&#347;wietl dost&#281;pne pokoje" style="stroke:#181818;stroke-width:1;"/><polygon fill="#181818" points="169.41,66.66,173.41,57.66,169.41,61.66,165.41,57.66,169.41,66.66" style="stroke:#181818;stroke-width:1;"/></g><!--link Wy?wietl dost?pne pokoje to Wyb?r pokoju--><g id="link_Wy&#347;wietl dost&#281;pne pokoje_Wyb&#243;r pokoju"><path d="M159.42,101.18 C152.02,113.19 145.1103,124.3835 137.6703,136.4435 " fill="transparent" id="Wy&#347;wietl dost&#281;pne pokoje-to-Wyb&#243;r pokoju" style="stroke:#181818;stroke-width:1;"/><polygon fill="#181818" points="134.52,141.55,142.6497,135.9905,137.1452,137.2946,135.8411,131.7901,134.52,141.55" style="stroke:#181818;stroke-width:1;"/></g><!--link Wyb?r pokoju to Podanie danych--><g id="link_Wyb&#243;r pokoju_Podanie danych"><path d="M120.64,176.15 C117.84,188.16 115.4015,198.6165 112.5915,210.6765 " fill="transparent" id="Wyb&#243;r pokoju-to-Podanie danych" style="stroke:#181818;stroke-width:1;"/><polygon fill="#181818" points="111.23,216.52,117.168,208.6625,112.3646,211.6504,109.3767,206.8471,111.23,216.52" style="stroke:#181818;stroke-width:1;"/></g><!--link Podanie danych to Sprawdzenie dost?pno?ci--><g id="link_Podanie danych_Sprawdzenie dost&#281;pno&#347;ci"><path d="M104.3,251.12 C102,263.12 99.9987,273.5371 97.6887,285.5971 " fill="transparent" id="Podanie danych-to-Sprawdzenie dost&#281;pno&#347;ci" style="stroke:#181818;stroke-width:1;"/><polygon fill="#181818" points="96.56,291.49,102.1817,283.4032,97.5006,286.5793,94.3245,281.8982,96.56,291.49" style="stroke:#181818;stroke-width:1;"/></g><!--link Sprawdzenie dost?pno?ci to #11--><g id="link_Sprawdzenie dost&#281;pno&#347;ci_#11"><path d="M107.45,326.35 C119.92,340.97 133.5879,356.9737 142.2479,367.1337 " fill="transparent" id="Sprawdzenie dost&#281;pno&#347;ci-to-#11" style="stroke:#181818;stroke-width:1;"/><polygon fill="#181818" points="146.14,371.7,143.346,362.2558,142.8965,367.8947,137.2576,367.4453,146.14,371.7" style="stroke:#181818;stroke-width:1;"/><text fill="#000000" font-family="sans-serif" font-size="11" lengthAdjust="spacing" textLength="58.314" x="73.2156" y="364.3202">Dost&#281;pny?</text></g><!--link #11 to Potwierdzenie rezerwacji--><g id="link_#11_Potwierdzenie rezerwacji"><path d="M151.41,391.48 C151.41,405.39 151.41,422.78 151.41,438.52 " fill="transparent" id="#11-to-Potwierdzenie rezerwacji" style="stroke:#181818;stroke-width:1;"/><polygon fill="#181818" points="151.41,444.52,155.41,435.52,151.41,439.52,147.41,435.52,151.41,444.52" style="stroke:#181818;stroke-width:1;"/><text fill="#000000" font-family="sans-serif" font-size="11" lengthAdjust="spacing" textLength="19.8301" x="152.41" y="422.0904">Tak</text></g><!--link Potwierdzenie rezerwacji to Akceptacja rezerwacji--><g id="link_Potwierdzenie rezerwacji_Akceptacja rezerwacji"><path d="M151.41,479.05 C151.41,491.06 151.41,501.37 151.41,513.43 " fill="transparent" id="Potwierdzenie rezerwacji-to-Akceptacja rezerwacji" style="stroke:#181818;stroke-width:1;"/><polygon fill="#181818" points="151.41,519.43,155.41,510.43,151.41,514.43,147.41,510.43,151.41,519.43" style="stroke:#181818;stroke-width:1;"/></g><!--link Akceptacja rezerwacji to Zapisanie rezerwacji--><g id="link_Akceptacja rezerwacji_Zapisanie rezerwacji"><path d="M151.41,554.02 C151.41,566.03 151.41,576.34 151.41,588.4 " fill="transparent" id="Akceptacja rezerwacji-to-Zapisanie rezerwacji" style="stroke:#181818;stroke-width:1;"/><polygon fill="#181818" points="151.41,594.4,155.41,585.4,151.41,589.4,147.41,585.4,151.41,594.4" style="stroke:#181818;stroke-width:1;"/></g><!--link Zapisanie rezerwacji to Wy?wietlenie potwierdzenia--><g id="link_Zapisanie rezerwacji_Wy&#347;wietlenie potwierdzenia"><path d="M151.41,628.99 C151.41,641 151.41,651.31 151.41,663.36 " fill="transparent" id="Zapisanie rezerwacji-to-Wy&#347;wietlenie potwierdzenia" style="stroke:#181818;stroke-width:1;"/><polygon fill="#181818" points="151.41,669.36,155.41,660.36,151.41,664.36,147.41,660.36,151.41,669.36" style="stroke:#181818;stroke-width:1;"/></g><!--link Wy?wietlenie potwierdzenia to end--><g id="link_Wy&#347;wietlenie potwierdzenia_end"><path d="M151.41,703.98 C151.41,716.53 151.41,727.52 151.41,738.32 " fill="transparent" id="Wy&#347;wietlenie potwierdzenia-to-end" style="stroke:#181818;stroke-width:1;"/><polygon fill="#181818" points="151.41,744.32,155.41,735.32,151.41,739.32,147.41,735.32,151.41,744.32" style="stroke:#181818;stroke-width:1;"/></g><!--link #11 to Wy?wietl dost?pne pokoje--><g id="link_#11_Wy&#347;wietl dost&#281;pne pokoje"><path d="M158.64,374.03 C174.4,365.06 210.41,341.15 210.41,309.89 C210.41,157.95 210.41,157.95 210.41,157.95 C210.41,136.3 200.3631,119.7477 188.7531,105.8277 " fill="transparent" id="#11-to-Wy&#347;wietl dost&#281;pne pokoje" style="stroke:#181818;stroke-width:1;"/><polygon fill="#181818" points="184.91,101.22,187.6028,110.6936,188.1125,105.0597,193.7464,105.5695,184.91,101.22" style="stroke:#181818;stroke-width:1;"/><text fill="#000000" font-family="sans-serif" font-size="11" lengthAdjust="spacing" textLength="18.0522" x="211.41" y="238.1304">Nie</text></g><!--SRC=[XP1D2i8m48NtFSMGLLle5HJ1jGWAWj95JAOqRKb26YdjJQJ7y0ZQUvd-ua9nCujltdlpuuS1HD4AoAdksagWBO2hqhxkMY9ebQiCYJShhi-76U5jXdl5gHG8hjOidUb16rhn1eVE5AUwbWad40cGxSJgDG6RelG0UkFbIFEupxHk4pFv3JPeAigotWnZ_YPdgArZz6lxJBKewI_pSkaGhp-6qKNaXu47M9GuRxOJ6Fzv4aekaZS0]--></g></svg>
