<svg xmlns="http://www.w3.org/2000/svg" xmlns:xlink="http://www.w3.org/1999/xlink" contentStyleType="text/css" data-diagram-type="ACTIVITY" height="552px" preserveAspectRatio="none" style="width:690px;height:552px;background:#FFFFFF;" version="1.1" viewBox="0 0 690 552" width="690px" zoomAndPan="magnify"><defs/><g><ellipse cx="130.14" cy="23.98" fill="#222222" rx="10" ry="10" style="stroke:#222222;stroke-width:1;"/><rect fill="#F1F1F1" height="33.9688" rx="12.5" ry="12.5" style="stroke:#181818;stroke-width:0.5;" width="246.2773" x="7" y="80.97"/><text fill="#000000" font-family="sans-serif" font-size="12" lengthAdjust="spacing" textLength="226.2773" x="17" y="102.1087">Wyświetl menu zarządzania pokojami</text><rect fill="#F1F1F1" height="33.9688" rx="12.5" ry="12.5" style="stroke:#181818;stroke-width:0.5;" width="90.8984" x="84.69" y="154.94"/><text fill="#000000" font-family="sans-serif" font-size="12" lengthAdjust="spacing" textLength="70.8984" x="94.69" y="176.0787">Wybór opcji</text><g id="elem_#7"><polygon fill="#F1F1F1" points="130.14,233.89,142.14,245.89,130.14,257.89,118.14,245.89,130.14,233.89" style="stroke:#181818;stroke-width:0.5;"/></g><rect fill="#F1F1F1" height="33.9688" rx="12.5" ry="12.5" style="stroke:#181818;stroke-width:0.5;" width="210.4883" x="24.89" y="302.87"/><text fill="#000000" font-family="sans-serif" font-size="12" lengthAdjust="spacing" textLength="190.4883" x="34.89" y="324.0087">Podanie danych nowego pokoju</text><rect fill="#F1F1F1" height="33.9688" rx="12.5" ry="12.5" style="stroke:#181818;stroke-width:0.5;" width="173.375" x="60.45" y="376.84"/><text fill="#000000" font-family="sans-serif" font-size="12" lengthAdjust="spacing" textLength="153.375" x="70.45" y="397.9787">Zapisanie nowego pokoju</text><rect fill="#F1F1F1" height="33.9688" rx="12.5" ry="12.5" style="stroke:#181818;stroke-width:0.5;" width="104.3691" x="277.95" y="450.81"/><text fill="#000000" font-family="sans-serif" font-size="12" lengthAdjust="spacing" textLength="84.3691" x="287.95" y="471.9487">Potwierdzenie</text><ellipse cx="330.14" cy="535.78" fill="transparent" rx="11" ry="11" style="stroke:#222222;stroke-width:1;"/><ellipse cx="330.14" cy="535.78" fill="#222222" rx="6" ry="6" style="stroke:#222222;stroke-width:1;"/><rect fill="#F1F1F1" height="33.9688" rx="12.5" ry="12.5" style="stroke:#181818;stroke-width:0.5;" width="44.3516" x="414.96" y="7"/><text fill="#000000" font-family="sans-serif" font-size="12" lengthAdjust="spacing" textLength="24.3516" x="424.96" y="28.1387">else</text><g id="elem_#19"><polygon fill="#F1F1F1" points="364.14,85.95,376.14,97.95,364.14,109.95,352.14,97.95,364.14,85.95" style="stroke:#181818;stroke-width:0.5;"/></g><rect fill="#F1F1F1" height="33.9688" rx="12.5" ry="12.5" style="stroke:#181818;stroke-width:0.5;" width="220.4668" x="201.91" y="154.94"/><text fill="#000000" font-family="sans-serif" font-size="12" lengthAdjust="spacing" textLength="200.4668" x="211.91" y="176.0787">Podanie numeru pokoju do edycji</text><rect fill="#F1F1F1" height="33.9688" rx="12.5" ry="12.5" style="stroke:#181818;stroke-width:0.5;" width="191.1934" x="222.54" y="228.91"/><text fill="#000000" font-family="sans-serif" font-size="12" lengthAdjust="spacing" textLength="171.1934" x="232.54" y="250.0487">Wyświetlenie danych pokoju</text><rect fill="#F1F1F1" height="33.9688" rx="12.5" ry="12.5" style="stroke:#181818;stroke-width:0.5;" width="148.6426" x="255.82" y="302.87"/><text fill="#000000" font-family="sans-serif" font-size="12" lengthAdjust="spacing" textLength="128.6426" x="265.82" y="324.0087">Wprowadzenie zmian</text><rect fill="#F1F1F1" height="33.9688" rx="12.5" ry="12.5" style="stroke:#181818;stroke-width:0.5;" width="118.5488" x="270.86" y="376.84"/><text fill="#000000" font-family="sans-serif" font-size="12" lengthAdjust="spacing" textLength="98.5488" x="280.86" y="397.9787">Zapisanie zmian</text><g id="elem_#32"><polygon fill="#F1F1F1" points="511.14,85.95,523.14,97.95,511.14,109.95,499.14,97.95,511.14,85.95" style="stroke:#181818;stroke-width:0.5;"/></g><rect fill="#F1F1F1" height="33.9688" rx="12.5" ry="12.5" style="stroke:#181818;stroke-width:0.5;" width="242.1699" x="442.05" y="154.94"/><text fill="#000000" font-family="sans-serif" font-size="12" lengthAdjust="spacing" textLength="222.1699" x="452.05" y="176.0787">Podanie numeru pokoju do usunięcia</text><rect fill="#F1F1F1" height="33.9688" rx="12.5" ry="12.5" style="stroke:#181818;stroke-width:0.5;" width="122.2813" x="466" y="302.87"/><text fill="#000000" font-family="sans-serif" font-size="12" lengthAdjust="spacing" textLength="102.2813" x="476" y="324.0087">Usunięcie pokoju</text><!--link start to Wy?wietl menu zarz?dzania pokojami--><g id="link_start_Wyświetl menu zarządzania pokojami"><path d="M130.14,34.39 C130.14,46.13 130.14,60.38 130.14,74.66 " fill="transparent" id="start-to-Wyświetl menu zarządzania pokojami" style="stroke:#181818;stroke-width:1;"/><polygon fill="#181818" points="130.14,80.66,134.14,71.66,130.14,75.66,126.14,71.66,130.14,80.66" style="stroke:#181818;stroke-width:1;"/></g><!--link Wy?wietl menu zarz?dzania pokojami to Wyb?r opcji--><g id="link_Wyświetl menu zarządzania pokojami_Wybór opcji"><path d="M130.14,115.28 C130.14,127.06 130.14,136.89 130.14,148.65 " fill="transparent" id="Wyświetl menu zarządzania pokojami-to-Wybór opcji" style="stroke:#181818;stroke-width:1;"/><polygon fill="#181818" points="130.14,154.65,134.14,145.65,130.14,149.65,126.14,145.65,130.14,154.65" style="stroke:#181818;stroke-width:1;"/></g><!--link Wyb?r opcji to #7--><g id="link_Wybór opcji_#7"><path d="M130.14,189.25 C130.14,202.69 130.14,215.4 130.14,227.33 " fill="transparent" id="Wybór opcji-to-#7" style="stroke:#181818;stroke-width:1;"/><polygon fill="#181818" points="130.14,233.33,134.14,224.33,130.14,228.33,126.14,224.33,130.14,233.33" style="stroke:#181818;stroke-width:1;"/><text fill="#000000" font-family="sans-serif" font-size="11" lengthAdjust="spacing" textLength="101.793" x="8.4723" y="224.0504">Dodawanie pokoju</text></g><!--link #7 to Podanie danych nowego pokoju--><g id="link_#7_Podanie danych nowego pokoju"><path d="M130.14,258.45 C130.14,270.37 130.14,283.06 130.14,296.5 " fill="transparent" id="#7-to-Podanie danych nowego pokoju" style="stroke:#181818;stroke-width:1;"/><polygon fill="#181818" points="130.14,302.5,134.14,293.5,130.14,297.5,126.14,293.5,130.14,302.5" style="stroke:#181818;stroke-width:1;"/></g><!--link Podanie danych nowego pokoju to Zapisanie nowego pokoju--><g id="link_Podanie danych nowego pokoju_Zapisanie nowego pokoju"><path d="M134,337.19 C136.78,348.97 139.1397,358.9609 141.9197,370.7209 " fill="transparent" id="Podanie danych nowego pokoju-to-Zapisanie nowego pokoju" style="stroke:#181818;stroke-width:1;"/><polygon fill="#181818" points="143.3,376.56,145.1222,366.8812,142.1497,371.6941,137.3368,368.7216,143.3,376.56" style="stroke:#181818;stroke-width:1;"/></g><!--link Zapisanie nowego pokoju to Potwierdzenie--><g id="link_Zapisanie nowego pokoju_Potwierdzenie"><path d="M188.66,411.16 C218.51,422.89 252.9962,436.4542 282.8762,448.2042 " fill="transparent" id="Zapisanie nowego pokoju-to-Potwierdzenie" style="stroke:#181818;stroke-width:1;"/><polygon fill="#181818" points="288.46,450.4,281.5482,443.3838,283.8068,448.5702,278.6205,450.8289,288.46,450.4" style="stroke:#181818;stroke-width:1;"/></g><!--link Potwierdzenie to end--><g id="link_Potwierdzenie_end"><path d="M316.99,485.11 C313.54,499.3 311.6965,514.0231 317.8865,523.7831 " fill="transparent" id="Potwierdzenie-to-end" style="stroke:#181818;stroke-width:1;"/><polygon fill="#181818" points="321.1,528.85,319.6576,519.1073,318.4221,524.6276,312.9018,523.392,321.1,528.85" style="stroke:#181818;stroke-width:1;"/></g><!--link Potwierdzenie to end--><g id="link_Potwierdzenie_end"><path d="M330.14,485.11 C330.14,497.47 330.14,508.08 330.14,518.61 " fill="transparent" id="Potwierdzenie-to-end-1" style="stroke:#181818;stroke-width:1;"/><polygon fill="#181818" points="330.14,524.61,334.14,515.61,330.14,519.61,326.14,515.61,330.14,524.61" style="stroke:#181818;stroke-width:1;"/></g><!--link Potwierdzenie to end--><g id="link_Potwierdzenie_end"><path d="M343.28,485.11 C346.74,499.3 348.5835,514.0231 342.3935,523.7831 " fill="transparent" id="Potwierdzenie-to-end-2" style="stroke:#181818;stroke-width:1;"/><polygon fill="#181818" points="339.18,528.85,347.3782,523.392,341.8579,524.6276,340.6224,519.1073,339.18,528.85" style="stroke:#181818;stroke-width:1;"/></g><!--link else to #19--><g id="link_else_#19"><path d="M420.57,41.31 C404.42,57.24 385.0222,76.3571 374.2022,87.0271 " fill="transparent" id="else-to-#19" style="stroke:#181818;stroke-width:1;"/><polygon fill="#181818" points="369.93,91.24,379.1468,87.7687,373.4901,87.7292,373.5296,82.0725,369.93,91.24" style="stroke:#181818;stroke-width:1;"/><text fill="#000000" font-family="sans-serif" font-size="11" lengthAdjust="spacing" textLength="76.624" x="383.9875" y="85.5274">Edycja pokoju</text></g><!--link #19 to Podanie numeru pokoju do edycji--><g id="link_#19_Podanie numeru pokoju do edycji"><path d="M359.34,105.59 C351.34,116.66 338.5829,134.3159 327.4029,149.7959 " fill="transparent" id="#19-to-Podanie numeru pokoju do edycji" style="stroke:#181818;stroke-width:1;"/><polygon fill="#181818" points="323.89,154.66,332.4021,149.7058,326.8175,150.6066,325.9167,145.0219,323.89,154.66" style="stroke:#181818;stroke-width:1;"/></g><!--link Podanie numeru pokoju do edycji to Wy?wietlenie danych pokoju--><g id="link_Podanie numeru pokoju do edycji_Wyświetlenie danych pokoju"><path d="M313.5,189.25 C314.48,201.03 315.3017,210.8807 316.2817,222.6407 " fill="transparent" id="Podanie numeru pokoju do edycji-to-Wyświetlenie danych pokoju" style="stroke:#181818;stroke-width:1;"/><polygon fill="#181818" points="316.78,228.62,320.0188,219.3189,316.3648,223.6373,312.0464,219.9833,316.78,228.62" style="stroke:#181818;stroke-width:1;"/></g><!--link Wy?wietlenie danych pokoju to Wprowadzenie zmian--><g id="link_Wyświetlenie danych pokoju_Wprowadzenie zmian"><path d="M320.86,263.22 C322.83,275 324.4836,284.9116 326.4436,296.6716 " fill="transparent" id="Wyświetlenie danych pokoju-to-Wprowadzenie zmian" style="stroke:#181818;stroke-width:1;"/><polygon fill="#181818" points="327.43,302.59,329.896,293.0549,326.608,297.658,322.0048,294.3701,327.43,302.59" style="stroke:#181818;stroke-width:1;"/></g><!--link Wprowadzenie zmian to Zapisanie zmian--><g id="link_Wprowadzenie zmian_Zapisanie zmian"><path d="M330.14,337.19 C330.14,348.97 330.14,358.8 330.14,370.56 " fill="transparent" id="Wprowadzenie zmian-to-Zapisanie zmian" style="stroke:#181818;stroke-width:1;"/><polygon fill="#181818" points="330.14,376.56,334.14,367.56,330.14,371.56,326.14,367.56,330.14,376.56" style="stroke:#181818;stroke-width:1;"/></g><!--link Zapisanie zmian to Potwierdzenie--><g id="link_Zapisanie zmian_Potwierdzenie"><path d="M330.14,411.16 C330.14,422.94 330.14,432.77 330.14,444.53 " fill="transparent" id="Zapisanie zmian-to-Potwierdzenie" style="stroke:#181818;stroke-width:1;"/><polygon fill="#181818" points="330.14,450.53,334.14,441.53,330.14,445.53,326.14,441.53,330.14,450.53" style="stroke:#181818;stroke-width:1;"/></g><!--link else to #32--><g id="link_else_#32"><path d="M453.93,41.31 C470.31,57.24 489.999,76.3866 500.969,87.0566 " fill="transparent" id="else-to-#32" style="stroke:#181818;stroke-width:1;"/><polygon fill="#181818" points="505.27,91.24,501.6074,82.0975,501.6858,87.7538,496.0295,87.8322,505.27,91.24" style="stroke:#181818;stroke-width:1;"/><text fill="#000000" font-family="sans-serif" font-size="11" lengthAdjust="spacing" textLength="93.6235" x="397.6286" y="101.3639">Usuwanie pokoju</text></g><!--link #32 to Podanie numeru pokoju do usuni?cia--><g id="link_#32_Podanie numeru pokoju do usunięcia"><path d="M515.94,105.59 C523.93,116.66 536.685,134.3174 547.875,149.7974 " fill="transparent" id="#32-to-Podanie numeru pokoju do usunięcia" style="stroke:#181818;stroke-width:1;"/><polygon fill="#181818" points="551.39,154.66,549.3592,145.0228,548.4608,150.6078,542.8758,149.7095,551.39,154.66" style="stroke:#181818;stroke-width:1;"/></g><!--link Podanie numeru pokoju do usuni?cia to Usuni?cie pokoju--><g id="link_Podanie numeru pokoju do usunięcia_Usunięcie pokoju"><path d="M559.08,189.38 C552.13,217.56 539.4666,268.8745 532.5666,296.8545 " fill="transparent" id="Podanie numeru pokoju do usunięcia-to-Usunięcie pokoju" style="stroke:#181818;stroke-width:1;"/><polygon fill="#181818" points="531.13,302.68,537.1685,294.8995,532.3272,297.8254,529.4012,292.9841,531.13,302.68" style="stroke:#181818;stroke-width:1;"/></g><!--link Usuni?cie pokoju to Potwierdzenie--><g id="link_Usunięcie pokoju_Potwierdzenie"><path d="M504.92,337.32 C466.99,365.42 394.9713,418.7686 357.0913,446.8286 " fill="transparent" id="Usunięcie pokoju-to-Potwierdzenie" style="stroke:#181818;stroke-width:1;"/><polygon fill="#181818" points="352.27,450.4,361.8829,448.2571,356.2877,447.4238,357.121,441.8287,352.27,450.4" style="stroke:#181818;stroke-width:1;"/></g><!--SRC=[bP0x3i9034JxdC9A1KXSWGfw6eH4Px867CWwscGLPNiEWJW6Hm3knOQGWFW96XSpp_9uEhqkzFi32AVbULymvHj8I5jmQDnfgnngHaXbBJ4c70ODEpyU34WQnPN62mY7eh3mCDMm3I5VaGu0wesnjolJpp9QWPQ2bjAWBJN3bBChzm4OI-up6kN8GwtSwNK3e4r6LP2HAgCOlwVGDY5ZRmme0QgM-7wdBOCUGZ-7cQP62gopW4iOzRjFdemVFfXazeScNtwmcTLysaMCzskJHgE_gjIA5nS0]--></g></svg>
