<svg xmlns="http://www.w3.org/2000/svg" xmlns:xlink="http://www.w3.org/1999/xlink" contentStyleType="text/css" data-diagram-type="ACTIVITY" height="935px" preserveAspectRatio="none" style="width:866px;height:935px;background:#FFFFFF;" version="1.1" viewBox="0 0 866 935" width="866px" zoomAndPan="magnify"><defs/><g><ellipse cx="362.81" cy="16" fill="#222222" rx="10" ry="10" style="stroke:#222222;stroke-width:1;"/><rect fill="#F1F1F1" height="33.9688" rx="12.5" ry="12.5" style="stroke:#181818;stroke-width:0.5;" width="223.6719" x="250.98" y="67"/><text fill="#000000" font-family="sans-serif" font-size="12" lengthAdjust="spacing" textLength="203.6719" x="260.98" y="88.1387">Użytkownik loguje się do systemu</text><rect fill="#F1F1F1" height="33.9688" rx="12.5" ry="12.5" style="stroke:#181818;stroke-width:0.5;" width="300.5293" x="212.55" y="141.97"/><text fill="#000000" font-family="sans-serif" font-size="12" lengthAdjust="spacing" textLength="280.5293" x="222.55" y="163.1087">System wyświetla listę rezerwacji użytkownika</text><rect fill="#F1F1F1" height="33.9688" rx="12.5" ry="12.5" style="stroke:#181818;stroke-width:0.5;" width="275.4336" x="225.09" y="216.94"/><text fill="#000000" font-family="sans-serif" font-size="12" lengthAdjust="spacing" textLength="255.4336" x="235.09" y="238.0787">Użytkownik wybiera rezerwację do zmiany</text><rect fill="#F1F1F1" height="33.9688" rx="12.5" ry="12.5" style="stroke:#181818;stroke-width:0.5;" width="313.9063" x="205.86" y="291.91"/><text fill="#000000" font-family="sans-serif" font-size="12" lengthAdjust="spacing" textLength="293.9063" x="215.86" y="313.0487">System wyświetla szczegóły wybranej rezerwacji</text><rect fill="#F1F1F1" height="33.9688" rx="12.5" ry="12.5" style="stroke:#181818;stroke-width:0.5;" width="265.5547" x="230.03" y="366.88"/><text fill="#000000" font-family="sans-serif" font-size="12" lengthAdjust="spacing" textLength="245.5547" x="240.03" y="388.0187">Użytkownik wybiera nowe daty lub pokój</text><rect fill="#F1F1F1" height="33.9688" rx="12.5" ry="12.5" style="stroke:#181818;stroke-width:0.5;" width="370.8652" x="177.38" y="441.85"/><text fill="#000000" font-family="sans-serif" font-size="12" lengthAdjust="spacing" textLength="350.8652" x="187.38" y="462.9887">System sprawdza dostępność pokoju w nowych terminach</text><g id="elem_#15"><polygon fill="#F1F1F1" points="362.81,516.82,374.81,528.82,362.81,540.82,350.81,528.82,362.81,516.82" style="stroke:#181818;stroke-width:0.5;"/></g><rect fill="#F1F1F1" height="33.9688" rx="12.5" ry="12.5" style="stroke:#181818;stroke-width:0.5;" width="334.8008" x="21.41" y="594.82"/><text fill="#000000" font-family="sans-serif" font-size="12" lengthAdjust="spacing" textLength="314.8008" x="31.41" y="615.9587">System wyświetla podsumowanie zmiany rezerwacji</text><rect fill="#F1F1F1" height="33.9688" rx="12.5" ry="12.5" style="stroke:#181818;stroke-width:0.5;" width="264.2832" x="38.67" y="669.78"/><text fill="#000000" font-family="sans-serif" font-size="12" lengthAdjust="spacing" textLength="244.2832" x="48.67" y="690.9187">Użytkownik akceptuje zmianę rezerwacji</text><rect fill="#F1F1F1" height="33.9688" rx="12.5" ry="12.5" style="stroke:#181818;stroke-width:0.5;" width="327.5234" x="7.05" y="744.75"/><text fill="#000000" font-family="sans-serif" font-size="12" lengthAdjust="spacing" textLength="307.5234" x="17.05" y="765.8887">System zapisuje zmianę rezerwacji w bazie danych</text><rect fill="#F1F1F1" height="33.9688" rx="12.5" ry="12.5" style="stroke:#181818;stroke-width:0.5;" width="327.623" x="7" y="832.72"/><text fill="#000000" font-family="sans-serif" font-size="12" lengthAdjust="spacing" textLength="307.623" x="17" y="853.8587">System generuje i wyświetla potwierdzenie zmiany</text><ellipse cx="460.81" cy="918.69" fill="transparent" rx="11" ry="11" style="stroke:#222222;stroke-width:1;"/><ellipse cx="460.81" cy="918.69" fill="#222222" rx="6" ry="6" style="stroke:#222222;stroke-width:1;"/><rect fill="#F1F1F1" height="33.9688" rx="12.5" ry="12.5" style="stroke:#181818;stroke-width:0.5;" width="320.293" x="379.67" y="594.82"/><text fill="#000000" font-family="sans-serif" font-size="12" lengthAdjust="spacing" textLength="300.293" x="389.67" y="615.9587">System wyświetla komunikat o braku dostępności</text><rect fill="#F1F1F1" height="33.9688" rx="12.5" ry="12.5" style="stroke:#181818;stroke-width:0.5;" width="439.0156" x="323.3" y="669.78"/><text fill="#000000" font-family="sans-serif" font-size="12" lengthAdjust="spacing" textLength="419.0156" x="333.3" y="690.9187">Użytkownik ma możliwość ponownego wyboru nowych dat lub pokoju</text><g id="elem_#32"><polygon fill="#F1F1F1" points="542.81,749.74,554.81,761.74,542.81,773.74,530.81,761.74,542.81,749.74" style="stroke:#181818;stroke-width:0.5;"/></g><rect fill="#F1F1F1" height="33.9688" rx="12.5" ry="12.5" style="stroke:#181818;stroke-width:0.5;" width="268.1211" x="354.75" y="832.72"/><text fill="#000000" font-family="sans-serif" font-size="12" lengthAdjust="spacing" textLength="248.1211" x="364.75" y="853.8587">Powrót do wyboru nowych dat lub pokoju</text><rect fill="#F1F1F1" height="33.9688" rx="12.5" ry="12.5" style="stroke:#181818;stroke-width:0.5;" width="217.1094" x="643.26" y="832.72"/><text fill="#000000" font-family="sans-serif" font-size="12" lengthAdjust="spacing" textLength="197.1094" x="653.26" y="853.8587">System wraca do listy rezerwacji</text><!--link start to U?ytkownik loguje si? do systemu--><g id="link_start_Użytkownik loguje się do systemu"><path d="M362.81,26.46 C362.81,36.93 362.81,48.02 362.81,60.67 " fill="transparent" id="start-to-Użytkownik loguje się do systemu" style="stroke:#181818;stroke-width:1;"/><polygon fill="#181818" points="362.81,66.67,366.81,57.67,362.81,61.67,358.81,57.67,362.81,66.67" style="stroke:#181818;stroke-width:1;"/></g><!--link U?ytkownik loguje si? do systemu to System wy?wietla list? rezerwacji u?ytkownika--><g id="link_Użytkownik loguje się do systemu_System wyświetla listę rezerwacji użytkownika"><path d="M362.81,101.18 C362.81,113.19 362.81,123.5 362.81,135.55 " fill="transparent" id="Użytkownik loguje się do systemu-to-System wyświetla listę rezerwacji użytkownika" style="stroke:#181818;stroke-width:1;"/><polygon fill="#181818" points="362.81,141.55,366.81,132.55,362.81,136.55,358.81,132.55,362.81,141.55" style="stroke:#181818;stroke-width:1;"/></g><!--link System wy?wietla list? rezerwacji u?ytkownika to U?ytkownik wybiera rezerwacj? do zmiany--><g id="link_System wyświetla listę rezerwacji użytkownika_Użytkownik wybiera rezerwację do zmiany"><path d="M362.81,176.15 C362.81,188.16 362.81,198.47 362.81,210.52 " fill="transparent" id="System wyświetla listę rezerwacji użytkownika-to-Użytkownik wybiera rezerwację do zmiany" style="stroke:#181818;stroke-width:1;"/><polygon fill="#181818" points="362.81,216.52,366.81,207.52,362.81,211.52,358.81,207.52,362.81,216.52" style="stroke:#181818;stroke-width:1;"/></g><!--link U?ytkownik wybiera rezerwacj? do zmiany to System wy?wietla szczeg??y wybranej rezerwacji--><g id="link_Użytkownik wybiera rezerwację do zmiany_System wyświetla szczegóły wybranej rezerwacji"><path d="M362.81,251.12 C362.81,263.13 362.81,273.43 362.81,285.49 " fill="transparent" id="Użytkownik wybiera rezerwację do zmiany-to-System wyświetla szczegóły wybranej rezerwacji" style="stroke:#181818;stroke-width:1;"/><polygon fill="#181818" points="362.81,291.49,366.81,282.49,362.81,286.49,358.81,282.49,362.81,291.49" style="stroke:#181818;stroke-width:1;"/></g><!--link System wy?wietla szczeg??y wybranej rezerwacji to U?ytkownik wybiera nowe daty lub pok?j--><g id="link_System wyświetla szczegóły wybranej rezerwacji_Użytkownik wybiera nowe daty lub pokój"><path d="M362.81,326.09 C362.81,338.1 362.81,348.4 362.81,360.46 " fill="transparent" id="System wyświetla szczegóły wybranej rezerwacji-to-Użytkownik wybiera nowe daty lub pokój" style="stroke:#181818;stroke-width:1;"/><polygon fill="#181818" points="362.81,366.46,366.81,357.46,362.81,361.46,358.81,357.46,362.81,366.46" style="stroke:#181818;stroke-width:1;"/></g><!--link U?ytkownik wybiera nowe daty lub pok?j to System sprawdza dost?pno?? pokoju w nowych terminach--><g id="link_Użytkownik wybiera nowe daty lub pokój_System sprawdza dostępność pokoju w nowych terminach"><path d="M362.81,401.06 C362.81,413.06 362.81,423.37 362.81,435.43 " fill="transparent" id="Użytkownik wybiera nowe daty lub pokój-to-System sprawdza dostępność pokoju w nowych terminach" style="stroke:#181818;stroke-width:1;"/><polygon fill="#181818" points="362.81,441.43,366.81,432.43,362.81,436.43,358.81,432.43,362.81,441.43" style="stroke:#181818;stroke-width:1;"/></g><!--link System sprawdza dost?pno?? pokoju w nowych terminach to #15--><g id="link_System sprawdza dostępność pokoju w nowych terminach_#15"><path d="M362.81,476.29 C362.81,488.71 362.81,499.42 362.81,510.4 " fill="transparent" id="System sprawdza dostępność pokoju w nowych terminach-to-#15" style="stroke:#181818;stroke-width:1;"/><polygon fill="#181818" points="362.81,516.4,366.81,507.4,362.81,511.4,358.81,507.4,362.81,516.4" style="stroke:#181818;stroke-width:1;"/><text fill="#000000" font-family="sans-serif" font-size="11" lengthAdjust="spacing" textLength="58.314" x="291.4701" y="506.2773">Dostępny?</text></g><!--link #15 to System wy?wietla podsumowanie zmiany rezerwacji--><g id="link_#15_System wyświetla podsumowanie zmiany rezerwacji"><path d="M354.88,533.51 C332.15,544.09 271.13,572.4888 229.5,591.8588 " fill="transparent" id="#15-to-System wyświetla podsumowanie zmiany rezerwacji" style="stroke:#181818;stroke-width:1;"/><polygon fill="#181818" points="224.06,594.39,233.9074,594.2199,228.5933,592.2807,230.5325,586.9666,224.06,594.39" style="stroke:#181818;stroke-width:1;"/><text fill="#000000" font-family="sans-serif" font-size="11" lengthAdjust="spacing" textLength="19.8301" x="292.81" y="572.0304">Tak</text></g><!--link System wy?wietla podsumowanie zmiany rezerwacji to U?ytkownik akceptuje zmian? rezerwacji--><g id="link_System wyświetla podsumowanie zmiany rezerwacji_Użytkownik akceptuje zmianę rezerwacji"><path d="M184.82,628.99 C181.85,641 179.2647,651.4841 176.2947,663.5441 " fill="transparent" id="System wyświetla podsumowanie zmiany rezerwacji-to-Użytkownik akceptuje zmianę rezerwacji" style="stroke:#181818;stroke-width:1;"/><polygon fill="#181818" points="174.86,669.37,180.8961,661.5876,176.0556,664.5151,173.1282,659.6746,174.86,669.37" style="stroke:#181818;stroke-width:1;"/></g><!--link U?ytkownik akceptuje zmian? rezerwacji to System zapisuje zmian? rezerwacji w bazie danych--><g id="link_Użytkownik akceptuje zmianę rezerwacji_System zapisuje zmianę rezerwacji w bazie danych"><path d="M170.81,703.96 C170.81,715.97 170.81,726.28 170.81,738.34 " fill="transparent" id="Użytkownik akceptuje zmianę rezerwacji-to-System zapisuje zmianę rezerwacji w bazie danych" style="stroke:#181818;stroke-width:1;"/><polygon fill="#181818" points="170.81,744.34,174.81,735.34,170.81,739.34,166.81,735.34,170.81,744.34" style="stroke:#181818;stroke-width:1;"/></g><!--link System zapisuje zmian? rezerwacji w bazie danych to System generuje i wy?wietla potwierdzenie zmiany--><g id="link_System zapisuje zmianę rezerwacji w bazie danych_System generuje i wyświetla potwierdzenie zmiany"><path d="M170.81,778.91 C170.81,794.18 170.81,810.97 170.81,826.32 " fill="transparent" id="System zapisuje zmianę rezerwacji w bazie danych-to-System generuje i wyświetla potwierdzenie zmiany" style="stroke:#181818;stroke-width:1;"/><polygon fill="#181818" points="170.81,832.32,174.81,823.32,170.81,827.32,166.81,823.32,170.81,832.32" style="stroke:#181818;stroke-width:1;"/></g><!--link System generuje i wy?wietla potwierdzenie zmiany to end--><g id="link_System generuje i wyświetla potwierdzenie zmiany_end"><path d="M242.12,867.18 C313.23,883.6 410.694,906.1092 444.104,913.8292 " fill="transparent" id="System generuje i wyświetla potwierdzenie zmiany-to-end" style="stroke:#181818;stroke-width:1;"/><polygon fill="#181818" points="449.95,915.18,442.0816,909.2565,445.0784,914.0543,440.2805,917.0511,449.95,915.18" style="stroke:#181818;stroke-width:1;"/></g><!--link #15 to System wy?wietla komunikat o braku dost?pno?ci--><g id="link_#15_System wyświetla komunikat o braku dostępności"><path d="M370.42,533.29 C393.11,543.68 455.9642,572.4331 498.5942,591.9431 " fill="transparent" id="#15-to-System wyświetla komunikat o braku dostępności" style="stroke:#181818;stroke-width:1;"/><polygon fill="#181818" points="504.05,594.44,497.5309,587.0575,499.5035,592.3593,494.2017,594.3319,504.05,594.44" style="stroke:#181818;stroke-width:1;"/><text fill="#000000" font-family="sans-serif" font-size="11" lengthAdjust="spacing" textLength="18.0522" x="456.81" y="572.0304">Nie</text></g><!--link System wy?wietla komunikat o braku dost?pno?ci to U?ytkownik ma mo?liwo?? ponownego wyboru nowych dat lub pokoju--><g id="link_System wyświetla komunikat o braku dostępności_Użytkownik ma możliwość ponownego wyboru nowych dat lub pokoju"><path d="M540.48,628.99 C540.97,641 541.3915,651.3151 541.8915,663.3751 " fill="transparent" id="System wyświetla komunikat o braku dostępności-to-Użytkownik ma możliwość ponownego wyboru nowych dat lub pokoju" style="stroke:#181818;stroke-width:1;"/><polygon fill="#181818" points="542.14,669.37,545.7638,660.212,541.9329,664.3743,537.7706,660.5434,542.14,669.37" style="stroke:#181818;stroke-width:1;"/></g><!--link U?ytkownik ma mo?liwo?? ponownego wyboru nowych dat lub pokoju to #32--><g id="link_Użytkownik ma możliwość ponownego wyboru nowych dat lub pokoju_#32"><path d="M542.81,703.96 C542.81,717.73 542.81,731.16 542.81,743.35 " fill="transparent" id="Użytkownik ma możliwość ponownego wyboru nowych dat lub pokoju-to-#32" style="stroke:#181818;stroke-width:1;"/><polygon fill="#181818" points="542.81,749.35,546.81,740.35,542.81,744.35,538.81,740.35,542.81,749.35" style="stroke:#181818;stroke-width:1;"/><text fill="#000000" font-family="sans-serif" font-size="11" lengthAdjust="spacing" textLength="88.2417" x="434.5159" y="739.2412">Ponowić wybór?</text></g><!--link #32 to Powr?t do wyboru nowych dat lub pokoju--><g id="link_#32_Powrót do wyboru nowych dat lub pokoju"><path d="M538.39,769.77 C529.88,783.33 514.1909,808.2988 502.3409,827.1688 " fill="transparent" id="#32-to-Powrót do wyboru nowych dat lub pokoju" style="stroke:#181818;stroke-width:1;"/><polygon fill="#181818" points="499.15,832.25,507.3238,826.7555,501.8091,828.0157,500.5489,822.501,499.15,832.25" style="stroke:#181818;stroke-width:1;"/><text fill="#000000" font-family="sans-serif" font-size="11" lengthAdjust="spacing" textLength="19.8301" x="519.81" y="809.9304">Tak</text></g><!--link #32 to System wraca do listy rezerwacji--><g id="link_#32_System wraca do listy rezerwacji"><path d="M551,766.11 C577.42,776.97 656.011,809.2979 706.611,830.1079 " fill="transparent" id="#32-to-System wraca do listy rezerwacji" style="stroke:#181818;stroke-width:1;"/><polygon fill="#181818" points="712.16,832.39,705.3579,825.2674,707.5358,830.4882,702.315,832.6662,712.16,832.39" style="stroke:#181818;stroke-width:1;"/><text fill="#000000" font-family="sans-serif" font-size="11" lengthAdjust="spacing" textLength="18.0522" x="660.81" y="809.9304">Nie</text></g><!--link System wraca do listy rezerwacji to end--><g id="link_System wraca do listy rezerwacji_end"><path d="M680.25,867.18 C608.9,883.6 511.0769,906.1134 477.5569,913.8334 " fill="transparent" id="System wraca do listy rezerwacji-to-end" style="stroke:#181818;stroke-width:1;"/><polygon fill="#181818" points="471.71,915.18,481.3781,917.058,476.5824,914.0578,479.5827,909.2621,471.71,915.18" style="stroke:#181818;stroke-width:1;"/></g><!--SRC=[XLCxRi904EqvnOWAaBX2qgIEa99KKOh17c3ysRNsezMwJ9CpH1o3bWvyh-mQ7En0aigsz3xpveqdiodCvtSmVcdstkJI2SwXa6kR4MW-Va8gGNjjgBJZqGdvr7w2yytMCPa2eM1j0bHHJSfXaZ7OYnfslBw3yqicXHVAoQak6ON_tKZNIKthmwvvzr52eQ2iP_kNav2E84NZeR1Bg6H-s6K_Z7IbqAKrXabYdah8PdlyY5YPMN1HmYSRCAHA5fXi0frNC7uue_tz6Co6n0WWohu-O_vsAqGbKsrBwL0mdHCFCy1r2imJgamifIKCbdrXdBrgh5ZVneOKIwmvRaBuDi6GkYP1Ab9vEB49RogjwJBoDtKocuw02arTxaUccxbpMTfu3mOaXEfoszzpyalm4g6KpRvWrvKHMX2qbh5OgMnNIcYsApQKrMh5RXOHpe4Nq8UTwZNKxsWXdJhiJBp0VrMxfBUoAapYyRJ_mrMdlMq55P7oQdHwV040]--></g></svg>