<svg xmlns="http://www.w3.org/2000/svg" xmlns:xlink="http://www.w3.org/1999/xlink" contentStyleType="text/css" data-diagram-type="ACTIVITY" height="755px" preserveAspectRatio="none" style="width:1285px;height:755px;background:#FFFFFF;" version="1.1" viewBox="0 0 1285 755" width="1285px" zoomAndPan="magnify"><title>Diagram Aktywno&#347;ci - Zarz&#261;dzanie dostawcami</title><defs/><g><text fill="#000000" font-family="sans-serif" font-size="14" font-weight="bold" lengthAdjust="spacing" textLength="372.2031" x="455.1982" y="32.9951">Diagram Aktywno&#347;ci - Zarz&#261;dzanie dostawcami</text><ellipse cx="642.7998" cy="57.2969" fill="#222222" rx="10" ry="10" style="stroke:#222222;stroke-width:1;"/><rect fill="#F1F1F1" height="33.9688" rx="12.5" ry="12.5" style="stroke:#181818;stroke-width:0.5;" width="320.0938" x="482.7529" y="87.2969"/><text fill="#000000" font-family="sans-serif" font-size="12" lengthAdjust="spacing" textLength="300.0938" x="492.7529" y="108.4355">Pracownik wybiera opcj&#281; zarz&#261;dzania dostawcami</text><rect fill="#F1F1F1" height="33.9688" rx="12.5" ry="12.5" style="stroke:#181818;stroke-width:0.5;" width="198.6875" x="543.4561" y="141.2656"/><text fill="#000000" font-family="sans-serif" font-size="12" lengthAdjust="spacing" textLength="178.6875" x="553.4561" y="162.4043">Wy&#347;wietlenie listy dostawc&#243;w</text><polygon fill="#F1F1F1" points="201.8628,195.2344,257.2173,195.2344,269.2173,207.2344,257.2173,219.2344,201.8628,219.2344,189.8628,207.2344,201.8628,195.2344" style="stroke:#181818;stroke-width:0.5;"/><text fill="#000000" font-family="sans-serif" font-size="11" lengthAdjust="spacing" textLength="45.7188" x="233.54" y="229.4448">Dodanie</text><text fill="#000000" font-family="sans-serif" font-size="11" lengthAdjust="spacing" textLength="55.3545" x="201.8628" y="211.0425">Operacja?</text><rect fill="#F1F1F1" height="33.9688" rx="12.5" ry="12.5" style="stroke:#181818;stroke-width:0.5;" width="267.7578" x="95.6611" y="252.0391"/><text fill="#000000" font-family="sans-serif" font-size="12" lengthAdjust="spacing" textLength="247.7578" x="105.6611" y="273.1777">Wprowadzenie danych nowego dostawcy</text><rect fill="#F1F1F1" height="33.9688" rx="12.5" ry="12.5" style="stroke:#181818;stroke-width:0.5;" width="125.8379" x="166.6211" y="321.0078"/><text fill="#000000" font-family="sans-serif" font-size="12" lengthAdjust="spacing" textLength="105.8379" x="176.6211" y="342.1465">Walidacja danych</text><polygon fill="#F1F1F1" points="183.0505,389.9766,276.0295,389.9766,288.0295,401.9766,276.0295,413.9766,183.0505,413.9766,171.0505,401.9766,183.0505,389.9766" style="stroke:#181818;stroke-width:0.5;"/><text fill="#000000" font-family="sans-serif" font-size="11" lengthAdjust="spacing" textLength="92.979" x="183.0505" y="405.7847">Dane poprawne?</text><text fill="#000000" font-family="sans-serif" font-size="11" lengthAdjust="spacing" textLength="19.8301" x="151.2205" y="399.3823">Tak</text><text fill="#000000" font-family="sans-serif" font-size="11" lengthAdjust="spacing" textLength="18.0522" x="288.0295" y="399.3823">Nie</text><rect fill="#F1F1F1" height="33.9688" rx="12.5" ry="12.5" style="stroke:#181818;stroke-width:0.5;" width="210.5938" x="11" y="423.9766"/><text fill="#000000" font-family="sans-serif" font-size="12" lengthAdjust="spacing" textLength="190.5938" x="21" y="445.1152">Zapisanie dostawcy w systemie</text><rect fill="#F1F1F1" height="33.9688" rx="12.5" ry="12.5" style="stroke:#181818;stroke-width:0.5;" width="146.6914" x="42.9512" y="492.9453"/><text fill="#000000" font-family="sans-serif" font-size="12" lengthAdjust="spacing" textLength="126.6914" x="52.9512" y="514.084">Test po&#322;&#261;czenia z API</text><rect fill="#F1F1F1" height="33.9688" rx="12.5" ry="12.5" style="stroke:#181818;stroke-width:0.5;" width="188.0293" x="22.2822" y="561.9141"/><text fill="#000000" font-family="sans-serif" font-size="12" lengthAdjust="spacing" textLength="168.0293" x="32.2822" y="583.0527">Wy&#347;wietlenie potwierdzenia</text><rect fill="#F1F1F1" height="33.9688" rx="12.5" ry="12.5" style="stroke:#181818;stroke-width:0.5;" width="202.3789" x="241.5938" y="423.9766"/><text fill="#000000" font-family="sans-serif" font-size="12" lengthAdjust="spacing" textLength="182.3789" x="251.5938" y="445.1152">Wy&#347;wietlenie b&#322;&#281;d&#243;w walidacji</text><rect fill="#F1F1F1" height="33.9688" rx="12.5" ry="12.5" style="stroke:#181818;stroke-width:0.5;" width="149.0293" x="268.2686" y="492.9453"/><text fill="#000000" font-family="sans-serif" font-size="12" lengthAdjust="spacing" textLength="129.0293" x="278.2686" y="514.084">Powr&#243;t do formularza</text><polygon fill="#F1F1F1" points="229.54,601.8828,241.54,613.8828,229.54,625.8828,217.54,613.8828,229.54,601.8828" style="stroke:#181818;stroke-width:0.5;"/><polygon fill="#F1F1F1" points="637.4458,195.2344,673.7329,195.2344,685.7329,207.2344,673.7329,219.2344,637.4458,219.2344,625.4458,207.2344,637.4458,195.2344" style="stroke:#181818;stroke-width:0.5;"/><text fill="#000000" font-family="sans-serif" font-size="11" lengthAdjust="spacing" textLength="36.2871" x="637.4458" y="211.0425">Edycja</text><text fill="#000000" font-family="sans-serif" font-size="11" lengthAdjust="spacing" textLength="53.4209" x="685.7329" y="204.6401">Usuni&#281;cie</text><rect fill="#F1F1F1" height="33.9688" rx="12.5" ry="12.5" style="stroke:#181818;stroke-width:0.5;" width="177.4121" x="566.8833" y="239.2344"/><text fill="#000000" font-family="sans-serif" font-size="12" lengthAdjust="spacing" textLength="157.4121" x="576.8833" y="260.373">Wyb&#243;r dostawcy do edycji</text><rect fill="#F1F1F1" height="33.9688" rx="12.5" ry="12.5" style="stroke:#181818;stroke-width:0.5;" width="199.8535" x="555.6626" y="308.2031"/><text fill="#000000" font-family="sans-serif" font-size="12" lengthAdjust="spacing" textLength="179.8535" x="565.6626" y="329.3418">Modyfikacja danych dostawcy</text><rect fill="#F1F1F1" height="33.9688" rx="12.5" ry="12.5" style="stroke:#181818;stroke-width:0.5;" width="125.8379" x="592.6704" y="377.1719"/><text fill="#000000" font-family="sans-serif" font-size="12" lengthAdjust="spacing" textLength="105.8379" x="602.6704" y="398.3105">Walidacja danych</text><polygon fill="#F1F1F1" points="609.0999,446.1406,702.0789,446.1406,714.0789,458.1406,702.0789,470.1406,609.0999,470.1406,597.0999,458.1406,609.0999,446.1406" style="stroke:#181818;stroke-width:0.5;"/><text fill="#000000" font-family="sans-serif" font-size="11" lengthAdjust="spacing" textLength="92.979" x="609.0999" y="461.9487">Dane poprawne?</text><text fill="#000000" font-family="sans-serif" font-size="11" lengthAdjust="spacing" textLength="19.8301" x="577.2698" y="455.5464">Tak</text><text fill="#000000" font-family="sans-serif" font-size="11" lengthAdjust="spacing" textLength="18.0522" x="714.0789" y="455.5464">Nie</text><rect fill="#F1F1F1" height="33.9688" rx="12.5" ry="12.5" style="stroke:#181818;stroke-width:0.5;" width="118.5488" x="488.7129" y="480.1406"/><text fill="#000000" font-family="sans-serif" font-size="12" lengthAdjust="spacing" textLength="98.5488" x="498.7129" y="501.2793">Zapisanie zmian</text><rect fill="#F1F1F1" height="33.9688" rx="12.5" ry="12.5" style="stroke:#181818;stroke-width:0.5;" width="146.6914" x="474.6416" y="549.1094"/><text fill="#000000" font-family="sans-serif" font-size="12" lengthAdjust="spacing" textLength="126.6914" x="484.6416" y="570.248">Test po&#322;&#261;czenia z API</text><rect fill="#F1F1F1" height="33.9688" rx="12.5" ry="12.5" style="stroke:#181818;stroke-width:0.5;" width="188.0293" x="453.9727" y="618.0781"/><text fill="#000000" font-family="sans-serif" font-size="12" lengthAdjust="spacing" textLength="168.0293" x="463.9727" y="639.2168">Wy&#347;wietlenie potwierdzenia</text><rect fill="#F1F1F1" height="33.9688" rx="12.5" ry="12.5" style="stroke:#181818;stroke-width:0.5;" width="202.3789" x="662.002" y="480.1406"/><text fill="#000000" font-family="sans-serif" font-size="12" lengthAdjust="spacing" textLength="182.3789" x="672.002" y="501.2793">Wy&#347;wietlenie b&#322;&#281;d&#243;w walidacji</text><rect fill="#F1F1F1" height="33.9688" rx="12.5" ry="12.5" style="stroke:#181818;stroke-width:0.5;" width="149.0293" x="688.6768" y="549.1094"/><text fill="#000000" font-family="sans-serif" font-size="12" lengthAdjust="spacing" textLength="129.0293" x="698.6768" y="570.248">Powr&#243;t do formularza</text><polygon fill="#F1F1F1" points="655.5894,658.0469,667.5894,670.0469,655.5894,682.0469,643.5894,670.0469,655.5894,658.0469" style="stroke:#181818;stroke-width:0.5;"/><rect fill="#F1F1F1" height="33.9688" rx="12.5" ry="12.5" style="stroke:#181818;stroke-width:0.5;" width="199.1152" x="999.3398" y="276.7188"/><text fill="#000000" font-family="sans-serif" font-size="12" lengthAdjust="spacing" textLength="179.1152" x="1009.3398" y="297.8574">Wyb&#243;r dostawcy do usuni&#281;cia</text><rect fill="#F1F1F1" height="33.9688" rx="12.5" ry="12.5" style="stroke:#181818;stroke-width:0.5;" width="165.2539" x="1016.2705" y="345.6875"/><text fill="#000000" font-family="sans-serif" font-size="12" lengthAdjust="spacing" textLength="145.2539" x="1026.2705" y="366.8262">Potwierdzenie usuni&#281;cia</text><polygon fill="#F1F1F1" points="1058.856,414.6563,1138.939,414.6563,1150.939,426.6563,1138.939,438.6563,1058.856,438.6563,1046.856,426.6563,1058.856,414.6563" style="stroke:#181818;stroke-width:0.5;"/><text fill="#000000" font-family="sans-serif" font-size="11" lengthAdjust="spacing" textLength="80.083" x="1058.856" y="430.4644">Potwierdzone?</text><text fill="#000000" font-family="sans-serif" font-size="11" lengthAdjust="spacing" textLength="19.8301" x="1027.0259" y="424.062">Tak</text><text fill="#000000" font-family="sans-serif" font-size="11" lengthAdjust="spacing" textLength="18.0522" x="1150.939" y="424.062">Nie</text><rect fill="#F1F1F1" height="33.9688" rx="12.5" ry="12.5" style="stroke:#181818;stroke-width:0.5;" width="238.9238" x="874.3809" y="448.6563"/><text fill="#000000" font-family="sans-serif" font-size="12" lengthAdjust="spacing" textLength="218.9238" x="884.3809" y="469.7949">Sprawdzenie powi&#261;zanych rekord&#243;w</text><rect fill="#F1F1F1" height="33.9688" rx="12.5" ry="12.5" style="stroke:#181818;stroke-width:0.5;" width="138.875" x="924.4053" y="517.625"/><text fill="#000000" font-family="sans-serif" font-size="12" lengthAdjust="spacing" textLength="118.875" x="934.4053" y="538.7637">Usuni&#281;cie dostawcy</text><rect fill="#F1F1F1" height="33.9688" rx="12.5" ry="12.5" style="stroke:#181818;stroke-width:0.5;" width="188.0293" x="899.8281" y="586.5938"/><text fill="#000000" font-family="sans-serif" font-size="12" lengthAdjust="spacing" textLength="168.0293" x="909.8281" y="607.7324">Wy&#347;wietlenie potwierdzenia</text><rect fill="#F1F1F1" height="33.9688" rx="12.5" ry="12.5" style="stroke:#181818;stroke-width:0.5;" width="141.2949" x="1133.3047" y="448.6563"/><text fill="#000000" font-family="sans-serif" font-size="12" lengthAdjust="spacing" textLength="121.2949" x="1143.3047" y="469.7949">Anulowanie operacji</text><polygon fill="#F1F1F1" points="1098.8975,626.5625,1110.8975,638.5625,1098.8975,650.5625,1086.8975,638.5625,1098.8975,626.5625" style="stroke:#181818;stroke-width:0.5;"/><ellipse cx="642.7998" cy="733.0469" fill="#FFFFFF" fill-opacity="0.00000" rx="11" ry="11" style="stroke:#222222;stroke-width:1;"/><ellipse cx="642.7998" cy="733.0469" fill="#222222" rx="6" ry="6" style="stroke:#222222;stroke-width:1;"/><line style="stroke:#181818;stroke-width:1;" x1="642.7998" x2="642.7998" y1="67.2969" y2="87.2969"/><polygon fill="#181818" points="638.7998,77.2969,642.7998,87.2969,646.7998,77.2969,642.7998,81.2969" style="stroke:#181818;stroke-width:1;"/><line style="stroke:#181818;stroke-width:1;" x1="642.7998" x2="642.7998" y1="121.2656" y2="141.2656"/><polygon fill="#181818" points="638.7998,131.2656,642.7998,141.2656,646.7998,131.2656,642.7998,135.2656" style="stroke:#181818;stroke-width:1;"/><line style="stroke:#181818;stroke-width:1;" x1="229.54" x2="229.54" y1="286.0078" y2="321.0078"/><polygon fill="#181818" points="225.54,311.0078,229.54,321.0078,233.54,311.0078,229.54,315.0078" style="stroke:#181818;stroke-width:1;"/><line style="stroke:#181818;stroke-width:1;" x1="116.2969" x2="116.2969" y1="457.9453" y2="492.9453"/><polygon fill="#181818" points="112.2969,482.9453,116.2969,492.9453,120.2969,482.9453,116.2969,486.9453" style="stroke:#181818;stroke-width:1;"/><line style="stroke:#181818;stroke-width:1;" x1="116.2969" x2="116.2969" y1="526.9141" y2="561.9141"/><polygon fill="#181818" points="112.2969,551.9141,116.2969,561.9141,120.2969,551.9141,116.2969,555.9141" style="stroke:#181818;stroke-width:1;"/><line style="stroke:#181818;stroke-width:1;" x1="342.7832" x2="342.7832" y1="457.9453" y2="492.9453"/><polygon fill="#181818" points="338.7832,482.9453,342.7832,492.9453,346.7832,482.9453,342.7832,486.9453" style="stroke:#181818;stroke-width:1;"/><line style="stroke:#181818;stroke-width:1;" x1="171.0505" x2="116.2969" y1="401.9766" y2="401.9766"/><line style="stroke:#181818;stroke-width:1;" x1="116.2969" x2="116.2969" y1="401.9766" y2="423.9766"/><polygon fill="#181818" points="112.2969,413.9766,116.2969,423.9766,120.2969,413.9766,116.2969,417.9766" style="stroke:#181818;stroke-width:1;"/><line style="stroke:#181818;stroke-width:1;" x1="288.0295" x2="342.7832" y1="401.9766" y2="401.9766"/><line style="stroke:#181818;stroke-width:1;" x1="342.7832" x2="342.7832" y1="401.9766" y2="423.9766"/><polygon fill="#181818" points="338.7832,413.9766,342.7832,423.9766,346.7832,413.9766,342.7832,417.9766" style="stroke:#181818;stroke-width:1;"/><line style="stroke:#181818;stroke-width:1;" x1="116.2969" x2="116.2969" y1="595.8828" y2="613.8828"/><line style="stroke:#181818;stroke-width:1;" x1="116.2969" x2="217.54" y1="613.8828" y2="613.8828"/><polygon fill="#181818" points="207.54,609.8828,217.54,613.8828,207.54,617.8828,211.54,613.8828" style="stroke:#181818;stroke-width:1;"/><line style="stroke:#181818;stroke-width:1;" x1="342.7832" x2="342.7832" y1="526.9141" y2="613.8828"/><line style="stroke:#181818;stroke-width:1;" x1="342.7832" x2="241.54" y1="613.8828" y2="613.8828"/><polygon fill="#181818" points="251.54,609.8828,241.54,613.8828,251.54,617.8828,247.54,613.8828" style="stroke:#181818;stroke-width:1;"/><line style="stroke:#181818;stroke-width:1;" x1="229.54" x2="229.54" y1="354.9766" y2="389.9766"/><polygon fill="#181818" points="225.54,379.9766,229.54,389.9766,233.54,379.9766,229.54,383.9766" style="stroke:#181818;stroke-width:1;"/><line style="stroke:#181818;stroke-width:1;" x1="655.5894" x2="655.5894" y1="273.2031" y2="308.2031"/><polygon fill="#181818" points="651.5894,298.2031,655.5894,308.2031,659.5894,298.2031,655.5894,302.2031" style="stroke:#181818;stroke-width:1;"/><line style="stroke:#181818;stroke-width:1;" x1="655.5894" x2="655.5894" y1="342.1719" y2="377.1719"/><polygon fill="#181818" points="651.5894,367.1719,655.5894,377.1719,659.5894,367.1719,655.5894,371.1719" style="stroke:#181818;stroke-width:1;"/><line style="stroke:#181818;stroke-width:1;" x1="547.9873" x2="547.9873" y1="514.1094" y2="549.1094"/><polygon fill="#181818" points="543.9873,539.1094,547.9873,549.1094,551.9873,539.1094,547.9873,543.1094" style="stroke:#181818;stroke-width:1;"/><line style="stroke:#181818;stroke-width:1;" x1="547.9873" x2="547.9873" y1="583.0781" y2="618.0781"/><polygon fill="#181818" points="543.9873,608.0781,547.9873,618.0781,551.9873,608.0781,547.9873,612.0781" style="stroke:#181818;stroke-width:1;"/><line style="stroke:#181818;stroke-width:1;" x1="763.1914" x2="763.1914" y1="514.1094" y2="549.1094"/><polygon fill="#181818" points="759.1914,539.1094,763.1914,549.1094,767.1914,539.1094,763.1914,543.1094" style="stroke:#181818;stroke-width:1;"/><line style="stroke:#181818;stroke-width:1;" x1="597.0999" x2="547.9873" y1="458.1406" y2="458.1406"/><line style="stroke:#181818;stroke-width:1;" x1="547.9873" x2="547.9873" y1="458.1406" y2="480.1406"/><polygon fill="#181818" points="543.9873,470.1406,547.9873,480.1406,551.9873,470.1406,547.9873,474.1406" style="stroke:#181818;stroke-width:1;"/><line style="stroke:#181818;stroke-width:1;" x1="714.0789" x2="763.1914" y1="458.1406" y2="458.1406"/><line style="stroke:#181818;stroke-width:1;" x1="763.1914" x2="763.1914" y1="458.1406" y2="480.1406"/><polygon fill="#181818" points="759.1914,470.1406,763.1914,480.1406,767.1914,470.1406,763.1914,474.1406" style="stroke:#181818;stroke-width:1;"/><line style="stroke:#181818;stroke-width:1;" x1="547.9873" x2="547.9873" y1="652.0469" y2="670.0469"/><line style="stroke:#181818;stroke-width:1;" x1="547.9873" x2="643.5894" y1="670.0469" y2="670.0469"/><polygon fill="#181818" points="633.5894,666.0469,643.5894,670.0469,633.5894,674.0469,637.5894,670.0469" style="stroke:#181818;stroke-width:1;"/><line style="stroke:#181818;stroke-width:1;" x1="763.1914" x2="763.1914" y1="583.0781" y2="670.0469"/><line style="stroke:#181818;stroke-width:1;" x1="763.1914" x2="667.5894" y1="670.0469" y2="670.0469"/><polygon fill="#181818" points="677.5894,666.0469,667.5894,670.0469,677.5894,674.0469,673.5894,670.0469" style="stroke:#181818;stroke-width:1;"/><line style="stroke:#181818;stroke-width:1;" x1="655.5894" x2="655.5894" y1="411.1406" y2="446.1406"/><polygon fill="#181818" points="651.5894,436.1406,655.5894,446.1406,659.5894,436.1406,655.5894,440.1406" style="stroke:#181818;stroke-width:1;"/><line style="stroke:#181818;stroke-width:1;" x1="1098.8975" x2="1098.8975" y1="310.6875" y2="345.6875"/><polygon fill="#181818" points="1094.8975,335.6875,1098.8975,345.6875,1102.8975,335.6875,1098.8975,339.6875" style="stroke:#181818;stroke-width:1;"/><line style="stroke:#181818;stroke-width:1;" x1="993.8428" x2="993.8428" y1="482.625" y2="517.625"/><polygon fill="#181818" points="989.8428,507.625,993.8428,517.625,997.8428,507.625,993.8428,511.625" style="stroke:#181818;stroke-width:1;"/><line style="stroke:#181818;stroke-width:1;" x1="993.8428" x2="993.8428" y1="551.5938" y2="586.5938"/><polygon fill="#181818" points="989.8428,576.5938,993.8428,586.5938,997.8428,576.5938,993.8428,580.5938" style="stroke:#181818;stroke-width:1;"/><line style="stroke:#181818;stroke-width:1;" x1="1046.856" x2="993.8428" y1="426.6563" y2="426.6563"/><line style="stroke:#181818;stroke-width:1;" x1="993.8428" x2="993.8428" y1="426.6563" y2="448.6563"/><polygon fill="#181818" points="989.8428,438.6563,993.8428,448.6563,997.8428,438.6563,993.8428,442.6563" style="stroke:#181818;stroke-width:1;"/><line style="stroke:#181818;stroke-width:1;" x1="1150.939" x2="1203.9521" y1="426.6563" y2="426.6563"/><line style="stroke:#181818;stroke-width:1;" x1="1203.9521" x2="1203.9521" y1="426.6563" y2="448.6563"/><polygon fill="#181818" points="1199.9521,438.6563,1203.9521,448.6563,1207.9521,438.6563,1203.9521,442.6563" style="stroke:#181818;stroke-width:1;"/><line style="stroke:#181818;stroke-width:1;" x1="993.8428" x2="993.8428" y1="620.5625" y2="638.5625"/><line style="stroke:#181818;stroke-width:1;" x1="993.8428" x2="1086.8975" y1="638.5625" y2="638.5625"/><polygon fill="#181818" points="1076.8975,634.5625,1086.8975,638.5625,1076.8975,642.5625,1080.8975,638.5625" style="stroke:#181818;stroke-width:1;"/><line style="stroke:#181818;stroke-width:1;" x1="1203.9521" x2="1203.9521" y1="482.625" y2="638.5625"/><line style="stroke:#181818;stroke-width:1;" x1="1203.9521" x2="1110.8975" y1="638.5625" y2="638.5625"/><polygon fill="#181818" points="1120.8975,634.5625,1110.8975,638.5625,1120.8975,642.5625,1116.8975,638.5625" style="stroke:#181818;stroke-width:1;"/><line style="stroke:#181818;stroke-width:1;" x1="1098.8975" x2="1098.8975" y1="379.6563" y2="414.6563"/><polygon fill="#181818" points="1094.8975,404.6563,1098.8975,414.6563,1102.8975,404.6563,1098.8975,408.6563" style="stroke:#181818;stroke-width:1;"/><line style="stroke:#181818;stroke-width:1;" x1="229.54" x2="229.54" y1="219.2344" y2="252.0391"/><polygon fill="#181818" points="225.54,242.0391,229.54,252.0391,233.54,242.0391,229.54,246.0391" style="stroke:#181818;stroke-width:1;"/><line style="stroke:#181818;stroke-width:1;" x1="229.54" x2="229.54" y1="625.8828" y2="702.0469"/><polygon fill="#181818" points="225.54,692.0469,229.54,702.0469,233.54,692.0469,229.54,696.0469" style="stroke:#181818;stroke-width:1;"/><line style="stroke:#181818;stroke-width:1;" x1="655.5894" x2="655.5894" y1="219.2344" y2="239.2344"/><polygon fill="#181818" points="651.5894,229.2344,655.5894,239.2344,659.5894,229.2344,655.5894,233.2344" style="stroke:#181818;stroke-width:1;"/><line style="stroke:#181818;stroke-width:1;" x1="655.5894" x2="655.5894" y1="682.0469" y2="702.0469"/><polygon fill="#181818" points="651.5894,692.0469,655.5894,702.0469,659.5894,692.0469,655.5894,696.0469" style="stroke:#181818;stroke-width:1;"/><line style="stroke:#181818;stroke-width:1;" x1="269.2173" x2="625.4458" y1="207.2344" y2="207.2344"/><polygon fill="#181818" points="615.4458,203.2344,625.4458,207.2344,615.4458,211.2344,619.4458,207.2344" style="stroke:#181818;stroke-width:1;"/><line style="stroke:#181818;stroke-width:1;" x1="642.7998" x2="642.7998" y1="175.2344" y2="180.2344"/><line style="stroke:#181818;stroke-width:1;" x1="642.7998" x2="229.54" y1="180.2344" y2="180.2344"/><line style="stroke:#181818;stroke-width:1;" x1="229.54" x2="229.54" y1="180.2344" y2="195.2344"/><polygon fill="#181818" points="225.54,185.2344,229.54,195.2344,233.54,185.2344,229.54,189.2344" style="stroke:#181818;stroke-width:1;"/><line style="stroke:#181818;stroke-width:1;" x1="685.7329" x2="1098.8975" y1="207.2344" y2="207.2344"/><line style="stroke:#181818;stroke-width:1;" x1="1098.8975" x2="1098.8975" y1="207.2344" y2="276.7188"/><polygon fill="#181818" points="1094.8975,266.7188,1098.8975,276.7188,1102.8975,266.7188,1098.8975,270.7188" style="stroke:#181818;stroke-width:1;"/><line style="stroke:#181818;stroke-width:1;" x1="1098.8975" x2="1098.8975" y1="650.5625" y2="702.0469"/><polygon fill="#181818" points="1094.8975,692.0469,1098.8975,702.0469,1102.8975,692.0469,1098.8975,696.0469" style="stroke:#181818;stroke-width:1;"/><line style="stroke:#181818;stroke-width:1;" x1="229.54" x2="1098.8975" y1="702.0469" y2="702.0469"/><line style="stroke:#181818;stroke-width:1;" x1="642.7998" x2="642.7998" y1="702.0469" y2="722.0469"/><polygon fill="#181818" points="638.7998,712.0469,642.7998,722.0469,646.7998,712.0469,642.7998,716.0469" style="stroke:#181818;stroke-width:1;"/><!--SRC=[rPFDJkim48NtVOfPbWKlG1TNbSg21L09hgx4RXgxC2JnM8uhorbUgGzHyHXzXARlnJW__G5MI2nO9R7F-JnpdF7a2mqpmcU79Knp7uFX_Lj6S0bFwEfchMeqf45nvJ5aMD9e1FBgl3olvWup3ePo2751sY6mpLwR3TH7Bvvu9-Bv5_TlWRIScxW5LJuEYjqsJ0HBInZVMw5bh_Zd0loBDZ2UiKg5N8m0X64T1rHrYv3rcBs0uQ2VUK35IIV4WbJYzAfsDV5dQ3HOjWw3qOT37Z5l3n3d4rggJbkF4A2AbTSbwKalUjIL5yh-VxFEKZ48DKpdDyFsUQkMlNoujcfi9RgeD8pl-gu-6HR2tIW91KBV1WtaEGUtstgf3PRiobKXUVTCesWvwj2fqMiLfVq-jhZORTsn8N7hjDrXhsvPnINb9t7zG9frIMX-INxZlzNAKBF93l_Tvm1NWwIp2_bOfVwucx8w2FZhg1vIYhtTSg1cNNTtuNJEJhKpqYcFrPtVqtUIcvfL8IELrDoD7ft5qJxIvBDz1m00]--></g></svg>