<svg xmlns="http://www.w3.org/2000/svg" xmlns:xlink="http://www.w3.org/1999/xlink" contentStyleType="text/css" data-diagram-type="ACTIVITY" height="472px" preserveAspectRatio="none" style="width:368px;height:472px;background:#FFFFFF;" version="1.1" viewBox="0 0 368 472" width="368px" zoomAndPan="magnify"><defs/><g><ellipse cx="213.06" cy="16" fill="#222222" rx="10" ry="10" style="stroke:#222222;stroke-width:1;"/><rect fill="#F1F1F1" height="33.9688" rx="12.5" ry="12.5" style="stroke:#181818;stroke-width:0.5;" width="81.6172" x="172.25" y="67"/><text fill="#000000" font-family="sans-serif" font-size="12" lengthAdjust="spacing" textLength="61.6172" x="182.25" y="88.1387">Wybór roli</text><rect fill="#F1F1F1" height="33.9688" rx="12.5" ry="12.5" style="stroke:#181818;stroke-width:0.5;" width="180.4766" x="122.82" y="141.96"/><text fill="#000000" font-family="sans-serif" font-size="12" lengthAdjust="spacing" textLength="160.4766" x="132.82" y="163.0987">Podanie danych logowania</text><rect fill="#F1F1F1" height="33.9688" rx="12.5" ry="12.5" style="stroke:#181818;stroke-width:0.5;" width="138.125" x="94" y="216.93"/><text fill="#000000" font-family="sans-serif" font-size="12" lengthAdjust="spacing" textLength="118.125" x="104" y="238.0687">Weryfikacja danych</text><g id="elem_#9"><polygon fill="#F1F1F1" points="163.06,291.9,175.06,303.9,163.06,315.9,151.06,303.9,163.06,291.9" style="stroke:#181818;stroke-width:0.5;"/></g><rect fill="#F1F1F1" height="33.9688" rx="12.5" ry="12.5" style="stroke:#181818;stroke-width:0.5;" width="136.1152" x="7" y="369.9"/><text fill="#000000" font-family="sans-serif" font-size="12" lengthAdjust="spacing" textLength="116.1152" x="17" y="391.0387">Dostęp do systemu</text><ellipse cx="75.06" cy="455.87" fill="transparent" rx="11" ry="11" style="stroke:#222222;stroke-width:1;"/><ellipse cx="75.06" cy="455.87" fill="#222222" rx="6" ry="6" style="stroke:#222222;stroke-width:1;"/><rect fill="#F1F1F1" height="33.9688" rx="12.5" ry="12.5" style="stroke:#181818;stroke-width:0.5;" width="199.1504" x="163.48" y="369.9"/><text fill="#000000" font-family="sans-serif" font-size="12" lengthAdjust="spacing" textLength="179.1504" x="173.48" y="391.0387">Wyświetl komunikat o błędzie</text><!--link start to Wyb?r roli--><g id="link_start_Wybór roli"><path d="M213.06,26.45 C213.06,36.93 213.06,48.01 213.06,60.66 " fill="transparent" id="start-to-Wybór roli" style="stroke:#181818;stroke-width:1;"/><polygon fill="#181818" points="213.06,66.66,217.06,57.66,213.06,61.66,209.06,57.66,213.06,66.66" style="stroke:#181818;stroke-width:1;"/></g><!--link Wyb?r roli to Podanie danych logowania--><g id="link_Wybór roli_Podanie danych logowania"><path d="M213.06,101.17 C213.06,113.18 213.06,123.49 213.06,135.55 " fill="transparent" id="Wybór roli-to-Podanie danych logowania" style="stroke:#181818;stroke-width:1;"/><polygon fill="#181818" points="213.06,141.55,217.06,132.55,213.06,136.55,209.06,132.55,213.06,141.55" style="stroke:#181818;stroke-width:1;"/></g><!--link Podanie danych logowania to Weryfikacja danych--><g id="link_Podanie danych logowania_Weryfikacja danych"><path d="M201.96,176.14 C193.73,188.15 185.9505,199.5098 177.6905,211.5698 " fill="transparent" id="Podanie danych logowania-to-Weryfikacja danych" style="stroke:#181818;stroke-width:1;"/><polygon fill="#181818" points="174.3,216.52,182.6858,211.355,177.1254,212.3948,176.0855,206.8343,174.3,216.52" style="stroke:#181818;stroke-width:1;"/></g><!--link Weryfikacja danych to #9--><g id="link_Weryfikacja danych_#9"><path d="M163.06,251.37 C163.06,263.79 163.06,274.51 163.06,285.49 " fill="transparent" id="Weryfikacja danych-to-#9" style="stroke:#181818;stroke-width:1;"/><polygon fill="#181818" points="163.06,291.49,167.06,282.49,163.06,286.49,159.06,282.49,163.06,291.49" style="stroke:#181818;stroke-width:1;"/><text fill="#000000" font-family="sans-serif" font-size="11" lengthAdjust="spacing" textLength="91.1421" x="52.1848" y="281.8221">Poprawne dane?</text></g><!--link #9 to Dost?p do systemu--><g id="link_#9_Dostęp do systemu"><path d="M157.01,310.47 C143.96,322.47 117.1652,347.1372 97.2452,365.4672 " fill="transparent" id="#9-to-Dostęp do systemu" style="stroke:#181818;stroke-width:1;"/><polygon fill="#181818" points="92.83,369.53,102.1613,366.3793,96.5093,366.1444,96.7443,360.4924,92.83,369.53" style="stroke:#181818;stroke-width:1;"/><text fill="#000000" font-family="sans-serif" font-size="11" lengthAdjust="spacing" textLength="19.8301" x="128.06" y="347.1104">Tak</text></g><!--link Dost?p do systemu to end--><g id="link_Dostęp do systemu_end"><path d="M75.06,404.1 C75.06,416.65 75.06,427.64 75.06,438.44 " fill="transparent" id="Dostęp do systemu-to-end" style="stroke:#181818;stroke-width:1;"/><polygon fill="#181818" points="75.06,444.44,79.06,435.44,75.06,439.44,71.06,435.44,75.06,444.44" style="stroke:#181818;stroke-width:1;"/></g><!--link #9 to Wy?wietl komunikat o b??dzie--><g id="link_#9_Wyświetl komunikat o błędzie"><path d="M169.31,309.97 C183.77,321.67 215.3277,347.2334 238.2777,365.8234 " fill="transparent" id="#9-to-Wyświetl komunikat o błędzie" style="stroke:#181818;stroke-width:1;"/><polygon fill="#181818" points="242.94,369.6,238.4642,360.8269,239.0547,366.4528,233.4288,367.0433,242.94,369.6" style="stroke:#181818;stroke-width:1;"/><text fill="#000000" font-family="sans-serif" font-size="11" lengthAdjust="spacing" textLength="18.0522" x="217.06" y="347.1104">Nie</text></g><!--link Wy?wietl komunikat o b??dzie to Podanie danych logowania--><g id="link_Wyświetl komunikat o błędzie_Podanie danych logowania"><path d="M262.89,369.66 C262.18,339.1 258.68,271.2 242.06,216.93 C237.64,202.5 232.7491,192.5051 226.3091,181.4451 " fill="transparent" id="Wyświetl komunikat o błędzie-to-Podanie danych logowania" style="stroke:#181818;stroke-width:1;"/><polygon fill="#181818" points="223.29,176.26,224.362,186.0503,225.806,180.5809,231.2754,182.0248,223.29,176.26" style="stroke:#181818;stroke-width:1;"/></g><!--SRC=[VOun3e9054HxJl6p5P1u1MsiZOK9XQ5Os8zyWLsokuIifRSW7iCZ2FToKR2qcM9cNcR2E8BDPWiiSTdhgK6hcbZmjOvAS4a8NbrUGgqkglS6N_C4jIkeulcLBnsVK363hUQz_92uOs1Bb070J9rFl4g1xPMnuz22K62SiTXqR2b064S1O6rm9Gw4wVnlUlI4jePADPtqinOKPDDz7CIDy8V_UurIKF46]--></g></svg>
