<svg xmlns="http://www.w3.org/2000/svg" xmlns:xlink="http://www.w3.org/1999/xlink" contentStyleType="text/css" data-diagram-type="ACTIVITY" height="536px" preserveAspectRatio="none" style="width:718px;height:536px;background:#FFFFFF;" version="1.1" viewBox="0 0 718 536" width="718px" zoomAndPan="magnify"><defs/><g><ellipse cx="275.7734" cy="20" fill="#222222" rx="10" ry="10" style="stroke:#222222;stroke-width:1;"/><rect fill="#F1F1F1" height="33.9688" rx="12.5" ry="12.5" style="stroke:#181818;stroke-width:0.5;" width="364.4785" x="93.5342" y="50"/><text fill="#000000" font-family="sans-serif" font-size="12" lengthAdjust="spacing" textLength="344.4785" x="103.5342" y="71.1387">Klient wybiera pokój, daty pobytu i podaje dane osobowe</text><polygon fill="#F1F1F1" points="185.1765,157.9375,366.3704,157.9375,378.3704,169.9375,366.3704,181.9375,185.1765,181.9375,173.1765,169.9375,185.1765,157.9375" style="stroke:#181818;stroke-width:0.5;"/><text fill="#000000" font-family="sans-serif" font-size="11" lengthAdjust="spacing" textLength="181.1938" x="185.1765" y="173.7456">Dane poprawne i Pokój dostępny</text><text fill="#000000" font-family="sans-serif" font-size="11" lengthAdjust="spacing" textLength="16.7954" x="378.3704" y="167.3433">nie</text><rect fill="#F1F1F1" height="33.9688" rx="12.5" ry="12.5" style="stroke:#181818;stroke-width:0.5;" width="225.9219" x="482.0127" y="93.9688"/><text fill="#000000" font-family="sans-serif" font-size="12" lengthAdjust="spacing" textLength="205.9219" x="492.0127" y="115.1074">System wyświetla błędy w danych</text><rect fill="#F1F1F1" height="33.9688" rx="12.5" ry="12.5" style="stroke:#181818;stroke-width:0.5;" width="287.6035" x="131.9717" y="223.3364"/><text fill="#000000" font-family="sans-serif" font-size="12" lengthAdjust="spacing" textLength="267.6035" x="141.9717" y="244.4751">System wyświetla podsumowanie rezerwacji</text><polygon fill="#F1F1F1" points="228.4084,277.3052,323.1384,277.3052,335.1384,289.3052,323.1384,301.3052,228.4084,301.3052,216.4084,289.3052,228.4084,277.3052" style="stroke:#181818;stroke-width:0.5;"/><text fill="#000000" font-family="sans-serif" font-size="11" lengthAdjust="spacing" textLength="94.73" x="228.4084" y="293.1133">Klient akceptuje?</text><text fill="#000000" font-family="sans-serif" font-size="11" lengthAdjust="spacing" textLength="17.4238" x="198.9846" y="286.7109">tak</text><text fill="#000000" font-family="sans-serif" font-size="11" lengthAdjust="spacing" textLength="16.7954" x="335.1384" y="286.7109">nie</text><rect fill="#F1F1F1" height="33.9688" rx="12.5" ry="12.5" style="stroke:#181818;stroke-width:0.5;" width="284.0938" x="11" y="311.3052"/><text fill="#000000" font-family="sans-serif" font-size="12" lengthAdjust="spacing" textLength="264.0938" x="21" y="332.4438">System zapisuje rezerwację w bazie danych</text><rect fill="#F1F1F1" height="33.9688" rx="12.5" ry="12.5" style="stroke:#181818;stroke-width:0.5;" width="253.8418" x="26.126" y="365.2739"/><text fill="#000000" font-family="sans-serif" font-size="12" lengthAdjust="spacing" textLength="233.8418" x="36.126" y="386.4126">System wysyła potwierdzenie na email</text><rect fill="#F1F1F1" height="33.9688" rx="12.5" ry="12.5" style="stroke:#181818;stroke-width:0.5;" width="250.3496" x="27.8721" y="419.2427"/><text fill="#000000" font-family="sans-serif" font-size="12" lengthAdjust="spacing" textLength="230.3496" x="37.8721" y="440.3813">System aktualizuje dostępność pokoju</text><rect fill="#F1F1F1" height="33.9688" rx="12.5" ry="12.5" style="stroke:#181818;stroke-width:0.5;" width="166.8125" x="315.0938" y="311.3052"/><text fill="#000000" font-family="sans-serif" font-size="12" lengthAdjust="spacing" textLength="146.8125" x="325.0938" y="332.4438">Anuluj proces rezerwacji</text><polygon fill="#F1F1F1" points="275.7734,459.2114,287.7734,471.2114,275.7734,483.2114,263.7734,471.2114,275.7734,459.2114" style="stroke:#181818;stroke-width:0.5;"/><ellipse cx="275.7734" cy="514.2114" fill="#FFFFFF" fill-opacity="0.00000" rx="11" ry="11" style="stroke:#222222;stroke-width:1;"/><ellipse cx="275.7734" cy="514.2114" fill="#222222" rx="6" ry="6" style="stroke:#222222;stroke-width:1;"/><line style="stroke:#181818;stroke-width:1;" x1="275.7734" x2="275.7734" y1="83.9688" y2="157.9375"/><polygon fill="#181818" points="271.7734,147.9375,275.7734,157.9375,279.7734,147.9375,275.7734,151.9375" style="stroke:#181818;stroke-width:1;"/><line style="stroke:#181818;stroke-width:1;" x1="378.3704" x2="594.9736" y1="169.9375" y2="169.9375"/><line style="stroke:#181818;stroke-width:1;" x1="594.9736" x2="594.9736" y1="127.9375" y2="169.9375"/><polygon fill="#181818" points="590.9736,137.9375,594.9736,127.9375,598.9736,137.9375,594.9736,133.9375" style="stroke:#181818;stroke-width:1;"/><line style="stroke:#181818;stroke-width:1;" x1="594.9736" x2="594.9736" y1="66.9844" y2="93.9688"/><line style="stroke:#181818;stroke-width:1;" x1="594.9736" x2="458.0127" y1="66.9844" y2="66.9844"/><polygon fill="#181818" points="468.0127,62.9844,458.0127,66.9844,468.0127,70.9844,464.0127,66.9844" style="stroke:#181818;stroke-width:1;"/><line style="stroke:#181818;stroke-width:1;" x1="275.7734" x2="275.7734" y1="30" y2="50"/><polygon fill="#181818" points="271.7734,40,275.7734,50,279.7734,40,275.7734,44" style="stroke:#181818;stroke-width:1;"/><line style="stroke:#181818;stroke-width:1;" x1="275.7734" x2="275.7734" y1="181.9375" y2="223.3364"/><polygon fill="#181818" points="271.7734,213.3364,275.7734,223.3364,279.7734,213.3364,275.7734,217.3364" style="stroke:#181818;stroke-width:1;"/><text fill="#000000" font-family="sans-serif" font-size="11" lengthAdjust="spacing" textLength="17.4238" x="279.7734" y="203.2422">tak</text><line style="stroke:#181818;stroke-width:1;" x1="153.0469" x2="153.0469" y1="345.2739" y2="365.2739"/><polygon fill="#181818" points="149.0469,355.2739,153.0469,365.2739,157.0469,355.2739,153.0469,359.2739" style="stroke:#181818;stroke-width:1;"/><line style="stroke:#181818;stroke-width:1;" x1="153.0469" x2="153.0469" y1="399.2427" y2="419.2427"/><polygon fill="#181818" points="149.0469,409.2427,153.0469,419.2427,157.0469,409.2427,153.0469,413.2427" style="stroke:#181818;stroke-width:1;"/><line style="stroke:#181818;stroke-width:1;" x1="216.4084" x2="153.0469" y1="289.3052" y2="289.3052"/><line style="stroke:#181818;stroke-width:1;" x1="153.0469" x2="153.0469" y1="289.3052" y2="311.3052"/><polygon fill="#181818" points="149.0469,301.3052,153.0469,311.3052,157.0469,301.3052,153.0469,305.3052" style="stroke:#181818;stroke-width:1;"/><line style="stroke:#181818;stroke-width:1;" x1="335.1384" x2="398.5" y1="289.3052" y2="289.3052"/><line style="stroke:#181818;stroke-width:1;" x1="398.5" x2="398.5" y1="289.3052" y2="311.3052"/><polygon fill="#181818" points="394.5,301.3052,398.5,311.3052,402.5,301.3052,398.5,305.3052" style="stroke:#181818;stroke-width:1;"/><line style="stroke:#181818;stroke-width:1;" x1="153.0469" x2="153.0469" y1="453.2114" y2="471.2114"/><line style="stroke:#181818;stroke-width:1;" x1="153.0469" x2="263.7734" y1="471.2114" y2="471.2114"/><polygon fill="#181818" points="253.7734,467.2114,263.7734,471.2114,253.7734,475.2114,257.7734,471.2114" style="stroke:#181818;stroke-width:1;"/><line style="stroke:#181818;stroke-width:1;" x1="398.5" x2="398.5" y1="345.2739" y2="471.2114"/><line style="stroke:#181818;stroke-width:1;" x1="398.5" x2="287.7734" y1="471.2114" y2="471.2114"/><polygon fill="#181818" points="297.7734,467.2114,287.7734,471.2114,297.7734,475.2114,293.7734,471.2114" style="stroke:#181818;stroke-width:1;"/><line style="stroke:#181818;stroke-width:1;" x1="275.7734" x2="275.7734" y1="257.3052" y2="277.3052"/><polygon fill="#181818" points="271.7734,267.3052,275.7734,277.3052,279.7734,267.3052,275.7734,271.3052" style="stroke:#181818;stroke-width:1;"/><line style="stroke:#181818;stroke-width:1;" x1="275.7734" x2="275.7734" y1="483.2114" y2="503.2114"/><polygon fill="#181818" points="271.7734,493.2114,275.7734,503.2114,279.7734,493.2114,275.7734,497.2114" style="stroke:#181818;stroke-width:1;"/><!--SRC=[RP11QiCm44NtFiKiRMWla41BeRjk2Zt1s9wGiHr9I2E4lCocPmWvHezG-ruTbQPfeBkH-FF_VnC4lLGLU7A40fkNYSa8fDmoUGHdny-FuGvwbAoFDai4rg77WVJJ4DXWMvjeMm50YzsOqFUmUSj1wA0swpanoOJGhiVbr6T8PIrt- -rlPjhpH50_5pTddSUa0yFhTpJqDiXoSYOtm05gmzHKSFyWE6wrzZz1MYx4WqseKesOoIVi1Yvgta7z0uXZHqxYG8yDo9uCrEhO58YBvOoEWmgk7ij9sxSuCrqPu4-5aDTZoHTjulkPIW63G0VawKQAeqISU2xk5pwxdfVtScyxH1NJ5EX2gujF9avn0ETjH-662iZql5Eu8DPz0G00]--></g></svg>