<svg xmlns="http://www.w3.org/2000/svg" xmlns:xlink="http://www.w3.org/1999/xlink" contentStyleType="text/css" data-diagram-type="ACTIVITY" height="629px" preserveAspectRatio="none" style="width:537px;height:629px;background:#FFFFFF;" version="1.1" viewBox="0 0 537 629" width="537px" zoomAndPan="magnify"><title>Diagram Aktywno&#347;ci Zmiany Rezerwacji</title><defs/><g><text fill="#000000" font-family="sans-serif" font-size="14" font-weight="bold" lengthAdjust="spacing" textLength="314.542" x="109.8608" y="32.9951">Diagram Aktywno&#347;ci Zmiany Rezerwacji</text><ellipse cx="268.7378" cy="57.2969" fill="#222222" rx="10" ry="10" style="stroke:#222222;stroke-width:1;"/><rect fill="#F1F1F1" height="33.9688" rx="12.5" ry="12.5" style="stroke:#181818;stroke-width:0.5;" width="198.3301" x="169.5728" y="195.2344"/><text fill="#000000" font-family="sans-serif" font-size="12" lengthAdjust="spacing" textLength="178.3301" x="179.5728" y="216.373">System sprawdza dost&#281;pno&#347;&#263;</text><rect fill="#F1F1F1" height="33.9688" rx="12.5" ry="12.5" style="stroke:#181818;stroke-width:0.5;" width="230.9023" x="153.2866" y="141.2656"/><text fill="#000000" font-family="sans-serif" font-size="12" lengthAdjust="spacing" textLength="210.9023" x="163.2866" y="162.4043">Klient wybiera nowe daty lub pok&#243;j</text><polygon fill="#F1F1F1" points="223.8167,249.2031,313.6589,249.2031,325.6589,261.2031,313.6589,273.2031,223.8167,273.2031,211.8167,261.2031,223.8167,249.2031" style="stroke:#181818;stroke-width:0.5;"/><text fill="#000000" font-family="sans-serif" font-size="11" lengthAdjust="spacing" textLength="89.8423" x="223.8167" y="265.0112">Pok&#243;j dost&#281;pny?</text><text fill="#000000" font-family="sans-serif" font-size="11" lengthAdjust="spacing" textLength="16.7954" x="325.6589" y="258.6089">nie</text><rect fill="#F1F1F1" height="33.9688" rx="12.5" ry="12.5" style="stroke:#181818;stroke-width:0.5;" width="269.6211" x="133.9272" y="314.6021"/><text fill="#000000" font-family="sans-serif" font-size="12" lengthAdjust="spacing" textLength="249.6211" x="143.9272" y="335.7407">System wy&#347;wietla podsumowanie zmiany</text><polygon fill="#F1F1F1" points="199.6118,368.5708,337.8638,368.5708,349.8638,380.5708,337.8638,392.5708,199.6118,392.5708,187.6118,380.5708,199.6118,368.5708" style="stroke:#181818;stroke-width:0.5;"/><text fill="#000000" font-family="sans-serif" font-size="11" lengthAdjust="spacing" textLength="138.252" x="199.6118" y="384.3789">Klient akceptuje zmian&#281;?</text><text fill="#000000" font-family="sans-serif" font-size="11" lengthAdjust="spacing" textLength="17.4238" x="170.188" y="377.9766">tak</text><text fill="#000000" font-family="sans-serif" font-size="11" lengthAdjust="spacing" textLength="16.7954" x="349.8638" y="377.9766">nie</text><rect fill="#F1F1F1" height="33.9688" rx="12.5" ry="12.5" style="stroke:#181818;stroke-width:0.5;" width="262.3438" x="11" y="402.5708"/><text fill="#000000" font-family="sans-serif" font-size="12" lengthAdjust="spacing" textLength="242.3438" x="21" y="423.7095">System zapisuje zmian&#281; w bazie danych</text><rect fill="#F1F1F1" height="33.9688" rx="12.5" ry="12.5" style="stroke:#181818;stroke-width:0.5;" width="216.2188" x="34.0625" y="456.5396"/><text fill="#000000" font-family="sans-serif" font-size="12" lengthAdjust="spacing" textLength="196.2188" x="44.0625" y="477.6782">System wy&#347;wietla potwierdzenie</text><rect fill="#F1F1F1" height="33.9688" rx="12.5" ry="12.5" style="stroke:#181818;stroke-width:0.5;" width="203.9199" x="293.3438" y="402.5708"/><text fill="#000000" font-family="sans-serif" font-size="12" lengthAdjust="spacing" textLength="183.9199" x="303.3438" y="423.7095">System anuluje proces zmiany</text><polygon fill="#F1F1F1" points="268.7378,496.5083,280.7378,508.5083,268.7378,520.5083,256.7378,508.5083,268.7378,496.5083" style="stroke:#181818;stroke-width:0.5;"/><rect fill="#F1F1F1" height="33.9688" rx="12.5" ry="12.5" style="stroke:#181818;stroke-width:0.5;" width="240.7813" x="148.3472" y="87.2969"/><text fill="#000000" font-family="sans-serif" font-size="12" lengthAdjust="spacing" textLength="220.7813" x="158.3472" y="108.4355">Klient wybiera rezerwacj&#281; do zmiany</text><polygon fill="#F1F1F1" points="185.7302,540.5083,351.7454,540.5083,363.7454,552.5083,351.7454,564.5083,185.7302,564.5083,173.7302,552.5083,185.7302,540.5083" style="stroke:#181818;stroke-width:0.5;"/><text fill="#000000" font-family="sans-serif" font-size="11" lengthAdjust="spacing" textLength="16.7954" x="272.7378" y="574.7188">nie</text><text fill="#000000" font-family="sans-serif" font-size="11" lengthAdjust="spacing" textLength="166.0151" x="185.7302" y="556.3164">Czy klient chce kontynuowa&#263;?</text><text fill="#000000" font-family="sans-serif" font-size="11" lengthAdjust="spacing" textLength="17.4238" x="363.7454" y="549.9141">tak</text><ellipse cx="268.7378" cy="607.2188" fill="#FFFFFF" fill-opacity="0.00000" rx="11" ry="11" style="stroke:#222222;stroke-width:1;"/><ellipse cx="268.7378" cy="607.2188" fill="#222222" rx="6" ry="6" style="stroke:#222222;stroke-width:1;"/><line style="stroke:#181818;stroke-width:1;" x1="268.7378" x2="268.7378" y1="175.2344" y2="195.2344"/><polygon fill="#181818" points="264.7378,185.2344,268.7378,195.2344,272.7378,185.2344,268.7378,189.2344" style="stroke:#181818;stroke-width:1;"/><line style="stroke:#181818;stroke-width:1;" x1="325.6589" x2="396.189" y1="261.2031" y2="261.2031"/><polygon fill="#181818" points="392.189,219.7266,396.189,209.7266,400.189,219.7266,396.189,215.7266" style="stroke:#181818;stroke-width:1;"/><line style="stroke:#181818;stroke-width:1;" x1="396.189" x2="396.189" y1="158.25" y2="261.2031"/><line style="stroke:#181818;stroke-width:1;" x1="396.189" x2="384.189" y1="158.25" y2="158.25"/><polygon fill="#181818" points="394.189,154.25,384.189,158.25,394.189,162.25,390.189,158.25" style="stroke:#181818;stroke-width:1;"/><line style="stroke:#181818;stroke-width:1;" x1="268.7378" x2="268.7378" y1="229.2031" y2="249.2031"/><polygon fill="#181818" points="264.7378,239.2031,268.7378,249.2031,272.7378,239.2031,268.7378,243.2031" style="stroke:#181818;stroke-width:1;"/><line style="stroke:#181818;stroke-width:1;" x1="268.7378" x2="268.7378" y1="273.2031" y2="314.6021"/><polygon fill="#181818" points="264.7378,304.6021,268.7378,314.6021,272.7378,304.6021,268.7378,308.6021" style="stroke:#181818;stroke-width:1;"/><text fill="#000000" font-family="sans-serif" font-size="11" lengthAdjust="spacing" textLength="17.4238" x="272.7378" y="294.5078">tak</text><line style="stroke:#181818;stroke-width:1;" x1="142.1719" x2="142.1719" y1="436.5396" y2="456.5396"/><polygon fill="#181818" points="138.1719,446.5396,142.1719,456.5396,146.1719,446.5396,142.1719,450.5396" style="stroke:#181818;stroke-width:1;"/><line style="stroke:#181818;stroke-width:1;" x1="187.6118" x2="142.1719" y1="380.5708" y2="380.5708"/><line style="stroke:#181818;stroke-width:1;" x1="142.1719" x2="142.1719" y1="380.5708" y2="402.5708"/><polygon fill="#181818" points="138.1719,392.5708,142.1719,402.5708,146.1719,392.5708,142.1719,396.5708" style="stroke:#181818;stroke-width:1;"/><line style="stroke:#181818;stroke-width:1;" x1="349.8638" x2="395.3037" y1="380.5708" y2="380.5708"/><line style="stroke:#181818;stroke-width:1;" x1="395.3037" x2="395.3037" y1="380.5708" y2="402.5708"/><polygon fill="#181818" points="391.3037,392.5708,395.3037,402.5708,399.3037,392.5708,395.3037,396.5708" style="stroke:#181818;stroke-width:1;"/><line style="stroke:#181818;stroke-width:1;" x1="142.1719" x2="142.1719" y1="490.5083" y2="508.5083"/><line style="stroke:#181818;stroke-width:1;" x1="142.1719" x2="256.7378" y1="508.5083" y2="508.5083"/><polygon fill="#181818" points="246.7378,504.5083,256.7378,508.5083,246.7378,512.5083,250.7378,508.5083" style="stroke:#181818;stroke-width:1;"/><line style="stroke:#181818;stroke-width:1;" x1="395.3037" x2="395.3037" y1="436.5396" y2="508.5083"/><line style="stroke:#181818;stroke-width:1;" x1="395.3037" x2="280.7378" y1="508.5083" y2="508.5083"/><polygon fill="#181818" points="290.7378,504.5083,280.7378,508.5083,290.7378,512.5083,286.7378,508.5083" style="stroke:#181818;stroke-width:1;"/><line style="stroke:#181818;stroke-width:1;" x1="268.7378" x2="268.7378" y1="348.5708" y2="368.5708"/><polygon fill="#181818" points="264.7378,358.5708,268.7378,368.5708,272.7378,358.5708,268.7378,362.5708" style="stroke:#181818;stroke-width:1;"/><line style="stroke:#181818;stroke-width:1;" x1="268.7378" x2="268.7378" y1="121.2656" y2="141.2656"/><polygon fill="#181818" points="264.7378,131.2656,268.7378,141.2656,272.7378,131.2656,268.7378,135.2656" style="stroke:#181818;stroke-width:1;"/><line style="stroke:#181818;stroke-width:1;" x1="363.7454" x2="511.2637" y1="552.5083" y2="552.5083"/><polygon fill="#181818" points="507.2637,322.1919,511.2637,312.1919,515.2637,322.1919,511.2637,318.1919" style="stroke:#181818;stroke-width:1;"/><line style="stroke:#181818;stroke-width:1;" x1="511.2637" x2="511.2637" y1="104.2813" y2="552.5083"/><line style="stroke:#181818;stroke-width:1;" x1="511.2637" x2="389.1284" y1="104.2813" y2="104.2813"/><polygon fill="#181818" points="399.1284,100.2813,389.1284,104.2813,399.1284,108.2813,395.1284,104.2813" style="stroke:#181818;stroke-width:1;"/><line style="stroke:#181818;stroke-width:1;" x1="268.7378" x2="268.7378" y1="520.5083" y2="540.5083"/><polygon fill="#181818" points="264.7378,530.5083,268.7378,540.5083,272.7378,530.5083,268.7378,534.5083" style="stroke:#181818;stroke-width:1;"/><line style="stroke:#181818;stroke-width:1;" x1="268.7378" x2="268.7378" y1="67.2969" y2="87.2969"/><polygon fill="#181818" points="264.7378,77.2969,268.7378,87.2969,272.7378,77.2969,268.7378,81.2969" style="stroke:#181818;stroke-width:1;"/><line style="stroke:#181818;stroke-width:1;" x1="268.7378" x2="268.7378" y1="564.5083" y2="596.2188"/><polygon fill="#181818" points="264.7378,586.2188,268.7378,596.2188,272.7378,586.2188,268.7378,590.2188" style="stroke:#181818;stroke-width:1;"/><!--SRC=[TP51JiCm44NtESKiqmKNQ2KGWXqR13jsKsTAfabiovx8iY_GCrGz1aSWlHTE6zfGYPKjwysV_x-5fILuPlnqsC5Z8p5eSpmeXe-EKKTueqGkeDfoKO0NT99FHvPGOFdICcc14DTC3lFpn0vxg0oaayAg0FXlG9j0KA54QFirMDDyVsrFFC3oFNgX3hnr6Ag4MT3BiBUZks4t5mqrvmZbwsdwWiM71R27KZCjHlZkNh2vqGxnU0XCqcBUNVc-Cm4pVp5-fda3vUGR6qLM-ks43FkyH6hIK6RnnHc_oYUqx6Sm15XZuZ6nZgfUtV9_x4Y-kIfHzZE1r7gwvfaFekxRSOzrHf6VzvwdTCMRulfdKrjFAK9p3gLgHT0OBL7tkO1XDpKtHie_9ByxlHZx0m00]--></g></svg>