<svg xmlns="http://www.w3.org/2000/svg" xmlns:xlink="http://www.w3.org/1999/xlink" contentStyleType="text/css" data-diagram-type="CLASS" height="316px" preserveAspectRatio="none" style="width:312px;height:316px;background:#FFFFFF;" version="1.1" viewBox="0 0 312 316" width="312px" zoomAndPan="magnify"><defs/><g><!--class Dostawca--><g id="elem_Dostawca"><rect codeLine="1" fill="#F1F1F1" height="129.4844" id="Dostawca" rx="2.5" ry="2.5" style="stroke:#181818;stroke-width:0.5;" width="142.293" x="7" y="7"/><ellipse cx="40.8363" cy="23" fill="#ADD1B2" rx="11" ry="11" style="stroke:#181818;stroke-width:1;"/><path d="M43.805,28.6406 Q43.2269,28.9375 42.5863,29.0781 Q41.9457,29.2344 41.2425,29.2344 Q38.7425,29.2344 37.4144,27.5938 Q36.1019,25.9375 36.1019,22.8125 Q36.1019,19.6875 37.4144,18.0313 Q38.7425,16.375 41.2425,16.375 Q41.9457,16.375 42.5863,16.5313 Q43.2425,16.6875 43.805,16.9844 L43.805,19.7031 Q43.18,19.125 42.5863,18.8594 Q41.9925,18.5781 41.3675,18.5781 Q40.0238,18.5781 39.3363,19.6563 Q38.6488,20.7188 38.6488,22.8125 Q38.6488,24.9063 39.3363,25.9844 Q40.0238,27.0469 41.3675,27.0469 Q41.9925,27.0469 42.5863,26.7813 Q43.18,26.5 43.805,25.9219 L43.805,28.6406 Z " fill="#000000"/><text fill="#000000" font-family="sans-serif" font-size="14" lengthAdjust="spacing" textLength="68.4346" x="59.0221" y="27.8467">Dostawca</text><line style="stroke:#181818;stroke-width:0.5;" x1="8" x2="148.293" y1="39" y2="39"/><ellipse cx="18" cy="52.6484" fill="#FFFFFF" fill-opacity="0.00000" rx="3" ry="3" style="stroke:#038048;stroke-width:1;"/><text fill="#000000" font-family="sans-serif" font-size="14" lengthAdjust="spacing" textLength="40.1953" x="27" y="55.9951">id: int</text><ellipse cx="18" cy="68.9453" fill="#FFFFFF" fill-opacity="0.00000" rx="3" ry="3" style="stroke:#038048;stroke-width:1;"/><text fill="#000000" font-family="sans-serif" font-size="14" lengthAdjust="spacing" textLength="94.1855" x="27" y="72.292">nazwa: string</text><ellipse cx="18" cy="85.2422" fill="#FFFFFF" fill-opacity="0.00000" rx="3" ry="3" style="stroke:#038048;stroke-width:1;"/><text fill="#000000" font-family="sans-serif" font-size="14" lengthAdjust="spacing" textLength="116.293" x="27" y="88.5889">umowa_od: date</text><ellipse cx="18" cy="101.5391" fill="#FFFFFF" fill-opacity="0.00000" rx="3" ry="3" style="stroke:#038048;stroke-width:1;"/><text fill="#000000" font-family="sans-serif" font-size="14" lengthAdjust="spacing" textLength="116.293" x="27" y="104.8857">umowa_do: date</text><ellipse cx="18" cy="117.8359" fill="#FFFFFF" fill-opacity="0.00000" rx="3" ry="3" style="stroke:#038048;stroke-width:1;"/><text fill="#000000" font-family="sans-serif" font-size="14" lengthAdjust="spacing" textLength="104.624" x="27" y="121.1826">provision: float</text><line style="stroke:#181818;stroke-width:0.5;" x1="8" x2="148.293" y1="128.4844" y2="128.4844"/></g><!--class Cennik--><g id="elem_Cennik"><rect codeLine="9" fill="#F1F1F1" height="113.1875" id="Cennik" rx="2.5" ry="2.5" style="stroke:#181818;stroke-width:0.5;" width="212.2109" x="55.04" y="196.48"/><ellipse cx="132.8296" cy="212.48" fill="#ADD1B2" rx="11" ry="11" style="stroke:#181818;stroke-width:1;"/><path d="M135.7983,218.1206 Q135.2202,218.4175 134.5796,218.5581 Q133.9389,218.7144 133.2358,218.7144 Q130.7358,218.7144 129.4077,217.0738 Q128.0952,215.4175 128.0952,212.2925 Q128.0952,209.1675 129.4077,207.5113 Q130.7358,205.855 133.2358,205.855 Q133.9389,205.855 134.5796,206.0113 Q135.2358,206.1675 135.7983,206.4644 L135.7983,209.1831 Q135.1733,208.605 134.5796,208.3394 Q133.9858,208.0581 133.3608,208.0581 Q132.0171,208.0581 131.3296,209.1363 Q130.6421,210.1988 130.6421,212.2925 Q130.6421,214.3863 131.3296,215.4644 Q132.0171,216.5269 133.3608,216.5269 Q133.9858,216.5269 134.5796,216.2613 Q135.1733,215.98 135.7983,215.4019 L135.7983,218.1206 Z " fill="#000000"/><text fill="#000000" font-family="sans-serif" font-size="14" lengthAdjust="spacing" textLength="48.1318" x="153.3296" y="217.3267">Cennik</text><line style="stroke:#181818;stroke-width:0.5;" x1="56.04" x2="266.2509" y1="228.48" y2="228.48"/><ellipse cx="66.04" cy="242.1284" fill="#FFFFFF" fill-opacity="0.00000" rx="3" ry="3" style="stroke:#038048;stroke-width:1;"/><text fill="#000000" font-family="sans-serif" font-size="14" lengthAdjust="spacing" textLength="40.1953" x="75.04" y="245.4751">id: int</text><ellipse cx="66.04" cy="258.4253" fill="#FFFFFF" fill-opacity="0.00000" rx="3" ry="3" style="stroke:#038048;stroke-width:1;"/><text fill="#000000" font-family="sans-serif" font-size="14" lengthAdjust="spacing" textLength="134.791" x="75.04" y="261.772">cena_bazowa: float</text><ellipse cx="66.04" cy="274.7222" fill="#FFFFFF" fill-opacity="0.00000" rx="3" ry="3" style="stroke:#038048;stroke-width:1;"/><text fill="#000000" font-family="sans-serif" font-size="14" lengthAdjust="spacing" textLength="157.9102" x="75.04" y="278.0689">cena_ostateczna: float</text><ellipse cx="66.04" cy="291.0191" fill="#FFFFFF" fill-opacity="0.00000" rx="3" ry="3" style="stroke:#038048;stroke-width:1;"/><text fill="#000000" font-family="sans-serif" font-size="14" lengthAdjust="spacing" textLength="186.2109" x="75.04" y="294.3657">data_obowi&#261;zywania: date</text><line style="stroke:#181818;stroke-width:0.5;" x1="56.04" x2="266.2509" y1="301.6675" y2="301.6675"/></g><!--class Pok?j--><g id="elem_Pok&#243;j"><rect codeLine="16" fill="#F1F1F1" height="80.5938" id="Pok&#243;j" rx="2.5" ry="2.5" style="stroke:#181818;stroke-width:0.5;" width="121.1084" x="184.59" y="31.44"/><ellipse cx="222.7821" cy="47.44" fill="#ADD1B2" rx="11" ry="11" style="stroke:#181818;stroke-width:1;"/><path d="M225.7509,53.0806 Q225.1728,53.3775 224.5321,53.5181 Q223.8915,53.6744 223.1884,53.6744 Q220.6884,53.6744 219.3603,52.0338 Q218.0478,50.3775 218.0478,47.2525 Q218.0478,44.1275 219.3603,42.4713 Q220.6884,40.815 223.1884,40.815 Q223.8915,40.815 224.5321,40.9713 Q225.1884,41.1275 225.7509,41.4244 L225.7509,44.1431 Q225.1259,43.565 224.5321,43.2994 Q223.9384,43.0181 223.3134,43.0181 Q221.9696,43.0181 221.2821,44.0963 Q220.5946,45.1588 220.5946,47.2525 Q220.5946,49.3463 221.2821,50.4244 Q221.9696,51.4869 223.3134,51.4869 Q223.9384,51.4869 224.5321,51.2213 Q225.1259,50.94 225.7509,50.3619 L225.7509,53.0806 Z " fill="#000000"/><text fill="#000000" font-family="sans-serif" font-size="14" lengthAdjust="spacing" textLength="37.5703" x="241.9359" y="52.2867">Pok&#243;j</text><line style="stroke:#181818;stroke-width:0.5;" x1="185.59" x2="304.6984" y1="63.44" y2="63.44"/><ellipse cx="195.59" cy="77.0884" fill="#FFFFFF" fill-opacity="0.00000" rx="3" ry="3" style="stroke:#038048;stroke-width:1;"/><text fill="#000000" font-family="sans-serif" font-size="14" lengthAdjust="spacing" textLength="40.1953" x="204.59" y="80.4351">id: int</text><ellipse cx="195.59" cy="93.3853" fill="#FFFFFF" fill-opacity="0.00000" rx="3" ry="3" style="stroke:#038048;stroke-width:1;"/><text fill="#000000" font-family="sans-serif" font-size="14" lengthAdjust="spacing" textLength="95.1084" x="204.59" y="96.732">numer: string</text><line style="stroke:#181818;stroke-width:0.5;" x1="185.59" x2="304.6984" y1="104.0338" y2="104.0338"/></g><!--reverse link Dostawca to Cennik--><g id="link_Dostawca_Cennik"><path codeLine="21" d="M112.9191,147.8707 C121.8491,167.1707 126.53,177.29 135.2,196.01 " fill="#FFFFFF" fill-opacity="0.00000" id="Dostawca-backto-Cennik" style="stroke:#181818;stroke-width:1;"/><polygon fill="#181818" points="107.88,136.98,106.7693,144.1051,112.9191,147.8707,114.0298,140.7457,107.88,136.98" style="stroke:#181818;stroke-width:1;"/><text fill="#000000" font-family="sans-serif" font-size="13" lengthAdjust="spacing" textLength="8.271" x="102.5477" y="156.5548">1</text><text fill="#000000" font-family="sans-serif" font-size="13" lengthAdjust="spacing" textLength="23.0356" x="107.6385" y="185.2163">0..*</text></g><!--reverse link Pok?j to Cennik--><g id="link_Pok&#243;j_Cennik"><path codeLine="22" d="M221.6204,122.9672 C210.0804,147.6072 200.12,168.88 187.35,196.14 " fill="#FFFFFF" fill-opacity="0.00000" id="Pok&#243;j-backto-Cennik" style="stroke:#181818;stroke-width:1;"/><polygon fill="#181818" points="226.71,112.1,220.5428,115.8371,221.6204,122.9672,227.7876,119.2301,226.71,112.1" style="stroke:#181818;stroke-width:1;"/><text fill="#000000" font-family="sans-serif" font-size="13" lengthAdjust="spacing" textLength="8.271" x="215.0168" y="132.1052">1</text><text fill="#000000" font-family="sans-serif" font-size="13" lengthAdjust="spacing" textLength="23.0356" x="166.1443" y="185.3621">0..*</text></g><!--SRC=[RP113e8m44NtFKN34WFHBLizW3SWGwbc16OCBJRMkFH47a4FPX62cD3T_3ypxqzL3SR87HiBJe6y2HdU2ijC8jcX8F0ECcbiYtGSfAvX1pc7hXAidcibpxLponSqo9J9GyrWnLq8zILkDH5MYpob2V82FFVKOUodzq6jLfx-lO0CNi4Etmz_TK08Ouw9kEVgzJmjNzWrkfqk31FJVqIRICP98gDrciRHc5gCgnRD3m00]--></g></svg>