<svg xmlns="http://www.w3.org/2000/svg" xmlns:xlink="http://www.w3.org/1999/xlink" contentStyleType="text/css" data-diagram-type="CLASS" height="398px" preserveAspectRatio="none" style="width:516px;height:398px;background:#FFFFFF;" version="1.1" viewBox="0 0 516 398" width="516px" zoomAndPan="magnify"><defs/><g><!--class U?ytkownik--><g id="elem_Użytkownik"><rect codeLine="1" fill="#F1F1F1" height="129.4844" id="Użytkownik" rx="2.5" ry="2.5" style="stroke:#181818;stroke-width:0.5;" width="146.7637" x="7" y="15.15"/><ellipse cx="37.4802" cy="31.15" fill="#ADD1B2" rx="11" ry="11" style="stroke:#181818;stroke-width:1;"/><path d="M40.4489,36.7906 Q39.8708,37.0875 39.2302,37.2281 Q38.5896,37.3844 37.8864,37.3844 Q35.3864,37.3844 34.0583,35.7438 Q32.7458,34.0875 32.7458,30.9625 Q32.7458,27.8375 34.0583,26.1813 Q35.3864,24.525 37.8864,24.525 Q38.5896,24.525 39.2302,24.6813 Q39.8864,24.8375 40.4489,25.1344 L40.4489,27.8531 Q39.8239,27.275 39.2302,27.0094 Q38.6364,26.7281 38.0114,26.7281 Q36.6677,26.7281 35.9802,27.8063 Q35.2927,28.8688 35.2927,30.9625 Q35.2927,33.0563 35.9802,34.1344 Q36.6677,35.1969 38.0114,35.1969 Q38.6364,35.1969 39.2302,34.9313 Q39.8239,34.65 40.4489,34.0719 L40.4489,36.7906 Z " fill="#000000"/><text fill="#000000" font-family="sans-serif" font-size="14" lengthAdjust="spacing" textLength="80.3633" x="54.9202" y="35.9967">Użytkownik</text><line style="stroke:#181818;stroke-width:0.5;" x1="8" x2="152.7637" y1="47.15" y2="47.15"/><text fill="#000000" font-family="sans-serif" font-size="14" lengthAdjust="spacing" textLength="134.7637" x="13" y="64.1451">id_uzytkownika: int</text><text fill="#000000" font-family="sans-serif" font-size="14" lengthAdjust="spacing" textLength="83.46" x="13" y="80.442">login: string</text><text fill="#000000" font-family="sans-serif" font-size="14" lengthAdjust="spacing" textLength="86.5566" x="13" y="96.7389">haslo: string</text><text fill="#000000" font-family="sans-serif" font-size="14" lengthAdjust="spacing" textLength="87.9648" x="13" y="113.0357">email: string</text><text fill="#000000" font-family="sans-serif" font-size="14" lengthAdjust="spacing" textLength="76.1455" x="13" y="129.3326">rola: string</text><line style="stroke:#181818;stroke-width:0.5;" x1="8" x2="152.7637" y1="136.6344" y2="136.6344"/></g><!--class Pracownik--><g id="elem_Pracownik"><rect codeLine="9" fill="#F1F1F1" height="178.375" id="Pracownik" rx="2.5" ry="2.5" style="stroke:#181818;stroke-width:0.5;" width="139.5791" x="10.59" y="212.78"/><ellipse cx="41.8884" cy="228.78" fill="#ADD1B2" rx="11" ry="11" style="stroke:#181818;stroke-width:1;"/><path d="M44.8572,234.4206 Q44.2791,234.7175 43.6384,234.8581 Q42.9978,235.0144 42.2947,235.0144 Q39.7947,235.0144 38.4666,233.3738 Q37.1541,231.7175 37.1541,228.5925 Q37.1541,225.4675 38.4666,223.8113 Q39.7947,222.155 42.2947,222.155 Q42.9978,222.155 43.6384,222.3113 Q44.2947,222.4675 44.8572,222.7644 L44.8572,225.4831 Q44.2322,224.905 43.6384,224.6394 Q43.0447,224.3581 42.4197,224.3581 Q41.0759,224.3581 40.3884,225.4363 Q39.7009,226.4988 39.7009,228.5925 Q39.7009,230.6863 40.3884,231.7644 Q41.0759,232.8269 42.4197,232.8269 Q43.0447,232.8269 43.6384,232.5613 Q44.2322,232.28 44.8572,231.7019 L44.8572,234.4206 Z " fill="#000000"/><text fill="#000000" font-family="sans-serif" font-size="14" lengthAdjust="spacing" textLength="71.3604" x="59.5103" y="233.6267">Pracownik</text><line style="stroke:#181818;stroke-width:0.5;" x1="11.59" x2="149.1691" y1="244.78" y2="244.78"/><text fill="#000000" font-family="sans-serif" font-size="14" lengthAdjust="spacing" textLength="127.5791" x="16.59" y="261.7751">id_pracownika: int</text><text fill="#000000" font-family="sans-serif" font-size="14" lengthAdjust="spacing" textLength="79.3857" x="16.59" y="278.072">imie: string</text><text fill="#000000" font-family="sans-serif" font-size="14" lengthAdjust="spacing" textLength="113.4629" x="16.59" y="294.3689">nazwisko: string</text><text fill="#000000" font-family="sans-serif" font-size="14" lengthAdjust="spacing" textLength="87.9648" x="16.59" y="310.6657">email: string</text><text fill="#000000" font-family="sans-serif" font-size="14" lengthAdjust="spacing" textLength="98.3281" x="16.59" y="326.9626">telefon: string</text><text fill="#000000" font-family="sans-serif" font-size="14" lengthAdjust="spacing" textLength="83.46" x="16.59" y="343.2595">login: string</text><text fill="#000000" font-family="sans-serif" font-size="14" lengthAdjust="spacing" textLength="86.5566" x="16.59" y="359.5564">haslo: string</text><text fill="#000000" font-family="sans-serif" font-size="14" lengthAdjust="spacing" textLength="76.1455" x="16.59" y="375.8532">rola: string</text><line style="stroke:#181818;stroke-width:0.5;" x1="11.59" x2="149.1691" y1="383.155" y2="383.155"/></g><!--class Go??--><g id="elem_Gość"><rect codeLine="20" fill="#F1F1F1" height="129.4844" id="Gość" rx="2.5" ry="2.5" style="stroke:#181818;stroke-width:0.5;" width="125.4629" x="188.65" y="15.15"/><ellipse cx="230.2259" cy="31.15" fill="#ADD1B2" rx="11" ry="11" style="stroke:#181818;stroke-width:1;"/><path d="M233.1947,36.7906 Q232.6166,37.0875 231.9759,37.2281 Q231.3353,37.3844 230.6322,37.3844 Q228.1322,37.3844 226.8041,35.7438 Q225.4916,34.0875 225.4916,30.9625 Q225.4916,27.8375 226.8041,26.1813 Q228.1322,24.525 230.6322,24.525 Q231.3353,24.525 231.9759,24.6813 Q232.6322,24.8375 233.1947,25.1344 L233.1947,27.8531 Q232.5697,27.275 231.9759,27.0094 Q231.3822,26.7281 230.7572,26.7281 Q229.4134,26.7281 228.7259,27.8063 Q228.0384,28.8688 228.0384,30.9625 Q228.0384,33.0563 228.7259,34.1344 Q229.4134,35.1969 230.7572,35.1969 Q231.3822,35.1969 231.9759,34.9313 Q232.5697,34.65 233.1947,34.0719 L233.1947,36.7906 Z " fill="#000000"/><text fill="#000000" font-family="sans-serif" font-size="14" lengthAdjust="spacing" textLength="34.4053" x="250.1317" y="35.9967">Gość</text><line style="stroke:#181818;stroke-width:0.5;" x1="189.65" x2="313.1129" y1="47.15" y2="47.15"/><text fill="#000000" font-family="sans-serif" font-size="14" lengthAdjust="spacing" textLength="94.6367" x="194.65" y="64.1451">id_klienta: int</text><text fill="#000000" font-family="sans-serif" font-size="14" lengthAdjust="spacing" textLength="79.3857" x="194.65" y="80.442">imie: string</text><text fill="#000000" font-family="sans-serif" font-size="14" lengthAdjust="spacing" textLength="113.4629" x="194.65" y="96.7389">nazwisko: string</text><text fill="#000000" font-family="sans-serif" font-size="14" lengthAdjust="spacing" textLength="87.9648" x="194.65" y="113.0357">email: string</text><text fill="#000000" font-family="sans-serif" font-size="14" lengthAdjust="spacing" textLength="98.3281" x="194.65" y="129.3326">telefon: string</text><line style="stroke:#181818;stroke-width:0.5;" x1="189.65" x2="313.1129" y1="136.6344" y2="136.6344"/></g><!--class Pok?j--><g id="elem_Pokój"><rect codeLine="28" fill="#F1F1F1" height="145.7813" id="Pokój" rx="2.5" ry="2.5" style="stroke:#181818;stroke-width:0.5;" width="160.9961" x="348.88" y="7"/><ellipse cx="406.3429" cy="23" fill="#ADD1B2" rx="11" ry="11" style="stroke:#181818;stroke-width:1;"/><path d="M409.3116,28.6406 Q408.7335,28.9375 408.0929,29.0781 Q407.4523,29.2344 406.7491,29.2344 Q404.2491,29.2344 402.921,27.5938 Q401.6085,25.9375 401.6085,22.8125 Q401.6085,19.6875 402.921,18.0313 Q404.2491,16.375 406.7491,16.375 Q407.4523,16.375 408.0929,16.5313 Q408.7491,16.6875 409.3116,16.9844 L409.3116,19.7031 Q408.6866,19.125 408.0929,18.8594 Q407.4991,18.5781 406.8741,18.5781 Q405.5304,18.5781 404.8429,19.6563 Q404.1554,20.7188 404.1554,22.8125 Q404.1554,24.9063 404.8429,25.9844 Q405.5304,27.0469 406.8741,27.0469 Q407.4991,27.0469 408.0929,26.7813 Q408.6866,26.5 409.3116,25.9219 L409.3116,28.6406 Z " fill="#000000"/><text fill="#000000" font-family="sans-serif" font-size="14" lengthAdjust="spacing" textLength="37.5703" x="426.8429" y="27.8467">Pokój</text><line style="stroke:#181818;stroke-width:0.5;" x1="349.88" x2="508.8761" y1="39" y2="39"/><text fill="#000000" font-family="sans-serif" font-size="14" lengthAdjust="spacing" textLength="94.083" x="354.88" y="55.9951">id_pokoju: int</text><text fill="#000000" font-family="sans-serif" font-size="14" lengthAdjust="spacing" textLength="148.9961" x="354.88" y="72.292">numer_pokoju: string</text><text fill="#000000" font-family="sans-serif" font-size="14" lengthAdjust="spacing" textLength="125.9043" x="354.88" y="88.5889">typ_pokoju: string</text><text fill="#000000" font-family="sans-serif" font-size="14" lengthAdjust="spacing" textLength="77.9912" x="354.88" y="104.8857">opis: string</text><text fill="#000000" font-family="sans-serif" font-size="14" lengthAdjust="spacing" textLength="98.123" x="354.88" y="121.1826">cena: decimal</text><text fill="#000000" font-family="sans-serif" font-size="14" lengthAdjust="spacing" textLength="130.0332" x="354.88" y="137.4795">dostepny: boolean</text><line style="stroke:#181818;stroke-width:0.5;" x1="349.88" x2="508.8761" y1="144.7813" y2="144.7813"/></g><!--class Rezerwacja--><g id="elem_Rezerwacja"><rect codeLine="37" fill="#F1F1F1" height="145.7813" id="Rezerwacja" rx="2.5" ry="2.5" style="stroke:#181818;stroke-width:0.5;" width="130.7881" x="274.99" y="229.08"/><ellipse cx="298.3304" cy="245.08" fill="#ADD1B2" rx="11" ry="11" style="stroke:#181818;stroke-width:1;"/><path d="M301.2991,250.7206 Q300.721,251.0175 300.0804,251.1581 Q299.4398,251.3144 298.7366,251.3144 Q296.2366,251.3144 294.9085,249.6738 Q293.596,248.0175 293.596,244.8925 Q293.596,241.7675 294.9085,240.1113 Q296.2366,238.455 298.7366,238.455 Q299.4398,238.455 300.0804,238.6113 Q300.7366,238.7675 301.2991,239.0644 L301.2991,241.7831 Q300.6741,241.205 300.0804,240.9394 Q299.4866,240.6581 298.8616,240.6581 Q297.5179,240.6581 296.8304,241.7363 Q296.1429,242.7988 296.1429,244.8925 Q296.1429,246.9863 296.8304,248.0644 Q297.5179,249.1269 298.8616,249.1269 Q299.4866,249.1269 300.0804,248.8613 Q300.6741,248.58 301.2991,248.0019 L301.2991,250.7206 Z " fill="#000000"/><text fill="#000000" font-family="sans-serif" font-size="14" lengthAdjust="spacing" textLength="80.2539" x="314.1838" y="249.9267">Rezerwacja</text><line style="stroke:#181818;stroke-width:0.5;" x1="275.99" x2="404.7781" y1="261.08" y2="261.08"/><text fill="#000000" font-family="sans-serif" font-size="14" lengthAdjust="spacing" textLength="118.7881" x="280.99" y="278.0751">id_rezerwacji: int</text><text fill="#000000" font-family="sans-serif" font-size="14" lengthAdjust="spacing" textLength="94.6367" x="280.99" y="294.372">id_klienta: int</text><text fill="#000000" font-family="sans-serif" font-size="14" lengthAdjust="spacing" textLength="94.083" x="280.99" y="310.6689">id_pokoju: int</text><text fill="#000000" font-family="sans-serif" font-size="14" lengthAdjust="spacing" textLength="96.7217" x="280.99" y="326.9657">data_od: date</text><text fill="#000000" font-family="sans-serif" font-size="14" lengthAdjust="spacing" textLength="96.7217" x="280.99" y="343.2626">data_do: date</text><text fill="#000000" font-family="sans-serif" font-size="14" lengthAdjust="spacing" textLength="92.374" x="280.99" y="359.5595">status: string</text><line style="stroke:#181818;stroke-width:0.5;" x1="275.99" x2="404.7781" y1="366.8613" y2="366.8613"/></g><!--reverse link U?ytkownik to Pracownik--><g id="link_Użytkownik_Pracownik"><path codeLine="46" d="M80.38,162.85 C80.38,183.91 80.38,189.73 80.38,212.3 " fill="transparent" id="Użytkownik-backto-Pracownik" style="stroke:#181818;stroke-width:1;"/><polygon fill="transparent" points="80.38,144.85,74.38,162.85,86.38,162.85,80.38,144.85" style="stroke:#181818;stroke-width:1;"/></g><!--link Go?? to Rezerwacja--><g id="link_Gość_Rezerwacja"><path codeLine="47" d="M277.24,144.85 C287.87,171.12 300.22,201.66 311.17,228.74 " fill="transparent" id="Gość-Rezerwacja" style="stroke:#181818;stroke-width:1;"/><text fill="#000000" font-family="sans-serif" font-size="13" lengthAdjust="spacing" textLength="8.271" x="271.6456" y="164.8492">1</text><text fill="#000000" font-family="sans-serif" font-size="13" lengthAdjust="spacing" textLength="6.5" x="302.1234" y="218.1186">*</text></g><!--link Pok?j to Rezerwacja--><g id="link_Pokój_Rezerwacja"><path codeLine="48" d="M400.12,153.26 C390.29,177.57 379.33,204.66 369.51,228.94 " fill="transparent" id="Pokój-Rezerwacja" style="stroke:#181818;stroke-width:1;"/><text fill="#000000" font-family="sans-serif" font-size="13" lengthAdjust="spacing" textLength="8.271" x="389.0665" y="172.7882">1</text><text fill="#000000" font-family="sans-serif" font-size="13" lengthAdjust="spacing" textLength="6.5" x="366.1064" y="218.0862">*</text></g><!--SRC=[hPAnJiKW58Ptde9qDBc3Q-FkQaoSRuvml9v2EGtGDAqw-n0-XgkRtlVorgH0OzN53RwJy7_ye2o486-ERsCqF3Woya58AKdl-sb1K4joSSQM3-Hg6Q8dTvZ1FGJB9S0Mo9R0iuMyVn92gg_8Amzg7TWj9ETHIrWUvc0QA9ZV4oDQlEELvj_UFsbUyl7bupav6aleudyB5gsmUNzjSYLikEbJckjRz0aM1uxT1kMEGhbNw4xY6XMrO6UWEKJit5ZBMsQBu4gJQvpG3w0QI3P-GPJllr79DsqD4VQiwtc12MZE84I8VLWNKlx9YyVTBlyOiRnATLx9qw0wgmfTiPIuEVq4]--></g></svg>
