<svg xmlns="http://www.w3.org/2000/svg" xmlns:xlink="http://www.w3.org/1999/xlink" contentStyleType="text/css" data-diagram-type="CLASS" height="332px" preserveAspectRatio="none" style="width:344px;height:332px;background:#FFFFFF;" version="1.1" viewBox="0 0 344 332" width="344px" zoomAndPan="magnify"><defs/><g><!--class Pok?j--><g id="elem_Pok&#243;j"><rect codeLine="1" fill="#F1F1F1" height="145.7813" id="Pok&#243;j" rx="2.5" ry="2.5" style="stroke:#181818;stroke-width:0.5;" width="156.0332" x="7" y="7"/><ellipse cx="61.9814" cy="23" fill="#ADD1B2" rx="11" ry="11" style="stroke:#181818;stroke-width:1;"/><path d="M64.9502,28.6406 Q64.3721,28.9375 63.7314,29.0781 Q63.0908,29.2344 62.3877,29.2344 Q59.8877,29.2344 58.5596,27.5938 Q57.2471,25.9375 57.2471,22.8125 Q57.2471,19.6875 58.5596,18.0313 Q59.8877,16.375 62.3877,16.375 Q63.0908,16.375 63.7314,16.5313 Q64.3877,16.6875 64.9502,16.9844 L64.9502,19.7031 Q64.3252,19.125 63.7314,18.8594 Q63.1377,18.5781 62.5127,18.5781 Q61.1689,18.5781 60.4814,19.6563 Q59.7939,20.7188 59.7939,22.8125 Q59.7939,24.9063 60.4814,25.9844 Q61.1689,27.0469 62.5127,27.0469 Q63.1377,27.0469 63.7314,26.7813 Q64.3252,26.5 64.9502,25.9219 L64.9502,28.6406 Z " fill="#000000"/><text fill="#000000" font-family="sans-serif" font-size="14" lengthAdjust="spacing" textLength="37.5703" x="82.4814" y="27.8467">Pok&#243;j</text><line style="stroke:#181818;stroke-width:0.5;" x1="8" x2="162.0332" y1="39" y2="39"/><ellipse cx="18" cy="52.6484" fill="#FFFFFF" fill-opacity="0.00000" rx="3" ry="3" style="stroke:#038048;stroke-width:1;"/><text fill="#000000" font-family="sans-serif" font-size="14" lengthAdjust="spacing" textLength="40.1953" x="27" y="55.9951">id: int</text><ellipse cx="18" cy="68.9453" fill="#FFFFFF" fill-opacity="0.00000" rx="3" ry="3" style="stroke:#038048;stroke-width:1;"/><text fill="#000000" font-family="sans-serif" font-size="14" lengthAdjust="spacing" textLength="95.1084" x="27" y="72.292">numer: string</text><ellipse cx="18" cy="85.2422" fill="#FFFFFF" fill-opacity="0.00000" rx="3" ry="3" style="stroke:#038048;stroke-width:1;"/><text fill="#000000" font-family="sans-serif" font-size="14" lengthAdjust="spacing" textLength="72.0166" x="27" y="88.5889">typ: string</text><ellipse cx="18" cy="101.5391" fill="#FFFFFF" fill-opacity="0.00000" rx="3" ry="3" style="stroke:#038048;stroke-width:1;"/><text fill="#000000" font-family="sans-serif" font-size="14" lengthAdjust="spacing" textLength="77.9912" x="27" y="104.8857">opis: string</text><ellipse cx="18" cy="117.8359" fill="#FFFFFF" fill-opacity="0.00000" rx="3" ry="3" style="stroke:#038048;stroke-width:1;"/><text fill="#000000" font-family="sans-serif" font-size="14" lengthAdjust="spacing" textLength="74.3818" x="27" y="121.1826">cena: float</text><ellipse cx="18" cy="134.1328" fill="#FFFFFF" fill-opacity="0.00000" rx="3" ry="3" style="stroke:#038048;stroke-width:1;"/><text fill="#000000" font-family="sans-serif" font-size="14" lengthAdjust="spacing" textLength="130.0332" x="27" y="137.4795">dost&#281;pny: boolean</text><line style="stroke:#181818;stroke-width:0.5;" x1="8" x2="162.0332" y1="144.7813" y2="144.7813"/></g><!--class Rezerwacja--><g id="elem_Rezerwacja"><rect codeLine="10" fill="#F1F1F1" height="113.1875" id="Rezerwacja" rx="2.5" ry="2.5" style="stroke:#181818;stroke-width:0.5;" width="122.7217" x="114.66" y="212.78"/><ellipse cx="134.3705" cy="228.78" fill="#ADD1B2" rx="11" ry="11" style="stroke:#181818;stroke-width:1;"/><path d="M137.3392,234.4206 Q136.7611,234.7175 136.1205,234.8581 Q135.4799,235.0144 134.7767,235.0144 Q132.2767,235.0144 130.9486,233.3738 Q129.6361,231.7175 129.6361,228.5925 Q129.6361,225.4675 130.9486,223.8113 Q132.2767,222.155 134.7767,222.155 Q135.4799,222.155 136.1205,222.3113 Q136.7767,222.4675 137.3392,222.7644 L137.3392,225.4831 Q136.7142,224.905 136.1205,224.6394 Q135.5267,224.3581 134.9017,224.3581 Q133.558,224.3581 132.8705,225.4363 Q132.183,226.4988 132.183,228.5925 Q132.183,230.6863 132.8705,231.7644 Q133.558,232.8269 134.9017,232.8269 Q135.5267,232.8269 136.1205,232.5613 Q136.7142,232.28 137.3392,231.7019 L137.3392,234.4206 Z " fill="#000000"/><text fill="#000000" font-family="sans-serif" font-size="14" lengthAdjust="spacing" textLength="80.2539" x="149.4173" y="233.6267">Rezerwacja</text><line style="stroke:#181818;stroke-width:0.5;" x1="115.66" x2="236.3817" y1="244.78" y2="244.78"/><ellipse cx="125.66" cy="258.4284" fill="#FFFFFF" fill-opacity="0.00000" rx="3" ry="3" style="stroke:#038048;stroke-width:1;"/><text fill="#000000" font-family="sans-serif" font-size="14" lengthAdjust="spacing" textLength="40.1953" x="134.66" y="261.7751">id: int</text><ellipse cx="125.66" cy="274.7253" fill="#FFFFFF" fill-opacity="0.00000" rx="3" ry="3" style="stroke:#038048;stroke-width:1;"/><text fill="#000000" font-family="sans-serif" font-size="14" lengthAdjust="spacing" textLength="96.7217" x="134.66" y="278.072">data_od: date</text><ellipse cx="125.66" cy="291.0222" fill="#FFFFFF" fill-opacity="0.00000" rx="3" ry="3" style="stroke:#038048;stroke-width:1;"/><text fill="#000000" font-family="sans-serif" font-size="14" lengthAdjust="spacing" textLength="96.7217" x="134.66" y="294.3689">data_do: date</text><ellipse cx="125.66" cy="307.3191" fill="#FFFFFF" fill-opacity="0.00000" rx="3" ry="3" style="stroke:#038048;stroke-width:1;"/><text fill="#000000" font-family="sans-serif" font-size="14" lengthAdjust="spacing" textLength="92.374" x="134.66" y="310.6657">status: string</text><line style="stroke:#181818;stroke-width:0.5;" x1="115.66" x2="236.3817" y1="317.9675" y2="317.9675"/></g><!--class Klient--><g id="elem_Klient"><rect codeLine="17" fill="#F1F1F1" height="96.8906" id="Klient" rx="2.5" ry="2.5" style="stroke:#181818;stroke-width:0.5;" width="139.4629" x="198.29" y="31.45"/><ellipse cx="243.8037" cy="47.45" fill="#ADD1B2" rx="11" ry="11" style="stroke:#181818;stroke-width:1;"/><path d="M246.7724,53.0906 Q246.1943,53.3875 245.5537,53.5281 Q244.913,53.6844 244.2099,53.6844 Q241.7099,53.6844 240.3818,52.0438 Q239.0693,50.3875 239.0693,47.2625 Q239.0693,44.1375 240.3818,42.4813 Q241.7099,40.825 244.2099,40.825 Q244.913,40.825 245.5537,40.9813 Q246.2099,41.1375 246.7724,41.4344 L246.7724,44.1531 Q246.1474,43.575 245.5537,43.3094 Q244.9599,43.0281 244.3349,43.0281 Q242.9912,43.0281 242.3037,44.1063 Q241.6162,45.1688 241.6162,47.2625 Q241.6162,49.3563 242.3037,50.4344 Q242.9912,51.4969 244.3349,51.4969 Q244.9599,51.4969 245.5537,51.2313 Q246.1474,50.95 246.7724,50.3719 L246.7724,53.0906 Z " fill="#000000"/><text fill="#000000" font-family="sans-serif" font-size="14" lengthAdjust="spacing" textLength="39.9355" x="264.3037" y="52.2967">Klient</text><line style="stroke:#181818;stroke-width:0.5;" x1="199.29" x2="336.7529" y1="63.45" y2="63.45"/><ellipse cx="209.29" cy="77.0984" fill="#FFFFFF" fill-opacity="0.00000" rx="3" ry="3" style="stroke:#038048;stroke-width:1;"/><text fill="#000000" font-family="sans-serif" font-size="14" lengthAdjust="spacing" textLength="40.1953" x="218.29" y="80.4451">id: int</text><ellipse cx="209.29" cy="93.3953" fill="#FFFFFF" fill-opacity="0.00000" rx="3" ry="3" style="stroke:#038048;stroke-width:1;"/><text fill="#000000" font-family="sans-serif" font-size="14" lengthAdjust="spacing" textLength="79.3857" x="218.29" y="96.742">imi&#281;: string</text><ellipse cx="209.29" cy="109.6922" fill="#FFFFFF" fill-opacity="0.00000" rx="3" ry="3" style="stroke:#038048;stroke-width:1;"/><text fill="#000000" font-family="sans-serif" font-size="14" lengthAdjust="spacing" textLength="113.4629" x="218.29" y="113.0389">nazwisko: string</text><line style="stroke:#181818;stroke-width:0.5;" x1="199.29" x2="336.7529" y1="120.3406" y2="120.3406"/></g><!--reverse link Pok?j to Rezerwacja--><g id="link_Pok&#243;j_Rezerwacja"><path codeLine="23" d="M125.309,163.9059 C134.869,183.6059 139.85,193.86 148.89,212.5 " fill="#FFFFFF" fill-opacity="0.00000" id="Pok&#243;j-backto-Rezerwacja" style="stroke:#181818;stroke-width:1;"/><polygon fill="#181818" points="120.07,153.11,119.0909,160.2543,125.309,163.9059,126.2882,156.7616,120.07,153.11" style="stroke:#181818;stroke-width:1;"/><text fill="#000000" font-family="sans-serif" font-size="13" lengthAdjust="spacing" textLength="8.271" x="115.0427" y="172.8768">1</text><text fill="#000000" font-family="sans-serif" font-size="13" lengthAdjust="spacing" textLength="23.0356" x="121.184" y="201.7294">0..*</text></g><!--reverse link Klient to Rezerwacja--><g id="link_Klient_Rezerwacja"><path codeLine="24" d="M239.273,139.4626 C226.763,164.9526 216.59,185.7 203.51,212.34 " fill="#FFFFFF" fill-opacity="0.00000" id="Klient-backto-Rezerwacja" style="stroke:#181818;stroke-width:1;"/><polygon fill="#181818" points="244.56,128.69,238.3257,132.314,239.273,139.4626,245.5074,135.8386,244.56,128.69" style="stroke:#181818;stroke-width:1;"/><text fill="#000000" font-family="sans-serif" font-size="13" lengthAdjust="spacing" textLength="8.271" x="232.8881" y="148.3304">1</text><text fill="#000000" font-family="sans-serif" font-size="13" lengthAdjust="spacing" textLength="23.0356" x="182.4609" y="201.5499">0..*</text></g><!--SRC=[TP1H3e8m38RVTufcZnYClkuAlXWlOEespM2iX8qGC1w4StW4EPX4Y8u4-zH-QVv-gRJeFHmfVpqpk3COQsEK0EF2DBYwq9K07ohZRXCARRa4L1g_958x572rX7EC8X-6ldIjW0kHrUZOWp7vkNxIdQuQb1ck6YWCUAQHZ8sEaA8O-O2X_bbymm_MQ1TMWqrXXdxfxR1hZCyfpfcVm_SSaZG5ljjk4nv9i_d4tuKt]--></g></svg>