<svg xmlns="http://www.w3.org/2000/svg" xmlns:xlink="http://www.w3.org/1999/xlink" contentStyleType="text/css" data-diagram-type="CLASS" height="440px" preserveAspectRatio="none" style="width:436px;height:440px;background:#FFFFFF;" version="1.1" viewBox="0 0 436 440" width="436px" zoomAndPan="magnify"><defs/><g><!--class U?ytkownik--><g id="elem_U&#380;ytkownik"><rect codeLine="1" fill="#F1F1F1" height="129.4844" id="U&#380;ytkownik" rx="2.5" ry="2.5" style="stroke:#181818;stroke-width:0.5;" width="113.9648" x="106.75" y="7"/><ellipse cx="122.4707" cy="23" fill="#ADD1B2" rx="11" ry="11" style="stroke:#181818;stroke-width:1;"/><path d="M125.4395,28.6406 Q124.8613,28.9375 124.2207,29.0781 Q123.5801,29.2344 122.877,29.2344 Q120.377,29.2344 119.0488,27.5938 Q117.7363,25.9375 117.7363,22.8125 Q117.7363,19.6875 119.0488,18.0313 Q120.377,16.375 122.877,16.375 Q123.5801,16.375 124.2207,16.5313 Q124.877,16.6875 125.4395,16.9844 L125.4395,19.7031 Q124.8145,19.125 124.2207,18.8594 Q123.627,18.5781 123.002,18.5781 Q121.6582,18.5781 120.9707,19.6563 Q120.2832,20.7188 120.2832,22.8125 Q120.2832,24.9063 120.9707,25.9844 Q121.6582,27.0469 123.002,27.0469 Q123.627,27.0469 124.2207,26.7813 Q124.8145,26.5 125.4395,25.9219 L125.4395,28.6406 Z " fill="#000000"/><text fill="#000000" font-family="sans-serif" font-size="14" lengthAdjust="spacing" textLength="80.3633" x="136.6309" y="27.8467">U&#380;ytkownik</text><line style="stroke:#181818;stroke-width:0.5;" x1="107.75" x2="219.7148" y1="39" y2="39"/><ellipse cx="117.75" cy="52.6484" fill="#FFFFFF" fill-opacity="0.00000" rx="3" ry="3" style="stroke:#038048;stroke-width:1;"/><text fill="#000000" font-family="sans-serif" font-size="14" lengthAdjust="spacing" textLength="40.1953" x="126.75" y="55.9951">id: int</text><ellipse cx="117.75" cy="68.9453" fill="#FFFFFF" fill-opacity="0.00000" rx="3" ry="3" style="stroke:#038048;stroke-width:1;"/><text fill="#000000" font-family="sans-serif" font-size="14" lengthAdjust="spacing" textLength="83.46" x="126.75" y="72.292">login: string</text><ellipse cx="117.75" cy="85.2422" fill="#FFFFFF" fill-opacity="0.00000" rx="3" ry="3" style="stroke:#038048;stroke-width:1;"/><text fill="#000000" font-family="sans-serif" font-size="14" lengthAdjust="spacing" textLength="86.6455" x="126.75" y="88.5889">has&#322;o: string</text><ellipse cx="117.75" cy="101.5391" fill="#FFFFFF" fill-opacity="0.00000" rx="3" ry="3" style="stroke:#038048;stroke-width:1;"/><text fill="#000000" font-family="sans-serif" font-size="14" lengthAdjust="spacing" textLength="87.9648" x="126.75" y="104.8857">email: string</text><ellipse cx="117.75" cy="117.8359" fill="#FFFFFF" fill-opacity="0.00000" rx="3" ry="3" style="stroke:#038048;stroke-width:1;"/><text fill="#000000" font-family="sans-serif" font-size="14" lengthAdjust="spacing" textLength="76.1455" x="126.75" y="121.1826">rola: string</text><line style="stroke:#181818;stroke-width:0.5;" x1="107.75" x2="219.7148" y1="128.4844" y2="128.4844"/></g><!--class Klient--><g id="elem_Klient"><rect codeLine="9" fill="#F1F1F1" height="96.8906" id="Klient" rx="2.5" ry="2.5" style="stroke:#181818;stroke-width:0.5;" width="139.4629" x="7" y="204.63"/><ellipse cx="52.5137" cy="220.63" fill="#ADD1B2" rx="11" ry="11" style="stroke:#181818;stroke-width:1;"/><path d="M55.4824,226.2706 Q54.9043,226.5675 54.2637,226.7081 Q53.623,226.8644 52.9199,226.8644 Q50.4199,226.8644 49.0918,225.2238 Q47.7793,223.5675 47.7793,220.4425 Q47.7793,217.3175 49.0918,215.6613 Q50.4199,214.005 52.9199,214.005 Q53.623,214.005 54.2637,214.1613 Q54.9199,214.3175 55.4824,214.6144 L55.4824,217.3331 Q54.8574,216.755 54.2637,216.4894 Q53.6699,216.2081 53.0449,216.2081 Q51.7012,216.2081 51.0137,217.2863 Q50.3262,218.3488 50.3262,220.4425 Q50.3262,222.5363 51.0137,223.6144 Q51.7012,224.6769 53.0449,224.6769 Q53.6699,224.6769 54.2637,224.4113 Q54.8574,224.13 55.4824,223.5519 L55.4824,226.2706 Z " fill="#000000"/><text fill="#000000" font-family="sans-serif" font-size="14" lengthAdjust="spacing" textLength="39.9355" x="73.0137" y="225.4767">Klient</text><line style="stroke:#181818;stroke-width:0.5;" x1="8" x2="145.4629" y1="236.63" y2="236.63"/><ellipse cx="18" cy="250.2784" fill="#FFFFFF" fill-opacity="0.00000" rx="3" ry="3" style="stroke:#038048;stroke-width:1;"/><text fill="#000000" font-family="sans-serif" font-size="14" lengthAdjust="spacing" textLength="79.3857" x="27" y="253.6251">imi&#281;: string</text><ellipse cx="18" cy="266.5753" fill="#FFFFFF" fill-opacity="0.00000" rx="3" ry="3" style="stroke:#038048;stroke-width:1;"/><text fill="#000000" font-family="sans-serif" font-size="14" lengthAdjust="spacing" textLength="113.4629" x="27" y="269.922">nazwisko: string</text><ellipse cx="18" cy="282.8722" fill="#FFFFFF" fill-opacity="0.00000" rx="3" ry="3" style="stroke:#038048;stroke-width:1;"/><text fill="#000000" font-family="sans-serif" font-size="14" lengthAdjust="spacing" textLength="98.3281" x="27" y="286.2189">telefon: string</text><line style="stroke:#181818;stroke-width:0.5;" x1="8" x2="145.4629" y1="293.5206" y2="293.5206"/></g><!--class Pracownik--><g id="elem_Pracownik"><rect codeLine="15" fill="#F1F1F1" height="113.1875" id="Pracownik" rx="2.5" ry="2.5" style="stroke:#181818;stroke-width:0.5;" width="139.4629" x="181" y="196.49"/><ellipse cx="212.2461" cy="212.49" fill="#ADD1B2" rx="11" ry="11" style="stroke:#181818;stroke-width:1;"/><path d="M215.2149,218.1306 Q214.6368,218.4275 213.9961,218.5681 Q213.3555,218.7244 212.6524,218.7244 Q210.1524,218.7244 208.8243,217.0838 Q207.5118,215.4275 207.5118,212.3025 Q207.5118,209.1775 208.8243,207.5213 Q210.1524,205.865 212.6524,205.865 Q213.3555,205.865 213.9961,206.0213 Q214.6524,206.1775 215.2149,206.4744 L215.2149,209.1931 Q214.5899,208.615 213.9961,208.3494 Q213.4024,208.0681 212.7774,208.0681 Q211.4336,208.0681 210.7461,209.1463 Q210.0586,210.2088 210.0586,212.3025 Q210.0586,214.3963 210.7461,215.4744 Q211.4336,216.5369 212.7774,216.5369 Q213.4024,216.5369 213.9961,216.2713 Q214.5899,215.99 215.2149,215.4119 L215.2149,218.1306 Z " fill="#000000"/><text fill="#000000" font-family="sans-serif" font-size="14" lengthAdjust="spacing" textLength="71.3604" x="229.8564" y="217.3367">Pracownik</text><line style="stroke:#181818;stroke-width:0.5;" x1="182" x2="319.4629" y1="228.49" y2="228.49"/><ellipse cx="192" cy="242.1384" fill="#FFFFFF" fill-opacity="0.00000" rx="3" ry="3" style="stroke:#038048;stroke-width:1;"/><text fill="#000000" font-family="sans-serif" font-size="14" lengthAdjust="spacing" textLength="79.3857" x="201" y="245.4851">imi&#281;: string</text><ellipse cx="192" cy="258.4353" fill="#FFFFFF" fill-opacity="0.00000" rx="3" ry="3" style="stroke:#038048;stroke-width:1;"/><text fill="#000000" font-family="sans-serif" font-size="14" lengthAdjust="spacing" textLength="113.4629" x="201" y="261.782">nazwisko: string</text><ellipse cx="192" cy="274.7322" fill="#FFFFFF" fill-opacity="0.00000" rx="3" ry="3" style="stroke:#038048;stroke-width:1;"/><text fill="#000000" font-family="sans-serif" font-size="14" lengthAdjust="spacing" textLength="98.3281" x="201" y="278.0789">telefon: string</text><ellipse cx="192" cy="291.0291" fill="#FFFFFF" fill-opacity="0.00000" rx="3" ry="3" style="stroke:#038048;stroke-width:1;"/><text fill="#000000" font-family="sans-serif" font-size="14" lengthAdjust="spacing" textLength="76.1455" x="201" y="294.3757">rola: string</text><line style="stroke:#181818;stroke-width:0.5;" x1="182" x2="319.4629" y1="301.6775" y2="301.6775"/></g><!--class Recepcjonista--><g id="elem_Recepcjonista"><rect codeLine="22" fill="#F1F1F1" height="64.2969" id="Recepcjonista" rx="2.5" ry="2.5" style="stroke:#181818;stroke-width:0.5;" width="161.6182" x="70.92" y="369.67"/><ellipse cx="100.2312" cy="385.67" fill="#ADD1B2" rx="11" ry="11" style="stroke:#181818;stroke-width:1;"/><path d="M103.2,391.3106 Q102.6219,391.6075 101.9812,391.7481 Q101.3406,391.9044 100.6375,391.9044 Q98.1375,391.9044 96.8094,390.2638 Q95.4969,388.6075 95.4969,385.4825 Q95.4969,382.3575 96.8094,380.7013 Q98.1375,379.045 100.6375,379.045 Q101.3406,379.045 101.9812,379.2013 Q102.6375,379.3575 103.2,379.6544 L103.2,382.3731 Q102.575,381.795 101.9812,381.5294 Q101.3875,381.2481 100.7625,381.2481 Q99.4187,381.2481 98.7312,382.3263 Q98.0437,383.3888 98.0437,385.4825 Q98.0437,387.5763 98.7312,388.6544 Q99.4187,389.7169 100.7625,389.7169 Q101.3875,389.7169 101.9812,389.4513 Q102.575,389.17 103.2,388.5919 L103.2,391.3106 Z " fill="#000000"/><text fill="#000000" font-family="sans-serif" font-size="14" lengthAdjust="spacing" textLength="97.8154" x="117.4115" y="390.5167">Recepcjonista</text><line style="stroke:#181818;stroke-width:0.5;" x1="71.92" x2="231.5382" y1="401.67" y2="401.67"/><ellipse cx="81.92" cy="415.3184" fill="#FFFFFF" fill-opacity="0.00000" rx="3" ry="3" style="stroke:#038048;stroke-width:1;"/><text fill="#000000" font-family="sans-serif" font-size="14" lengthAdjust="spacing" textLength="135.6182" x="90.92" y="418.6651">uprawnienia: string</text><line style="stroke:#181818;stroke-width:0.5;" x1="71.92" x2="231.5382" y1="425.9669" y2="425.9669"/></g><!--class Menad?er--><g id="elem_Menad&#380;er"><rect codeLine="26" fill="#F1F1F1" height="64.2969" id="Menad&#380;er" rx="2.5" ry="2.5" style="stroke:#181818;stroke-width:0.5;" width="161.6182" x="267.92" y="369.67"/><ellipse cx="310.3111" cy="385.67" fill="#ADD1B2" rx="11" ry="11" style="stroke:#181818;stroke-width:1;"/><path d="M313.2799,391.3106 Q312.7017,391.6075 312.0611,391.7481 Q311.4205,391.9044 310.7174,391.9044 Q308.2174,391.9044 306.8892,390.2638 Q305.5767,388.6075 305.5767,385.4825 Q305.5767,382.3575 306.8892,380.7013 Q308.2174,379.045 310.7174,379.045 Q311.4205,379.045 312.0611,379.2013 Q312.7174,379.3575 313.2799,379.6544 L313.2799,382.3731 Q312.6549,381.795 312.0611,381.5294 Q311.4674,381.2481 310.8424,381.2481 Q309.4986,381.2481 308.8111,382.3263 Q308.1236,383.3888 308.1236,385.4825 Q308.1236,387.5763 308.8111,388.6544 Q309.4986,389.7169 310.8424,389.7169 Q311.4674,389.7169 312.0611,389.4513 Q312.6549,389.17 313.2799,388.5919 L313.2799,391.3106 Z " fill="#000000"/><text fill="#000000" font-family="sans-serif" font-size="14" lengthAdjust="spacing" textLength="68.749" x="330.398" y="390.5167">Menad&#380;er</text><line style="stroke:#181818;stroke-width:0.5;" x1="268.92" x2="428.5382" y1="401.67" y2="401.67"/><ellipse cx="278.92" cy="415.3184" fill="#FFFFFF" fill-opacity="0.00000" rx="3" ry="3" style="stroke:#038048;stroke-width:1;"/><text fill="#000000" font-family="sans-serif" font-size="14" lengthAdjust="spacing" textLength="135.6182" x="287.92" y="418.6651">uprawnienia: string</text><line style="stroke:#181818;stroke-width:0.5;" x1="268.92" x2="428.5382" y1="425.9669" y2="425.9669"/></g><!--reverse link U?ytkownik to Klient--><g id="link_U&#380;ytkownik_Klient"><path codeLine="30" d="M124.7103,153.1734 C113.9303,175.3834 109.92,183.67 99.9,204.33 " fill="#FFFFFF" fill-opacity="0.00000" id="U&#380;ytkownik-backto-Klient" style="stroke:#181818;stroke-width:1;"/><polygon fill="#FFFFFF" fill-opacity="0.00000" points="132.57,136.98,119.3125,150.5534,130.1081,155.7933,132.57,136.98" style="stroke:#181818;stroke-width:1;"/></g><!--reverse link U?ytkownik to Pracownik--><g id="link_U&#380;ytkownik_Pracownik"><path codeLine="31" d="M202.7514,153.1726 C212.1214,172.4726 214.45,177.29 223.53,196.01 " fill="#FFFFFF" fill-opacity="0.00000" id="U&#380;ytkownik-backto-Pracownik" style="stroke:#181818;stroke-width:1;"/><polygon fill="#FFFFFF" fill-opacity="0.00000" points="194.89,136.98,197.3538,155.793,208.1489,150.5521,194.89,136.98" style="stroke:#181818;stroke-width:1;"/></g><!--reverse link Pracownik to Recepcjonista--><g id="link_Pracownik_Recepcjonista"><path codeLine="32" d="M202.955,324.893 C189.405,344.983 184.67,352 173,369.29 " fill="#FFFFFF" fill-opacity="0.00000" id="Pracownik-backto-Recepcjonista" style="stroke:#181818;stroke-width:1;"/><polygon fill="#FFFFFF" fill-opacity="0.00000" points="213.02,309.97,197.9806,321.538,207.9293,328.248,213.02,309.97" style="stroke:#181818;stroke-width:1;"/></g><!--reverse link Pracownik to Menad?er--><g id="link_Pracownik_Menad&#380;er"><path codeLine="33" d="M298.0584,324.9377 C311.4784,345.0277 316.13,352 327.67,369.29 " fill="#FFFFFF" fill-opacity="0.00000" id="Pracownik-backto-Menad&#380;er" style="stroke:#181818;stroke-width:1;"/><polygon fill="#FFFFFF" fill-opacity="0.00000" points="288.06,309.97,293.0691,328.2705,303.0476,321.6049,288.06,309.97" style="stroke:#181818;stroke-width:1;"/></g><!--SRC=[dP3D3S8m38NldI9tr0KgDa1828a1hDGKqzIfag2AlmjRi4kFT2-g5W9f4KZabi_sUy-M2gmLgwRUkrnNJBauHg9z4qeJGUpwZz8PSIAiCyHPZpPWcuiE6HP0AaH6A_3a74MoyvifGdRUgg3RDHnZE5Hayu6-GuLhpMEzXG4PflzNyale9KeivLOpMGTFerrfe3L6fWyJSsH8cnhDZ-xtyqzFSVoupvZxFQFNnbqXo3Oi-XXt]--></g></svg>