<svg xmlns="http://www.w3.org/2000/svg" xmlns:xlink="http://www.w3.org/1999/xlink" contentStyleType="text/css" data-diagram-type="SEQUENCE" height="556px" preserveAspectRatio="none" style="width:981px;height:556px;background:#FFFFFF;" version="1.1" viewBox="0 0 981 556" width="981px" zoomAndPan="magnify"><title>Diagram Sekwencji Logowania</title><defs/><g><text fill="#000000" font-family="sans-serif" font-size="14" font-weight="bold" lengthAdjust="spacing" textLength="240.5293" x="369.5215" y="27.9951">Diagram Sekwencji Logowania</text><rect fill="#FFFFFF" fill-opacity="0.00000" height="148.4688" style="stroke:#000000;stroke-width:1.5;" width="606.5483" x="10" y="310.3906"/><g><title>U&#380;ytkownik</title><rect fill="#FFFFFF" fill-opacity="0.00000" height="357.2656" width="8" x="59.1816" y="118.5938"/><line style="stroke:#181818;stroke-width:0.5;stroke-dasharray:5.0,5.0;" x1="63" x2="63" y1="118.5938" y2="475.8594"/></g><g><title>Interfejs U&#380;ytkownika</title><rect fill="#FFFFFF" fill-opacity="0.00000" height="357.2656" width="8" x="262.9473" y="118.5938"/><line style="stroke:#181818;stroke-width:0.5;stroke-dasharray:5.0,5.0;" x1="266.458" x2="266.458" y1="118.5938" y2="475.8594"/></g><g><title>Kontroler Logowania</title><rect fill="#FFFFFF" fill-opacity="0.00000" height="357.2656" width="8" x="523.3848" y="118.5938"/><line style="stroke:#181818;stroke-width:0.5;stroke-dasharray:5.0,5.0;" x1="527.2212" x2="527.2212" y1="118.5938" y2="475.8594"/></g><g><title>Serwis Uwierzytelniania</title><rect fill="#FFFFFF" fill-opacity="0.00000" height="357.2656" width="8" x="723.748" y="118.5938"/><line style="stroke:#181818;stroke-width:0.5;stroke-dasharray:5.0,5.0;" x1="727.4453" x2="727.4453" y1="118.5938" y2="475.8594"/></g><g><title>Baza Danych</title><rect fill="#FFFFFF" fill-opacity="0.00000" height="357.2656" width="8" x="918.7476" y="118.5938"/><line style="stroke:#181818;stroke-width:0.5;stroke-dasharray:5.0,5.0;" x1="921.9229" x2="921.9229" y1="118.5938" y2="475.8594"/></g><text fill="#000000" font-family="sans-serif" font-size="14" lengthAdjust="spacing" textLength="80.3633" x="20" y="115.292">U&#380;ytkownik</text><ellipse cx="63.1816" cy="50.7969" fill="#E2E2F0" rx="8" ry="8" style="stroke:#181818;stroke-width:0.5;"/><path d="M63.1816,58.7969 L63.1816,85.7969 M50.1816,66.7969 L76.1816,66.7969 M63.1816,85.7969 L50.1816,100.7969 M63.1816,85.7969 L76.1816,100.7969 " fill="#FFFFFF" fill-opacity="0.00000" style="stroke:#181818;stroke-width:0.5;"/><text fill="#000000" font-family="sans-serif" font-size="14" lengthAdjust="spacing" textLength="80.3633" x="20" y="487.8545">U&#380;ytkownik</text><ellipse cx="63.1816" cy="499.6563" fill="#E2E2F0" rx="8" ry="8" style="stroke:#181818;stroke-width:0.5;"/><path d="M63.1816,507.6563 L63.1816,534.6563 M50.1816,515.6563 L76.1816,515.6563 M63.1816,534.6563 L50.1816,549.6563 M63.1816,534.6563 L76.1816,549.6563 " fill="#FFFFFF" fill-opacity="0.00000" style="stroke:#181818;stroke-width:0.5;"/><rect fill="#E2E2F0" height="30.2969" rx="2.5" ry="2.5" style="stroke:#181818;stroke-width:0.5;" width="164.9785" x="184.458" y="87.2969"/><text fill="#000000" font-family="sans-serif" font-size="14" lengthAdjust="spacing" textLength="150.9785" x="191.458" y="107.292">Interfejs U&#380;ytkownika</text><rect fill="#E2E2F0" height="30.2969" rx="2.5" ry="2.5" style="stroke:#181818;stroke-width:0.5;" width="164.9785" x="184.458" y="474.8594"/><text fill="#000000" font-family="sans-serif" font-size="14" lengthAdjust="spacing" textLength="150.9785" x="191.458" y="494.8545">Interfejs U&#380;ytkownika</text><rect fill="#E2E2F0" height="30.2969" rx="2.5" ry="2.5" style="stroke:#181818;stroke-width:0.5;" width="158.3271" x="448.2212" y="87.2969"/><text fill="#000000" font-family="sans-serif" font-size="14" lengthAdjust="spacing" textLength="144.3271" x="455.2212" y="107.292">Kontroler Logowania</text><rect fill="#E2E2F0" height="30.2969" rx="2.5" ry="2.5" style="stroke:#181818;stroke-width:0.5;" width="158.3271" x="448.2212" y="474.8594"/><text fill="#000000" font-family="sans-serif" font-size="14" lengthAdjust="spacing" textLength="144.3271" x="455.2212" y="494.8545">Kontroler Logowania</text><rect fill="#E2E2F0" height="30.2969" rx="2.5" ry="2.5" style="stroke:#181818;stroke-width:0.5;" width="180.6055" x="637.4453" y="87.2969"/><text fill="#000000" font-family="sans-serif" font-size="14" lengthAdjust="spacing" textLength="166.6055" x="644.4453" y="107.292">Serwis Uwierzytelniania</text><rect fill="#E2E2F0" height="30.2969" rx="2.5" ry="2.5" style="stroke:#181818;stroke-width:0.5;" width="180.6055" x="637.4453" y="474.8594"/><text fill="#000000" font-family="sans-serif" font-size="14" lengthAdjust="spacing" textLength="166.6055" x="644.4453" y="494.8545">Serwis Uwierzytelniania</text><rect fill="#E2E2F0" height="30.2969" rx="2.5" ry="2.5" style="stroke:#181818;stroke-width:0.5;" width="105.6494" x="869.9229" y="87.2969"/><text fill="#000000" font-family="sans-serif" font-size="14" lengthAdjust="spacing" textLength="91.6494" x="876.9229" y="107.292">Baza Danych</text><rect fill="#E2E2F0" height="30.2969" rx="2.5" ry="2.5" style="stroke:#181818;stroke-width:0.5;" width="105.6494" x="869.9229" y="474.8594"/><text fill="#000000" font-family="sans-serif" font-size="14" lengthAdjust="spacing" textLength="91.6494" x="876.9229" y="494.8545">Baza Danych</text><polygon fill="#181818" points="254.9473,145.7266,264.9473,149.7266,254.9473,153.7266,258.9473,149.7266" style="stroke:#181818;stroke-width:1;"/><line style="stroke:#181818;stroke-width:1;" x1="63.1816" x2="260.9473" y1="149.7266" y2="149.7266"/><text fill="#000000" font-family="sans-serif" font-size="13" lengthAdjust="spacing" textLength="158.3486" x="70.1816" y="144.6606">Wprowadza login i has&#322;o</text><polygon fill="#181818" points="515.3848,174.8594,525.3848,178.8594,515.3848,182.8594,519.3848,178.8594" style="stroke:#181818;stroke-width:1;"/><line style="stroke:#181818;stroke-width:1;" x1="266.9473" x2="521.3848" y1="178.8594" y2="178.8594"/><text fill="#000000" font-family="sans-serif" font-size="13" lengthAdjust="spacing" textLength="177.0806" x="273.9473" y="173.7935">Przekazuje dane logowania</text><polygon fill="#181818" points="715.748,203.9922,725.748,207.9922,715.748,211.9922,719.748,207.9922" style="stroke:#181818;stroke-width:1;"/><line style="stroke:#181818;stroke-width:1;" x1="527.3848" x2="721.748" y1="207.9922" y2="207.9922"/><text fill="#000000" font-family="sans-serif" font-size="13" lengthAdjust="spacing" textLength="176.3633" x="534.3848" y="202.9263">Weryfikuje dane logowania</text><polygon fill="#181818" points="910.7476,233.125,920.7476,237.125,910.7476,241.125,914.7476,237.125" style="stroke:#181818;stroke-width:1;"/><line style="stroke:#181818;stroke-width:1;" x1="727.748" x2="916.7476" y1="237.125" y2="237.125"/><text fill="#000000" font-family="sans-serif" font-size="13" lengthAdjust="spacing" textLength="170.9995" x="734.748" y="232.0591">Pobiera dane u&#380;ytkownika</text><polygon fill="#181818" points="738.748,262.2578,728.748,266.2578,738.748,270.2578,734.748,266.2578" style="stroke:#181818;stroke-width:1;"/><line style="stroke:#181818;stroke-width:1;stroke-dasharray:2.0,2.0;" x1="732.748" x2="921.7476" y1="266.2578" y2="266.2578"/><text fill="#000000" font-family="sans-serif" font-size="13" lengthAdjust="spacing" textLength="169.9966" x="744.748" y="261.1919">Zwraca dane u&#380;ytkownika</text><polygon fill="#181818" points="538.3848,291.3906,528.3848,295.3906,538.3848,299.3906,534.3848,295.3906" style="stroke:#181818;stroke-width:1;"/><line style="stroke:#181818;stroke-width:1;stroke-dasharray:2.0,2.0;" x1="532.3848" x2="726.748" y1="295.3906" y2="295.3906"/><text fill="#000000" font-family="sans-serif" font-size="13" lengthAdjust="spacing" textLength="163.6553" x="544.3848" y="290.3247">Zwraca wynik weryfikacji</text><path d="M10,310.3906 L74.4429,310.3906 L74.4429,317.5234 L64.4429,327.5234 L10,327.5234 L10,310.3906 " fill="#EEEEEE" style="stroke:#000000;stroke-width:1.5;"/><rect fill="#FFFFFF" fill-opacity="0.00000" height="148.4688" style="stroke:#000000;stroke-width:1.5;" width="606.5483" x="10" y="310.3906"/><text fill="#000000" font-family="sans-serif" font-size="13" font-weight="bold" lengthAdjust="spacing" textLength="19.4429" x="25" y="323.4575">alt</text><text fill="#000000" font-family="sans-serif" font-size="11" font-weight="bold" lengthAdjust="spacing" textLength="106.2671" x="89.4429" y="322.6011">[Poprawne dane]</text><polygon fill="#181818" points="277.9473,344.6563,267.9473,348.6563,277.9473,352.6563,273.9473,348.6563" style="stroke:#181818;stroke-width:1;"/><line style="stroke:#181818;stroke-width:1;" x1="271.9473" x2="526.3848" y1="348.6563" y2="348.6563"/><text fill="#000000" font-family="sans-serif" font-size="13" lengthAdjust="spacing" textLength="236.4375" x="283.9473" y="343.5903">Przekazuje potwierdzenie logowania</text><polygon fill="#181818" points="74.1816,373.7891,64.1816,377.7891,74.1816,381.7891,70.1816,377.7891" style="stroke:#181818;stroke-width:1;"/><line style="stroke:#181818;stroke-width:1;" x1="68.1816" x2="265.9473" y1="377.7891" y2="377.7891"/><text fill="#000000" font-family="sans-serif" font-size="13" lengthAdjust="spacing" textLength="133.7324" x="80.1816" y="372.7231">Wy&#347;wietla powitanie</text><line style="stroke:#000000;stroke-width:1;stroke-dasharray:2.0,2.0;" x1="10" x2="616.5483" y1="386.7891" y2="386.7891"/><text fill="#000000" font-family="sans-serif" font-size="11" font-weight="bold" lengthAdjust="spacing" textLength="126.5161" x="15" y="396.9995">[Niepoprawne dane]</text><polygon fill="#181818" points="277.9473,417.7266,267.9473,421.7266,277.9473,425.7266,273.9473,421.7266" style="stroke:#181818;stroke-width:1;"/><line style="stroke:#181818;stroke-width:1;" x1="271.9473" x2="526.3848" y1="421.7266" y2="421.7266"/><text fill="#000000" font-family="sans-serif" font-size="13" lengthAdjust="spacing" textLength="172.7896" x="283.9473" y="416.6606">Przekazuje b&#322;&#261;d logowania</text><polygon fill="#181818" points="74.1816,446.8594,64.1816,450.8594,74.1816,454.8594,70.1816,450.8594" style="stroke:#181818;stroke-width:1;"/><line style="stroke:#181818;stroke-width:1;" x1="68.1816" x2="265.9473" y1="450.8594" y2="450.8594"/><text fill="#000000" font-family="sans-serif" font-size="13" lengthAdjust="spacing" textLength="179.7656" x="80.1816" y="445.7935">Wy&#347;wietla komunikat b&#322;&#281;du</text><!--SRC=[bP51Ri8m44NtESM8FHTWKQbfDgXLLGbLbReRaW6613ioarh94gc7g7gLBfjxTKoeC14RlBJVz__pHrWgWennxN072oezcNpBy6JNrgDXJ1B0NAo3r_wdbT9wmsK2DJhXd6iq0fEv4N8hskvZ1YU0UZ4ViO_MYBCLkRF34NmOxlLX95YGywmVUIRNjKALAlv5zurizFs3SngfKkmGCZHjlZcIMQfpHEbWUgVPPl1MEmrHA5pPDHjWsE2-FrY5vu4vnvh1Y-kenAxP4XHeA2XE5KLO44Mnr85Sk-BocYhYWYnBrSCkTKuSq2PgCz5dc8u_V_SEywlqnT-ZGKugtuOY_90FTUbXrPLeXjgXDqFU1CAvd2yK5vLHMmdBAJeoV35VE4EDKVFQIDj_gq0gLAbdKLXjgDeJF3FLDxel-yFlPt6RRMbtJQX9Zkgleb5xK_m1]--></g></svg>