<svg xmlns="http://www.w3.org/2000/svg" xmlns:xlink="http://www.w3.org/1999/xlink" contentStyleType="text/css" data-diagram-type="DESCRIPTION" height="1466px" preserveAspectRatio="none" style="width:917px;height:1466px;background:#FFFFFF;" version="1.1" viewBox="0 0 917 1466" width="917px" zoomAndPan="magnify"><title>Diagram Przypadk&#243;w U&#380;ycia - System Rezerwacji Hotelowej</title><defs/><g><text fill="#000000" font-family="sans-serif" font-size="14" font-weight="bold" lengthAdjust="spacing" textLength="471.4473" x="215.8664" y="22.9951">Diagram Przypadk&#243;w U&#380;ycia - System Rezerwacji Hotelowej</text><!--cluster System Rezerwacji--><g id="cluster_System Rezerwacji"><path d="M259.05,43.2969 L408.342,43.2969 A3.75,3.75 0 0 1 410.842,45.7969 L417.842,65.5938 L907.68,65.5938 A2.5,2.5 0 0 1 910.18,68.0938 L910.18,1456.7969 A2.5,2.5 0 0 1 907.68,1459.2969 L259.05,1459.2969 A2.5,2.5 0 0 1 256.55,1456.7969 L256.55,45.7969 A2.5,2.5 0 0 1 259.05,43.2969 " fill="#FFFFFF" fill-opacity="0.00000" style="stroke:#000000;stroke-width:1.5;"/><line style="stroke:#000000;stroke-width:1.5;" x1="256.55" x2="417.842" y1="65.5938" y2="65.5938"/><text fill="#000000" font-family="sans-serif" font-size="14" font-weight="bold" lengthAdjust="spacing" textLength="148.292" x="260.55" y="58.292">System Rezerwacji</text></g><g id="elem_UC1"><ellipse cx="416.5809" cy="497.2971" fill="#F1F1F1" rx="125.3509" ry="27.4702" style="stroke:#181818;stroke-width:0.5;"/><text fill="#000000" font-family="sans-serif" font-size="14" lengthAdjust="spacing" textLength="218.7363" x="307.2127" y="500.1437">Przegl&#261;danie dost&#281;pnych pokoi</text></g><g id="elem_UC2"><ellipse cx="416.5805" cy="98.297" fill="#F1F1F1" rx="85.5505" ry="19.5101" style="stroke:#181818;stroke-width:0.5;"/><text fill="#000000" font-family="sans-serif" font-size="14" lengthAdjust="spacing" textLength="131.5918" x="350.7846" y="101.1436">Rezerwacja pokoju</text></g><g id="elem_UC3"><ellipse cx="416.5813" cy="174.2991" fill="#F1F1F1" rx="96.9113" ry="21.7823" style="stroke:#181818;stroke-width:0.5;"/><text fill="#000000" font-family="sans-serif" font-size="14" lengthAdjust="spacing" textLength="157.2266" x="337.968" y="177.1458">Anulowanie rezerwacji</text></g><g id="elem_UC4"><ellipse cx="416.5826" cy="253.2954" fill="#F1F1F1" rx="98.6426" ry="22.1285" style="stroke:#181818;stroke-width:0.5;"/><text fill="#000000" font-family="sans-serif" font-size="14" lengthAdjust="spacing" textLength="161.0615" x="336.0518" y="256.1421">Logowanie do systemu</text></g><g id="elem_UC5"><ellipse cx="416.5838" cy="332.2936" fill="#F1F1F1" rx="98.8838" ry="22.1768" style="stroke:#181818;stroke-width:0.5;"/><text fill="#000000" font-family="sans-serif" font-size="14" lengthAdjust="spacing" textLength="161.5947" x="335.7865" y="335.1403">Rejestracja w systemie</text></g><g id="elem_UC6"><ellipse cx="416.5843" cy="412.2997" fill="#F1F1F1" rx="101.0643" ry="22.6129" style="stroke:#181818;stroke-width:0.5;"/><text fill="#000000" font-family="sans-serif" font-size="14" lengthAdjust="spacing" textLength="166.4004" x="333.3841" y="415.1464">Przegl&#261;danie rezerwacji</text></g><g id="elem_UC7"><ellipse cx="416.5766" cy="768.2942" fill="#F1F1F1" rx="95.7366" ry="21.5473" style="stroke:#181818;stroke-width:0.5;"/><text fill="#000000" font-family="sans-serif" font-size="14" lengthAdjust="spacing" textLength="154.6152" x="339.269" y="771.1409">Zarz&#261;dzanie pokojami</text></g><g id="elem_UC8"><ellipse cx="416.5842" cy="848.2937" fill="#F1F1F1" rx="104.7342" ry="23.3468" style="stroke:#181818;stroke-width:0.5;"/><text fill="#000000" font-family="sans-serif" font-size="14" lengthAdjust="spacing" textLength="174.4395" x="329.3645" y="851.1404">Potwierdzanie rezerwacji</text></g><g id="elem_UC9"><ellipse cx="416.5829" cy="923.2954" fill="#F1F1F1" rx="72.0429" ry="16.8086" style="stroke:#181818;stroke-width:0.5;"/><text fill="#000000" font-family="sans-serif" font-size="14" lengthAdjust="spacing" textLength="98.3008" x="364.4325" y="927.043">Obs&#322;uga go&#347;ci</text></g><g id="elem_UC10"><ellipse cx="416.5843" cy="997.2997" fill="#F1F1F1" rx="101.0643" ry="22.6129" style="stroke:#181818;stroke-width:0.5;"/><text fill="#000000" font-family="sans-serif" font-size="14" lengthAdjust="spacing" textLength="166.4004" x="333.3841" y="1000.1464">Przegl&#261;danie rezerwacji</text></g><g id="elem_UC11"><ellipse cx="416.5826" cy="1077.2954" fill="#F1F1F1" rx="98.6426" ry="22.1285" style="stroke:#181818;stroke-width:0.5;"/><text fill="#000000" font-family="sans-serif" font-size="14" lengthAdjust="spacing" textLength="161.0615" x="336.0518" y="1080.1421">Logowanie do systemu</text></g><g id="elem_UC12"><ellipse cx="416.5779" cy="680.2925" fill="#F1F1F1" rx="144.0279" ry="31.2056" style="stroke:#181818;stroke-width:0.5;"/><text fill="#000000" font-family="sans-serif" font-size="14" lengthAdjust="spacing" textLength="258.0293" x="287.5633" y="683.1391">Konfiguracja integracji z dostawcami</text></g><g id="elem_UC13"><ellipse cx="416.579" cy="1163.2987" fill="#F1F1F1" rx="130.459" ry="28.4918" style="stroke:#181818;stroke-width:0.5;"/><text fill="#000000" font-family="sans-serif" font-size="14" lengthAdjust="spacing" textLength="229.5439" x="301.807" y="1166.1454">Monitorowanie statusu integracji</text></g><g id="elem_UC14"><ellipse cx="416.5839" cy="587.2977" fill="#F1F1F1" rx="123.6539" ry="27.1308" style="stroke:#181818;stroke-width:0.5;"/><text fill="#000000" font-family="sans-serif" font-size="14" lengthAdjust="spacing" textLength="215.1338" x="309.017" y="590.1443">R&#281;czna synchronizacja danych</text></g><g id="elem_UC15"><ellipse cx="416.5833" cy="1419.2935" fill="#F1F1F1" rx="108.1333" ry="24.0267" style="stroke:#181818;stroke-width:0.5;"/><text fill="#000000" font-family="sans-serif" font-size="14" lengthAdjust="spacing" textLength="181.8359" x="325.6654" y="1422.1402">Synchronizacja rezerwacji</text></g><g id="elem_UC16"><ellipse cx="416.5841" cy="1256.2937" fill="#F1F1F1" rx="133.8841" ry="29.1768" style="stroke:#181818;stroke-width:0.5;"/><text fill="#000000" font-family="sans-serif" font-size="14" lengthAdjust="spacing" textLength="236.7627" x="298.2027" y="1259.1404">Synchronizacja dost&#281;pno&#347;ci pokoi</text></g><g id="elem_UC17"><ellipse cx="416.5834" cy="1340.3016" fill="#F1F1F1" rx="87.2234" ry="19.8447" style="stroke:#181818;stroke-width:0.5;"/><text fill="#000000" font-family="sans-serif" font-size="14" lengthAdjust="spacing" textLength="135.4268" x="348.8701" y="1343.1482">Synchronizacja cen</text></g><g id="elem_GMN26"><path d="M621.6,1305.0269 L621.6,1336.2969 L504.08,1340.2969 L621.6,1344.2969 L621.6,1375.5581 A0,0 0 0 0 621.6,1375.5581 L894.1703,1375.5581 A0,0 0 0 0 894.1703,1375.5581 L894.1703,1315.0269 L884.1703,1305.0269 L621.6,1305.0269 A0,0 0 0 0 621.6,1305.0269 " fill="#FEFFDD" style="stroke:#181818;stroke-width:0.5;"/><path d="M884.1703,1305.0269 L884.1703,1315.0269 L894.1703,1315.0269 L884.1703,1305.0269 " fill="#FEFFDD" style="stroke:#181818;stroke-width:0.5;"/><text fill="#000000" font-family="sans-serif" font-size="13" lengthAdjust="spacing" textLength="194.5938" x="627.6" y="1322.0938">Synchronizacja cen obejmuje:</text><text fill="#000000" font-family="sans-serif" font-size="13" lengthAdjust="spacing" textLength="251.5703" x="627.6" y="1337.2266">- Pobieranie aktualnych cen z platform</text><text fill="#000000" font-family="sans-serif" font-size="13" lengthAdjust="spacing" textLength="154.2925" x="627.6" y="1352.3594">- Weryfikacj&#281; zgodno&#347;ci</text><text fill="#000000" font-family="sans-serif" font-size="13" lengthAdjust="spacing" textLength="209.4282" x="627.6" y="1367.4922">- Aktualizacj&#281; lokalnego cennika</text></g><!--entity Klient--><g id="elem_Klient"><ellipse cx="75.7778" cy="263.6469" fill="#F1F1F1" rx="8" ry="8" style="stroke:#181818;stroke-width:0.5;"/><path d="M75.7778,271.6469 L75.7778,298.6469 M62.7778,279.6469 L88.7778,279.6469 M75.7778,298.6469 L62.7778,313.6469 M75.7778,298.6469 L88.7778,313.6469 " fill="#FFFFFF" fill-opacity="0.00000" style="stroke:#181818;stroke-width:0.5;"/><text fill="#000000" font-family="sans-serif" font-size="14" lengthAdjust="spacing" textLength="39.9355" x="55.81" y="328.142">Klient</text></g><!--entity Pracownik--><g id="elem_Pracownik"><ellipse cx="75.7743" cy="856.6469" fill="#F1F1F1" rx="8" ry="8" style="stroke:#181818;stroke-width:0.5;"/><path d="M75.7743,864.6469 L75.7743,891.6469 M62.7743,872.6469 L88.7743,872.6469 M75.7743,891.6469 L62.7743,906.6469 M75.7743,891.6469 L88.7743,906.6469 " fill="#FFFFFF" fill-opacity="0.00000" style="stroke:#181818;stroke-width:0.5;"/><text fill="#000000" font-family="sans-serif" font-size="14" lengthAdjust="spacing" textLength="121.7686" x="14.89" y="921.142">Pracownik Hotelu</text></g><!--entity ExternalSystem--><g id="elem_ExternalSystem"><ellipse cx="75.7744" cy="1310.6469" fill="#ADD8E6" rx="8" ry="8" style="stroke:#181818;stroke-width:0.5;"/><path d="M75.7744,1318.6469 L75.7744,1345.6469 M62.7744,1326.6469 L88.7744,1326.6469 M75.7744,1345.6469 L62.7744,1360.6469 M75.7744,1345.6469 L88.7744,1360.6469 " fill="#FFFFFF" fill-opacity="0.00000" style="stroke:#181818;stroke-width:0.5;"/><text fill="#000000" font-family="sans-serif" font-size="14" lengthAdjust="spacing" textLength="139.5488" x="6" y="1375.142">System Zewn&#281;trzny</text></g><!--link UC12 to UC15--><g id="link_UC12_UC15"><path d="M294.67,697.0669 C277.06,704.4169 260.78,714.7669 248.55,729.2969 C161.4,832.7969 221.93,896.7069 214.3,1031.7969 C205.61,1185.8569 147.4,1260.7669 248.55,1377.2969 C264.71,1395.9169 281.9618,1405.3738 305.8218,1411.7238 " fill="#FFFFFF" fill-opacity="0.00000" id="UC12-to-UC15" style="stroke:#181818;stroke-width:1;stroke-dasharray:7.0,7.0;"/><polygon fill="#181818" points="311.62,1413.2669,303.9515,1407.0868,306.7882,1411.981,301.894,1414.8177,311.62,1413.2669" style="stroke:#181818;stroke-width:1;"/><text fill="#000000" font-family="sans-serif" font-size="13" lengthAdjust="spacing" textLength="63.0068" x="176.55" y="1044.8638">&#171;include&#187;</text></g><!--link UC12 to UC16--><g id="link_UC12_UC16"><path d="M294.91,697.2669 C277.27,704.5969 260.92,714.8869 248.55,729.2969 C173.33,816.8769 221.93,871.5969 214.3,986.7969 C207.69,1086.6269 181.71,1134.8469 248.55,1209.2969 C262.11,1224.3969 274.4594,1232.7172 293.5994,1239.8672 " fill="#FFFFFF" fill-opacity="0.00000" id="UC12-to-UC16" style="stroke:#181818;stroke-width:1;stroke-dasharray:7.0,7.0;"/><polygon fill="#181818" points="299.22,1241.9669,292.1888,1235.0703,294.5361,1240.2172,289.3893,1242.5645,299.22,1241.9669" style="stroke:#181818;stroke-width:1;"/><text fill="#000000" font-family="sans-serif" font-size="13" lengthAdjust="spacing" textLength="63.0068" x="176.55" y="999.8638">&#171;include&#187;</text></g><!--link UC12 to UC17--><g id="link_UC12_UC17"><path d="M294.79,697.1569 C277.16,704.4969 260.85,714.8269 248.55,729.2969 C167.5,824.6569 221.93,883.8769 214.3,1008.7969 C206.28,1140.3269 159.85,1205.8469 248.55,1303.2969 C268.96,1325.7169 293.6672,1335.2811 323.2072,1339.7411 " fill="#FFFFFF" fill-opacity="0.00000" id="UC12-to-UC17" style="stroke:#181818;stroke-width:1;stroke-dasharray:7.0,7.0;"/><polygon fill="#181818" points="329.14,1340.6369,320.838,1335.3381,324.196,1339.8904,319.6437,1343.2484,329.14,1340.6369" style="stroke:#181818;stroke-width:1;"/><text fill="#000000" font-family="sans-serif" font-size="13" lengthAdjust="spacing" textLength="63.0068" x="176.55" y="1021.8638">&#171;include&#187;</text></g><!--link Klient to UC1--><g id="link_Klient_UC1"><path d="M96.03,317.3669 C125.29,352.3169 184.35,416.8069 248.55,452.2969 C270.1,464.2069 289.197,471.5079 313.067,478.1079 " fill="#FFFFFF" fill-opacity="0.00000" id="Klient-to-UC1" style="stroke:#181818;stroke-width:1;"/><polygon fill="#181818" points="318.85,479.7069,311.2415,473.453,314.0308,478.3744,309.1095,481.1637,318.85,479.7069" style="stroke:#181818;stroke-width:1;"/></g><!--link Klient to UC2--><g id="link_Klient_UC2"><path d="M96.11,268.7069 C125.23,233.4369 183.88,169.0269 248.55,135.2969 C276.2,120.8769 303.3681,113.1376 332.7481,107.7576 " fill="#FFFFFF" fill-opacity="0.00000" id="Klient-to-UC2" style="stroke:#181818;stroke-width:1;"/><polygon fill="#181818" points="338.65,106.6769,329.0767,104.3634,333.7318,107.5775,330.5177,112.2326,338.65,106.6769" style="stroke:#181818;stroke-width:1;"/></g><!--link Klient to UC3--><g id="link_Klient_UC3"><path d="M96.06,282.6969 C127.28,265.9169 191.18,233.1169 248.55,213.2969 C278.24,203.0369 305.9676,195.8945 335.1976,189.5245 " fill="#FFFFFF" fill-opacity="0.00000" id="Klient-to-UC3" style="stroke:#181818;stroke-width:1;"/><polygon fill="#181818" points="341.06,188.2469,331.4147,186.255,336.1747,189.3115,333.1181,194.0715,341.06,188.2469" style="stroke:#181818;stroke-width:1;"/></g><!--link Klient to UC4--><g id="link_Klient_UC4"><path d="M95.96,291.0269 C139.85,285.8469 243.8614,273.5705 322.5314,264.2805 " fill="#FFFFFF" fill-opacity="0.00000" id="Klient-to-UC4" style="stroke:#181818;stroke-width:1;"/><polygon fill="#181818" points="328.49,263.5769,319.083,260.6599,323.5245,264.1632,320.0212,268.6047,328.49,263.5769" style="stroke:#181818;stroke-width:1;"/></g><!--link Klient to UC5--><g id="link_Klient_UC5"><path d="M95.96,295.5069 C139.71,300.5369 243.1594,312.4507 321.7794,321.5007 " fill="#FFFFFF" fill-opacity="0.00000" id="Klient-to-UC5" style="stroke:#181818;stroke-width:1;"/><polygon fill="#181818" points="327.74,322.1869,319.2565,317.1839,322.7728,321.6151,318.3416,325.1314,327.74,322.1869" style="stroke:#181818;stroke-width:1;"/></g><!--link Klient to UC6--><g id="link_Klient_UC6"><path d="M96.09,303.7069 C127.36,320.2069 191.32,352.4969 248.55,372.2969 C277.71,382.3869 304.7474,389.5353 333.5774,396.0453 " fill="#FFFFFF" fill-opacity="0.00000" id="Klient-to-UC6" style="stroke:#181818;stroke-width:1;"/><polygon fill="#181818" points="339.43,397.3669,331.5321,391.4828,334.5528,396.2656,329.77,399.2863,339.43,397.3669" style="stroke:#181818;stroke-width:1;"/></g><!--link Pracownik to UC7--><g id="link_Pracownik_UC7"><path d="M136.77,855.0869 C169.21,839.1369 210.36,820.3869 248.55,807.2969 C278.55,797.0169 306.6368,789.8108 336.0468,783.4208 " fill="#FFFFFF" fill-opacity="0.00000" id="Pracownik-to-UC7" style="stroke:#181818;stroke-width:1;"/><polygon fill="#181818" points="341.91,782.1469,332.2659,780.1489,337.024,783.2085,333.9645,787.9665,341.91,782.1469" style="stroke:#181818;stroke-width:1;"/></g><!--link Pracownik to UC8--><g id="link_Pracownik_UC8"><path d="M136.96,879.5469 C188.3,873.7869 257.0074,866.0856 316.1274,859.4556 " fill="#FFFFFF" fill-opacity="0.00000" id="Pracownik-to-UC8" style="stroke:#181818;stroke-width:1;"/><polygon fill="#181818" points="322.09,858.7869,312.7003,855.8148,317.1211,859.3441,313.5919,863.765,322.09,858.7869" style="stroke:#181818;stroke-width:1;"/></g><!--link Pracownik to UC9--><g id="link_Pracownik_UC9"><path d="M136.96,892.8669 C196.95,899.4169 282.8354,908.806 344.5054,915.536 " fill="#FFFFFF" fill-opacity="0.00000" id="Pracownik-to-UC9" style="stroke:#181818;stroke-width:1;"/><polygon fill="#181818" points="350.47,916.1869,341.9571,911.2341,345.4995,915.6444,341.0892,919.1869,350.47,916.1869" style="stroke:#181818;stroke-width:1;"/></g><!--link Pracownik to UC10--><g id="link_Pracownik_UC10"><path d="M137.12,913.9669 C169.66,928.1869 210.79,945.0569 248.55,957.2969 C278.33,966.9569 305.9299,974.084 335.0299,980.714 " fill="#FFFFFF" fill-opacity="0.00000" id="Pracownik-to-UC10" style="stroke:#181818;stroke-width:1;"/><polygon fill="#181818" points="340.88,982.0469,332.9934,976.1475,336.0049,980.9362,331.2163,983.9477,340.88,982.0469" style="stroke:#181818;stroke-width:1;"/></g><!--link Pracownik to UC11--><g id="link_Pracownik_UC11"><path d="M88.52,924.8969 C102.55,963.7969 130,1022.1269 175.55,1051.2969 C219.49,1079.4369 271.4601,1086.3956 319.4301,1086.0856 " fill="#FFFFFF" fill-opacity="0.00000" id="Pracownik-to-UC11" style="stroke:#181818;stroke-width:1;"/><polygon fill="#181818" points="325.43,1086.0469,316.4043,1082.1051,320.4301,1086.0792,316.456,1090.105,325.43,1086.0469" style="stroke:#181818;stroke-width:1;"/></g><!--link Pracownik to UC12--><g id="link_Pracownik_UC12"><path d="M109.18,847.9869 C141.2,812.4169 193.28,760.4269 248.55,729.2969 C268.43,718.0969 285.3841,711.0398 307.4841,704.1198 " fill="#FFFFFF" fill-opacity="0.00000" id="Pracownik-to-UC12" style="stroke:#181818;stroke-width:1;"/><polygon fill="#181818" points="313.21,702.3269,303.4259,701.199,308.4384,703.821,305.8165,708.8335,313.21,702.3269" style="stroke:#181818;stroke-width:1;"/></g><!--link Pracownik to UC13--><g id="link_Pracownik_UC13"><path d="M87.41,924.9269 C101.21,968.6769 129.19,1039.6769 175.55,1084.2969 C210.4,1117.8369 253.9253,1135.7069 298.8253,1146.8069 " fill="#FFFFFF" fill-opacity="0.00000" id="Pracownik-to-UC13" style="stroke:#181818;stroke-width:1;"/><polygon fill="#181818" points="304.65,1148.2469,296.873,1142.2039,299.7961,1147.0469,294.9531,1149.9701,304.65,1148.2469" style="stroke:#181818;stroke-width:1;"/></g><!--link Pracownik to UC14--><g id="link_Pracownik_UC14"><path d="M91.68,848.0469 C115.78,791.4769 168.79,686.2869 248.55,631.2969 C267.68,618.1069 284.7723,610.5203 307.3423,604.0503 " fill="#FFFFFF" fill-opacity="0.00000" id="Pracownik-to-UC14" style="stroke:#181818;stroke-width:1;"/><polygon fill="#181818" points="313.11,602.3969,303.3562,601.0318,308.3036,603.7747,305.5607,608.7221,313.11,602.3969" style="stroke:#181818;stroke-width:1;"/></g><!--link ExternalSystem to UC15--><g id="link_ExternalSystem_UC15"><path d="M145.74,1356.3769 C202.34,1369.5769 276.4868,1386.8642 334.6768,1400.4342 " fill="#FFFFFF" fill-opacity="0.00000" id="ExternalSystem-to-UC15" style="stroke:#181818;stroke-width:1;"/><polygon fill="#181818" points="340.52,1401.7969,332.6636,1395.8574,335.6507,1400.6613,330.8467,1403.6484,340.52,1401.7969" style="stroke:#181818;stroke-width:1;"/></g><!--link ExternalSystem to UC16--><g id="link_ExternalSystem_UC16"><path d="M145.81,1321.9369 C155.78,1319.3369 165.92,1316.7269 175.55,1314.2969 C224.7,1301.8869 273.8245,1289.9624 318.7345,1279.2224 " fill="#FFFFFF" fill-opacity="0.00000" id="ExternalSystem-to-UC16" style="stroke:#181818;stroke-width:1;"/><polygon fill="#181818" points="324.57,1277.8269,314.8865,1276.0299,319.7071,1278.9898,316.7472,1283.8105,324.57,1277.8269" style="stroke:#181818;stroke-width:1;"/></g><!--link ExternalSystem to UC17--><g id="link_ExternalSystem_UC17"><path d="M145.74,1340.2969 C198.66,1340.2969 266.04,1340.2969 322.92,1340.2969 " fill="#FFFFFF" fill-opacity="0.00000" id="ExternalSystem-to-UC17" style="stroke:#181818;stroke-width:1;"/><polygon fill="#181818" points="328.92,1340.2969,319.92,1336.2969,323.92,1340.2969,319.92,1344.2969,328.92,1340.2969" style="stroke:#181818;stroke-width:1;"/></g><!--SRC=[bPJDYjim4CVlUOeXFQVK-TnTbi3I5WhRqh3BKjYR8aySnOeKP0dNBhqK-X1X7wFNtfgyLsNPJbPsDhI-pSnFyvyPZwIPvWZl68aKMSDCvTc6XF6VNoayx7zdb17emNsMQ5p37UQeKa9N33v8ZLockEfqWED2WvQWMBJK43A5L3CfR8HGBHNSSeP2rrPtfWYLgM1ncSHqWIHmS1wmIlCHKx7RQfMBp87llsfKWl0g_8eNedDkqCfj28r9X8UpntgxyAq302P1IX8iQiWnuhkV8H4C8PI9tcqt8gDBsCXOCgVqy3RmpXoo4GUjJ4NrFUf663iNbrOzatVam2C_ogW2Gmc9gxXEEMm8hp3HoYcd5ScmGaTd-ceLCEvuz2DHkMLp1xkUoBf69tvUgLE6ga9RUIyy-FCysVym4O58xfzepLp-Jw71ctyTLH3uFTrAiM2HAQV5XCP8kONDtLycAJss6FX_xfCKp6vU9MHPRHBpB4Lzol-BTxijpGMnLGcwL3P5xfHjNtQRwYD3lyPxdsrtFpg7rzlgXkllw_ZSEOgYvYQkdc82y7hg1E4Ahg-PeDo4E9qsekEpqKaZMeI5lTdLUo0NfI8KNxiaa7DShSqAhqgY1pCvjwlcVWA9jI7StSi2pM73YLv8jQxPBwYo1OjjijqMyaY6vLJgy8qxxyHidClO9iD85idiKqCA34Negkt0Trjv-LH1hpSjhxzdznlse64F6_QeOHUtx_ZubRv9stNHTbssNSKDQVc24xx-2T_WXA_OqSRZMaL6BmN6BmKcVm40]--></g></svg>