<svg xmlns="http://www.w3.org/2000/svg" xmlns:xlink="http://www.w3.org/1999/xlink" contentStyleType="text/css" data-diagram-type="DESCRIPTION" height="739px" preserveAspectRatio="none" style="width:458px;height:739px;background:#FFFFFF;" version="1.1" viewBox="0 0 458 739" width="458px" zoomAndPan="magnify"><defs/><g><!--cluster System--><g id="cluster_System"><rect fill="transparent" height="726" rx="2.5" ry="2.5" style="stroke:#181818;stroke-width:1;" width="282.71" x="170.11" y="7"/><text fill="#000000" font-family="sans-serif" font-size="14" font-weight="bold" lengthAdjust="spacing" textLength="58.3174" x="282.3063" y="21.9951">System</text></g><g id="elem_Przegl&#261;danie dost&#281;pnych pokoi"><ellipse cx="311.4709" cy="69.0002" fill="#F1F1F1" rx="125.3509" ry="27.4702" style="stroke:#181818;stroke-width:0.5;"/><text fill="#000000" font-family="sans-serif" font-size="14" lengthAdjust="spacing" textLength="218.7363" x="202.1027" y="71.8469">Przegl&#261;danie dost&#281;pnych pokoi</text></g><g id="elem_Rezerwacja pokoju"><ellipse cx="311.4705" cy="309.0001" fill="#F1F1F1" rx="85.5505" ry="19.5101" style="stroke:#181818;stroke-width:0.5;"/><text fill="#000000" font-family="sans-serif" font-size="14" lengthAdjust="spacing" textLength="131.5918" x="245.6746" y="311.8468">Rezerwacja pokoju</text></g><g id="elem_Anulowanie rezerwacji"><ellipse cx="311.4713" cy="233.0023" fill="#F1F1F1" rx="96.9113" ry="21.7823" style="stroke:#181818;stroke-width:0.5;"/><text fill="#000000" font-family="sans-serif" font-size="14" lengthAdjust="spacing" textLength="157.2266" x="232.858" y="235.8489">Anulowanie rezerwacji</text></g><g id="elem_Logowanie do systemu"><ellipse cx="311.4726" cy="385.9985" fill="#F1F1F1" rx="98.6426" ry="22.1285" style="stroke:#181818;stroke-width:0.5;"/><text fill="#000000" font-family="sans-serif" font-size="14" lengthAdjust="spacing" textLength="161.0615" x="230.9418" y="388.8452">Logowanie do systemu</text></g><g id="elem_Rejestracja w systemie"><ellipse cx="311.4738" cy="153.9968" fill="#F1F1F1" rx="98.8838" ry="22.1768" style="stroke:#181818;stroke-width:0.5;"/><text fill="#000000" font-family="sans-serif" font-size="14" lengthAdjust="spacing" textLength="161.5947" x="230.6765" y="156.8434">Rejestracja w systemie</text></g><g id="elem_Zarz&#261;dzanie pokojami"><ellipse cx="311.4666" cy="694.9973" fill="#F1F1F1" rx="95.7366" ry="21.5473" style="stroke:#181818;stroke-width:0.5;"/><text fill="#000000" font-family="sans-serif" font-size="14" lengthAdjust="spacing" textLength="154.6152" x="234.159" y="697.844">Zarz&#261;dzanie pokojami</text></g><g id="elem_Potwierdzanie rezerwacji"><ellipse cx="311.4742" cy="614.9968" fill="#F1F1F1" rx="104.7342" ry="23.3468" style="stroke:#181818;stroke-width:0.5;"/><text fill="#000000" font-family="sans-serif" font-size="14" lengthAdjust="spacing" textLength="174.4395" x="224.2545" y="617.8435">Potwierdzanie rezerwacji</text></g><g id="elem_Obs&#322;uga go&#347;ci"><ellipse cx="311.4729" cy="539.9986" fill="#F1F1F1" rx="72.0429" ry="16.8086" style="stroke:#181818;stroke-width:0.5;"/><text fill="#000000" font-family="sans-serif" font-size="14" lengthAdjust="spacing" textLength="98.3008" x="259.3225" y="543.7461">Obs&#322;uga go&#347;ci</text></g><g id="elem_Przegl&#261;danie rezerwacji"><ellipse cx="311.4743" cy="466.0029" fill="#F1F1F1" rx="101.0643" ry="22.6129" style="stroke:#181818;stroke-width:0.5;"/><text fill="#000000" font-family="sans-serif" font-size="14" lengthAdjust="spacing" textLength="166.4004" x="228.2741" y="468.8495">Przegl&#261;danie rezerwacji</text></g><!--entity Klient--><g id="elem_Klient"><ellipse cx="66.0578" cy="203.35" fill="#F1F1F1" rx="8" ry="8" style="stroke:#181818;stroke-width:0.5;"/><path d="M66.0578,211.35 L66.0578,238.35 M53.0578,219.35 L79.0578,219.35 M66.0578,238.35 L53.0578,253.35 M66.0578,238.35 L79.0578,253.35 " fill="transparent" style="stroke:#181818;stroke-width:0.5;"/><text fill="#000000" font-family="sans-serif" font-size="14" lengthAdjust="spacing" textLength="39.9355" x="46.09" y="267.8451">Klient</text></g><!--entity Pracownik--><g id="elem_Pracownik"><ellipse cx="66.0571" cy="510.35" fill="#F1F1F1" rx="8" ry="8" style="stroke:#181818;stroke-width:0.5;"/><path d="M66.0571,518.35 L66.0571,545.35 M53.0571,526.35 L79.0571,526.35 M66.0571,545.35 L53.0571,560.35 M66.0571,545.35 L79.0571,560.35 " fill="transparent" style="stroke:#181818;stroke-width:0.5;"/><text fill="#000000" font-family="sans-serif" font-size="14" lengthAdjust="spacing" textLength="120.1143" x="6" y="574.8451">Pracownik hotelu</text></g><!--link Klient to Przegl?danie dost?pnych pokoi--><g id="link_Klient_Przegl&#261;danie dost&#281;pnych pokoi"><path d="M86.41,198.78 C103.19,172.05 129.83,135.88 162.11,114 C178.82,102.67 198.48,94.12 217.91,87.69 " fill="transparent" id="Klient-Przegl&#261;danie dost&#281;pnych pokoi" style="stroke:#181818;stroke-width:1;"/></g><!--link Klient to Rezerwacja pokoju--><g id="link_Klient_Rezerwacja pokoju"><path d="M86.41,241.91 C105.4,250.42 135.33,263.22 162.11,272 C189.99,281.14 221.44,289.28 248.18,295.59 " fill="transparent" id="Klient-Rezerwacja pokoju" style="stroke:#181818;stroke-width:1;"/></g><!--link Klient to Anulowanie rezerwacji--><g id="link_Klient_Anulowanie rezerwacji"><path d="M86.16,233 C113.73,233 166.59,233 214.07,233 " fill="transparent" id="Klient-Anulowanie rezerwacji" style="stroke:#181818;stroke-width:1;"/></g><!--link Klient to Logowanie do systemu--><g id="link_Klient_Logowanie do systemu"><path d="M86.45,265.48 C103.35,291.03 130.12,325.61 162.11,346 C182.25,358.83 206.44,367.58 229.38,373.53 " fill="transparent" id="Klient-Logowanie do systemu" style="stroke:#181818;stroke-width:1;"/></g><!--link Klient to Rejestracja w systemie--><g id="link_Klient_Rejestracja w systemie"><path d="M86.45,224.2 C105.47,215.77 135.42,203.04 162.11,194 C188.14,185.19 217.24,177 242.72,170.35 " fill="transparent" id="Klient-Rejestracja w systemie" style="stroke:#181818;stroke-width:1;"/></g><!--link Pracownik to Zarz?dzanie pokojami--><g id="link_Pracownik_Zarz&#261;dzanie pokojami"><path d="M89.57,578.57 C106.43,604.16 131.77,636.52 162.11,656 C182.28,668.95 206.61,677.61 229.67,683.4 " fill="transparent" id="Pracownik-Zarz&#261;dzanie pokojami" style="stroke:#181818;stroke-width:1;"/></g><!--link Pracownik to Potwierdzanie rezerwacji--><g id="link_Pracownik_Potwierdzanie rezerwacji"><path d="M126.41,561.99 C138.19,566.14 150.5,570.32 162.11,574 C187.97,582.19 216.65,590.32 241.84,597.17 " fill="transparent" id="Pracownik-Potwierdzanie rezerwacji" style="stroke:#181818;stroke-width:1;"/></g><!--link Pracownik to Obs?uga go?ci--><g id="link_Pracownik_Obs&#322;uga go&#347;ci"><path d="M126.6,540 C160.52,540 203.25,540 238.97,540 " fill="transparent" id="Pracownik-Obs&#322;uga go&#347;ci" style="stroke:#181818;stroke-width:1;"/></g><!--link Pracownik to Przegl?danie rezerwacji--><g id="link_Pracownik_Przegl&#261;danie rezerwacji"><path d="M126.39,517.95 C138.17,513.81 150.49,509.64 162.11,506 C188.33,497.79 217.47,489.71 242.93,482.99 " fill="transparent" id="Pracownik-Przegl&#261;danie rezerwacji" style="stroke:#181818;stroke-width:1;"/></g><!--link Pracownik to Logowanie do systemu--><g id="link_Pracownik_Logowanie do systemu"><path d="M90.12,501.62 C107.07,476.58 132.28,445.11 162.11,426 C182.11,413.2 206.13,404.46 228.96,398.51 " fill="transparent" id="Pracownik-Logowanie do systemu" style="stroke:#181818;stroke-width:1;"/></g><!--SRC=[VP11JiCm44NtESMegtRHGx2c4X7is0tEu3XrFTLuBAj1R90u1E8wxRqW9WKb1PQstxpvtvuU5PH1d6qL6YTar76e08somBLt5FHyMjI2XdDmMsXPoQS5O8Jlowg2OHo3zGHtXwYqWwSAOBJ0UWtBMdgo_lZQO7043KSzlkt3mRImvosxrGo_fPuae-cml7Tf3bo5v3aNcPpP2yk6xSWq3B44IvUREeegPLKU8KUhQi1-QW_aFKh_MQ0lmf8ATryhfrpDcXt92CxIJT6RXtXwIHR1ykdT_2gR_Dk_iZ_QFdy0]--></g></svg>
